<?xml version="1.0" encoding="UTF-8" standalone="no"?>
<!-- Created with Inkscape (http://www.inkscape.org/) -->

<svg
   width="103.22189mm"
   height="23.362715mm"
   viewBox="0 0 103.22189 23.362715"
   version="1.1"
   id="svg1"
   xml:space="preserve"
   xmlns:inkscape="http://www.inkscape.org/namespaces/inkscape"
   xmlns:sodipodi="http://sodipodi.sourceforge.net/DTD/sodipodi-0.dtd"
   xmlns="http://www.w3.org/2000/svg"
   xmlns:svg="http://www.w3.org/2000/svg"><sodipodi:namedview
     id="namedview1"
     pagecolor="#ffffff"
     bordercolor="#000000"
     borderopacity="0.25"
     inkscape:showpageshadow="2"
     inkscape:pageopacity="0.0"
     inkscape:pagecheckerboard="0"
     inkscape:deskcolor="#d1d1d1"
     inkscape:document-units="mm" /><defs
     id="defs1" /><g
     inkscape:label="Layer 1"
     inkscape:groupmode="layer"
     id="layer1"
     transform="translate(-50.992608,-130.89532)"><g
       id="g1"
       transform="matrix(0.26458333,0,0,0.26458333,50.992606,130.89533)"><path
         class="st0"
         d="m 13.85,64.39 c 0.01,-0.4 0.02,-0.8 0.02,-1.21 0,-0.12 0,-0.23 0.01,-0.32 0,-0.05 0.02,-0.08 0.03,-0.1 0.01,-0.01 0.03,-0.04 0.11,-0.06 0.05,-0.02 0.16,-0.04 0.36,-0.04 0.12,0 0.23,-0.02 0.33,-0.04 0.19,-0.06 0.3,-0.22 0.3,-0.43 0,-0.11 -0.05,-0.21 -0.14,-0.3 L 14.8,61.81 h -1.03 c -0.11,0 -0.22,0.01 -0.33,0.02 -0.3,0.03 -0.58,0.02 -0.79,-0.01 -0.17,-0.02 -0.36,-0.04 -0.58,-0.04 h -0.12 c -0.07,0 -0.15,0.01 -0.23,0.02 -0.2,0.03 -0.32,0.18 -0.32,0.38 0,0.29 0.18,0.4 0.26,0.43 0.1,0.04 0.21,0.06 0.33,0.07 0.09,0.01 0.18,0.02 0.28,0.04 0.05,0.01 0.09,0.03 0.11,0.04 0,0 0.02,0.04 0.05,0.18 0.02,0.13 0.03,0.24 0.03,0.35 v 0.2 c 0,0.17 0,0.35 0,0.52 0,0.18 -0.01,0.36 -0.01,0.54 l -0.01,0.98 c 0,0.12 -0.01,0.25 -0.03,0.39 -0.01,0.1 -0.04,0.13 -0.05,0.14 -0.04,0.03 -0.09,0.06 -0.15,0.07 -0.1,0.02 -0.2,0.04 -0.29,0.06 -0.11,0.02 -0.2,0.05 -0.29,0.08 -0.18,0.06 -0.28,0.2 -0.28,0.38 0,0.19 0.1,0.35 0.27,0.41 0.1,0.04 0.2,0.05 0.3,0.05 h 0.15 c 0.11,0 0.21,0 0.3,-0.01 0.08,-0.01 0.16,-0.02 0.24,-0.03 0.06,-0.01 0.13,-0.02 0.2,-0.02 0.21,-0.02 0.53,-0.01 0.82,0.02 0.32,0.03 0.66,0.05 0.96,0.02 0.24,-0.02 0.39,-0.19 0.39,-0.44 0,-0.18 -0.12,-0.33 -0.31,-0.38 -0.09,-0.03 -0.18,-0.05 -0.3,-0.07 -0.1,-0.02 -0.21,-0.04 -0.31,-0.06 -0.07,-0.01 -0.11,-0.03 -0.14,-0.05 -0.02,-0.02 -0.04,-0.05 -0.06,-0.11 -0.02,-0.09 -0.03,-0.18 -0.04,-0.27 v -0.12 c 0.01,-0.4 0.02,-0.8 0.03,-1.2"
         id="path1" /><path
         class="st0"
         d="m 20.71,62.63 c -0.2,-0.22 -0.44,-0.39 -0.72,-0.52 -0.46,-0.2 -1.04,-0.25 -1.55,-0.1 -0.19,0.06 -0.37,0.13 -0.53,0.21 -0.05,0.02 -0.09,0.05 -0.14,0.08 0.11,-0.31 0.25,-0.61 0.41,-0.89 0.28,-0.5 0.65,-0.94 1.1,-1.33 0.1,-0.09 0.2,-0.17 0.31,-0.25 0.1,-0.07 0.21,-0.15 0.31,-0.2 0.03,-0.01 0.07,-0.04 0.14,-0.07 0.08,-0.03 0.15,-0.07 0.22,-0.11 0.08,-0.05 0.16,-0.09 0.22,-0.15 0.12,-0.1 0.18,-0.2 0.18,-0.32 0,-0.12 -0.05,-0.23 -0.14,-0.32 -0.05,-0.05 -0.1,-0.09 -0.16,-0.12 l -0.07,-0.04 -0.08,0.01 c -0.1,0.01 -0.22,0.04 -0.35,0.09 -0.11,0.04 -0.2,0.08 -0.28,0.12 -0.51,0.23 -0.98,0.53 -1.42,0.89 -0.44,0.36 -0.83,0.76 -1.16,1.21 -0.33,0.45 -0.6,0.95 -0.78,1.48 -0.19,0.53 -0.29,1.1 -0.29,1.69 0,0.3 0.03,0.6 0.1,0.89 0.07,0.29 0.16,0.57 0.3,0.83 0.14,0.26 0.31,0.5 0.53,0.7 0.22,0.21 0.48,0.38 0.79,0.51 0.37,0.15 0.75,0.23 1.12,0.23 0.39,0 0.74,-0.08 1.06,-0.24 0.31,-0.16 0.59,-0.37 0.81,-0.64 0.22,-0.27 0.39,-0.57 0.52,-0.9 0.13,-0.34 0.18,-0.69 0.18,-1.05 0,-0.34 -0.05,-0.65 -0.15,-0.94 -0.13,-0.28 -0.28,-0.54 -0.48,-0.75 m -1.5,3.54 c -0.14,0.1 -0.3,0.14 -0.51,0.14 -0.25,0 -0.44,-0.06 -0.59,-0.17 -0.16,-0.13 -0.29,-0.29 -0.39,-0.48 -0.1,-0.21 -0.17,-0.45 -0.22,-0.69 -0.04,-0.26 -0.06,-0.5 -0.06,-0.74 0,-0.12 0.01,-0.24 0.01,-0.35 l 0.03,-0.27 c 0.05,-0.05 0.11,-0.12 0.18,-0.18 0.09,-0.09 0.2,-0.17 0.31,-0.25 0.11,-0.07 0.23,-0.14 0.35,-0.19 0.32,-0.13 0.65,-0.07 0.88,0.06 0.15,0.09 0.27,0.2 0.37,0.35 0.1,0.15 0.18,0.33 0.23,0.52 0.05,0.2 0.08,0.42 0.08,0.63 0,0.2 -0.02,0.41 -0.07,0.63 -0.04,0.21 -0.12,0.4 -0.22,0.58 -0.11,0.17 -0.24,0.3 -0.38,0.41"
         id="path2" /><path
         class="st0"
         d="m 25.71,65.15 c -0.2,-0.19 -0.45,-0.34 -0.74,-0.43 -0.09,-0.03 -0.18,-0.05 -0.27,-0.07 0.12,-0.12 0.24,-0.26 0.35,-0.4 0.15,-0.19 0.28,-0.38 0.38,-0.58 0.12,-0.22 0.18,-0.43 0.18,-0.63 0,-0.26 -0.05,-0.49 -0.15,-0.67 -0.1,-0.18 -0.22,-0.33 -0.38,-0.45 -0.16,-0.12 -0.33,-0.2 -0.52,-0.25 -0.37,-0.1 -0.76,-0.11 -1.17,0.05 -0.19,0.08 -0.36,0.17 -0.52,0.28 -0.16,0.11 -0.3,0.24 -0.4,0.37 -0.13,0.17 -0.19,0.33 -0.17,0.51 0.01,0.1 0.07,0.19 0.15,0.27 0.09,0.07 0.17,0.09 0.23,0.09 0.08,0 0.16,-0.04 0.24,-0.11 0.15,-0.17 0.3,-0.31 0.42,-0.41 0.18,-0.15 0.55,-0.18 0.79,0.06 0.11,0.11 0.17,0.3 0.17,0.57 0,0.14 -0.04,0.29 -0.13,0.45 -0.1,0.18 -0.23,0.34 -0.38,0.5 -0.15,0.16 -0.32,0.31 -0.5,0.44 -0.18,0.13 -0.34,0.24 -0.48,0.31 l -0.21,0.1 c -0.25,0.12 -0.29,0.3 -0.29,0.4 0,0.26 0.17,0.44 0.42,0.44 0.1,0 0.19,-0.04 0.33,-0.14 0.07,-0.05 0.12,-0.08 0.18,-0.11 0.09,-0.05 0.17,-0.07 0.26,-0.07 h 0.05 c 0.15,0.01 0.29,0.03 0.42,0.06 0.14,0.03 0.26,0.08 0.37,0.16 0.11,0.08 0.2,0.18 0.28,0.29 0.08,0.12 0.14,0.26 0.18,0.4 0.04,0.15 0.07,0.3 0.07,0.44 0,0.28 -0.06,0.54 -0.17,0.76 -0.12,0.23 -0.27,0.44 -0.47,0.62 -0.2,0.18 -0.45,0.35 -0.72,0.48 -0.27,0.13 -0.57,0.25 -0.87,0.33 -0.1,0.01 -0.18,0.06 -0.23,0.14 -0.04,0.06 -0.07,0.13 -0.08,0.21 -0.01,0.1 0.01,0.19 0.07,0.27 0.04,0.05 0.13,0.15 0.31,0.15 v 0 0 c 0.4,-0.01 0.81,-0.1 1.23,-0.27 0.42,-0.17 0.8,-0.41 1.15,-0.7 0.35,-0.3 0.64,-0.64 0.87,-1.03 0.23,-0.4 0.35,-0.84 0.35,-1.28 0,-0.3 -0.05,-0.59 -0.16,-0.85 -0.09,-0.28 -0.24,-0.51 -0.44,-0.7"
         id="path3" /><path
         class="st0"
         d="m 31.87,65.06 c -0.04,-0.09 -0.12,-0.21 -0.31,-0.28 -0.19,-0.08 -0.39,-0.02 -0.52,0.16 l -0.3,0.43 c -0.07,0.1 -0.15,0.21 -0.23,0.32 -0.08,0.11 -0.15,0.21 -0.22,0.29 0,0 -0.05,0.04 -0.24,0.08 -0.19,0.04 -0.4,0.06 -0.62,0.07 -0.2,0.01 -0.38,0.01 -0.56,0 0.06,-0.07 0.13,-0.14 0.21,-0.22 0.15,-0.15 0.3,-0.33 0.45,-0.52 0.16,-0.19 0.31,-0.39 0.46,-0.59 0.14,-0.2 0.27,-0.4 0.37,-0.58 0.11,-0.2 0.19,-0.38 0.23,-0.54 0.17,-0.61 0.11,-1.12 -0.17,-1.5 -0.29,-0.39 -0.73,-0.59 -1.33,-0.59 -0.11,0 -0.22,0.01 -0.33,0.01 -0.12,0.01 -0.25,0.03 -0.38,0.07 -0.13,0.04 -0.27,0.11 -0.41,0.21 -0.14,0.09 -0.28,0.22 -0.43,0.39 -0.03,0.03 -0.07,0.07 -0.11,0.14 l -0.11,0.15 c -0.05,0.07 -0.09,0.14 -0.12,0.2 -0.04,0.09 -0.06,0.16 -0.06,0.23 0,0.13 0.06,0.25 0.17,0.33 0.12,0.08 0.26,0.1 0.39,0.03 0.09,-0.04 0.17,-0.13 0.23,-0.24 0.03,-0.05 0.07,-0.11 0.13,-0.18 0.05,-0.06 0.12,-0.11 0.21,-0.15 0.06,-0.03 0.18,-0.06 0.4,-0.06 0.4,0 0.51,0.16 0.55,0.22 0.1,0.15 0.09,0.38 -0.02,0.68 -0.08,0.18 -0.18,0.39 -0.31,0.61 -0.13,0.23 -0.28,0.48 -0.45,0.72 -0.17,0.25 -0.35,0.5 -0.55,0.75 -0.2,0.25 -0.39,0.48 -0.57,0.69 -0.11,0.11 -0.13,0.22 -0.13,0.29 0,0.07 0,0.27 0.15,0.38 0.07,0.06 0.16,0.09 0.26,0.1 l 0.07,0.01 c 0.14,0 0.24,-0.09 0.3,-0.16 0.16,0 0.34,0 0.54,-0.01 0.23,0 0.43,-0.01 0.61,-0.01 0.43,0.01 0.8,0.04 1.08,0.09 0.3,0.05 0.56,0.08 0.75,0.09 h 0.04 c 0.16,0 0.32,-0.11 0.34,-0.35 0.01,-0.07 0.02,-0.18 0.04,-0.33 0.02,-0.14 0.06,-0.31 0.13,-0.52 0.06,-0.2 0.17,-0.44 0.34,-0.7 l 0.07,-0.12 z"
         id="path4" /><polygon
         class="st0"
         points="42.94,14.97 1,14.97 21.97,4.99 "
         id="polygon4" /><rect
         y="16.969999"
         class="st0"
         width="43.93"
         height="2"
         id="rect4"
         x="0" /><rect
         y="47.93"
         class="st0"
         width="11.98"
         height="5.9899998"
         id="rect5"
         x="0" /><rect
         x="31.959999"
         y="47.93"
         class="st0"
         width="11.98"
         height="5.9899998"
         id="rect6" /><rect
         x="15.98"
         y="47.93"
         class="st0"
         width="3.99"
         height="5.9899998"
         id="rect7" /><rect
         x="23.969999"
         y="47.93"
         class="st0"
         width="3.99"
         height="5.9899998"
         id="rect8" /><polygon
         class="st0"
         points="4,45.93 0.01,45.93 0.5,20.96 3.5,20.96 "
         id="polygon8" /><polygon
         class="st0"
         points="11.99,45.93 7.99,45.93 8.49,20.96 11.49,20.96 "
         id="polygon9" /><polygon
         class="st0"
         points="19.97,45.93 15.98,45.93 16.48,20.96 19.48,20.96 "
         id="polygon10" /><polygon
         class="st0"
         points="27.96,45.93 23.97,45.93 24.46,20.96 27.46,20.96 "
         id="polygon11" /><polygon
         class="st0"
         points="35.95,45.93 31.96,45.93 32.46,20.96 35.45,20.96 "
         id="polygon12" /><polygon
         class="st0"
         points="43.94,45.93 39.95,45.93 40.44,20.96 43.44,20.96 "
         id="polygon13" /><polygon
         class="st0"
         points="43.94,10.48 21.97,0 0,10.48 0,12.98 21.97,2.49 43.94,12.98 "
         id="polygon14" /><g
         class="st1"
         id="g33">
	<path
   class="st0"
   d="M 66.6,53.57 V 53.6 30.3 h 2.26 l 8.9,16.7 c 0.31,0.62 0.61,1.24 0.9,1.86 0.29,0.62 0.53,1.15 0.73,1.59 0.18,0.44 0.29,0.69 0.33,0.73 0,-0.02 0,-0.24 0,-0.66 -0.02,-0.44 -0.06,-0.97 -0.1,-1.59 -0.02,-0.62 -0.04,-1.24 -0.07,-1.86 -0.02,-0.62 -0.03,-1.15 -0.03,-1.59 L 79.45,30.4 h 1.93 V 53.71 H 79.32 L 70.49,37.17 c -0.66,-1.24 -1.18,-2.24 -1.56,-2.99 -0.35,-0.75 -0.55,-1.21 -0.6,-1.36 0,0.04 0,0.24 0,0.6 0.02,0.35 0.06,0.8 0.1,1.33 0.02,0.53 0.04,1.06 0.07,1.59 0.02,0.53 0.03,1 0.03,1.39 l 0.07,15.94 h -2 z"
   id="path14" />
	<path
   class="st0"
   d="m 98.57,54.04 c -0.55,-0.18 -1.01,-0.48 -1.36,-0.9 -0.35,-0.4 -0.6,-0.91 -0.73,-1.53 -0.71,0.8 -1.46,1.37 -2.26,1.73 -0.8,0.38 -1.68,0.56 -2.66,0.56 -1.37,-0.02 -2.46,-0.25 -3.25,-0.7 -0.8,-0.46 -1.35,-1.05 -1.66,-1.76 -0.31,-0.71 -0.46,-1.45 -0.46,-2.22 0.02,-1.93 0.8,-3.38 2.32,-4.35 1.53,-0.97 3.64,-1.46 6.34,-1.46 0.35,0 0.66,0 0.93,0 0.29,0.02 0.48,0.03 0.56,0.03 v -1.56 c 0,-0.8 -0.04,-1.44 -0.13,-1.93 -0.09,-0.49 -0.27,-0.87 -0.53,-1.16 -0.29,-0.31 -0.63,-0.55 -1.03,-0.73 -0.4,-0.18 -0.89,-0.27 -1.46,-0.27 -1.02,0.02 -2.01,0.23 -2.99,0.63 -0.97,0.4 -1.79,0.89 -2.46,1.46 l -0.93,-1.33 c 1.02,-0.71 2.08,-1.26 3.19,-1.66 1.11,-0.4 2.26,-0.6 3.45,-0.6 1.02,0 1.87,0.18 2.56,0.53 0.71,0.35 1.23,0.88 1.56,1.56 0.31,0.62 0.5,1.26 0.56,1.93 0.09,0.64 0.11,1.33 0.07,2.06 l -0.13,6.11 c -0.04,1.33 0.02,2.31 0.2,2.96 0.2,0.64 0.62,1.12 1.26,1.43 L 98.6,54.2 Z M 91.9,52.61 v 0.03 c 0.93,0 1.77,-0.22 2.52,-0.66 0.75,-0.44 1.37,-1.06 1.86,-1.86 0,-0.09 0,-0.24 0,-0.46 0,-0.22 0,-0.44 0,-0.66 0,-0.22 0,-0.38 0,-0.46 0,-0.24 0,-0.61 0,-1.1 0,-0.49 0,-0.97 0,-1.46 0,-0.49 0,-0.84 0,-1.06 -0.22,-0.02 -0.46,-0.03 -0.73,-0.03 -0.27,0 -0.53,0 -0.8,0 -2.21,0 -3.85,0.35 -4.91,1.06 -1.06,0.71 -1.59,1.79 -1.59,3.25 0,1.04 0.29,1.88 0.86,2.52 0.58,0.62 1.52,0.94 2.82,0.96 z"
   id="path15" />
	<path
   class="st0"
   d="m 107.7,54.27 v 0.03 c -0.46,0 -0.87,-0.07 -1.23,-0.2 -0.35,-0.11 -0.66,-0.25 -0.93,-0.43 -0.44,-0.27 -0.77,-0.66 -1,-1.2 -0.22,-0.53 -0.33,-1.18 -0.33,-1.96 V 38.27 h -2.19 v -1.39 h 2.19 c 0,-0.6 0.02,-1.21 0.07,-1.83 0.04,-0.62 0.09,-1.17 0.13,-1.66 0.04,-0.46 0.09,-0.76 0.13,-0.9 l 1.96,-0.4 c -0.04,0.13 -0.09,0.44 -0.13,0.93 -0.04,0.46 -0.09,1.03 -0.13,1.69 -0.04,0.66 -0.07,1.37 -0.07,2.13 h 4.18 l -0.6,1.39 h -3.65 v 11.75 c 0,0.93 0.18,1.63 0.53,2.09 0.35,0.46 0.95,0.7 1.79,0.7 0.4,0 0.73,-0.03 1,-0.1 0.29,-0.07 0.54,-0.15 0.76,-0.27 l 0.27,1.2 c -0.35,0.18 -0.75,0.31 -1.2,0.4 -0.44,0.09 -0.93,0.13 -1.46,0.13 z"
   id="path16" />
	<path
   class="st0"
   d="m 125.53,54.17 v 0.03 c -0.4,-0.35 -0.71,-0.74 -0.93,-1.16 -0.22,-0.42 -0.38,-0.96 -0.46,-1.63 -0.66,0.89 -1.46,1.55 -2.39,1.99 -0.93,0.46 -1.95,0.7 -3.05,0.7 -0.97,0 -1.79,-0.18 -2.46,-0.53 -0.67,-0.35 -1.16,-0.84 -1.49,-1.46 -0.22,-0.31 -0.39,-0.7 -0.5,-1.16 -0.13,-0.44 -0.2,-0.94 -0.2,-1.49 V 36.84 l 1.79,-0.4 v 12.48 c 0,0.71 0.09,1.29 0.27,1.76 0.18,0.44 0.44,0.81 0.8,1.1 0.27,0.22 0.6,0.4 1,0.53 0.4,0.13 0.83,0.2 1.29,0.2 0.89,0 1.75,-0.27 2.59,-0.8 0.84,-0.53 1.55,-1.28 2.13,-2.26 V 36.8 l 1.86,-0.33 v 12.95 c 0,1 0.07,1.76 0.2,2.29 0.13,0.51 0.35,0.93 0.66,1.26 l -1.23,1.23 z"
   id="path17" />
	<path
   class="st0"
   d="m 131.64,53.61 v 0.03 -13.35 c 0,-1.11 -0.07,-1.93 -0.2,-2.46 -0.13,-0.53 -0.23,-0.84 -0.3,-0.93 L 133,36.44 c 0.07,0.09 0.17,0.38 0.3,0.86 0.13,0.49 0.2,1.16 0.2,2.03 0.22,-0.35 0.49,-0.7 0.8,-1.03 0.31,-0.31 0.64,-0.6 1,-0.86 0.49,-0.38 0.97,-0.65 1.46,-0.83 0.49,-0.18 0.96,-0.27 1.43,-0.27 0.22,0 0.42,0.02 0.6,0.07 0.18,0.04 0.29,0.08 0.33,0.1 l -0.73,1.99 c -0.09,-0.04 -0.2,-0.09 -0.33,-0.13 -0.13,-0.02 -0.27,-0.03 -0.4,-0.03 -0.53,0 -1.04,0.11 -1.53,0.33 -0.49,0.22 -0.95,0.55 -1.39,1 -0.44,0.42 -0.75,0.83 -0.93,1.23 -0.18,0.4 -0.27,0.93 -0.27,1.59 v 11.19 h -1.86 z"
   id="path18" />
	<path
   class="st0"
   d="m 153.03,54.04 c -0.55,-0.18 -1.01,-0.48 -1.36,-0.9 -0.35,-0.4 -0.6,-0.91 -0.73,-1.53 -0.71,0.8 -1.46,1.37 -2.26,1.73 -0.8,0.38 -1.68,0.56 -2.66,0.56 -1.37,-0.02 -2.46,-0.25 -3.25,-0.7 -0.8,-0.46 -1.35,-1.05 -1.66,-1.76 -0.31,-0.71 -0.46,-1.45 -0.46,-2.22 0.02,-1.93 0.8,-3.38 2.32,-4.35 1.53,-0.97 3.64,-1.46 6.34,-1.46 0.35,0 0.66,0 0.93,0 0.29,0.02 0.48,0.03 0.56,0.03 v -1.56 c 0,-0.8 -0.04,-1.44 -0.13,-1.93 -0.09,-0.49 -0.27,-0.87 -0.53,-1.16 -0.29,-0.31 -0.63,-0.55 -1.03,-0.73 -0.4,-0.18 -0.89,-0.27 -1.46,-0.27 -1.02,0.02 -2.01,0.23 -2.99,0.63 -0.97,0.4 -1.79,0.89 -2.46,1.46 l -0.93,-1.33 c 1.02,-0.71 2.08,-1.26 3.19,-1.66 1.11,-0.4 2.26,-0.6 3.45,-0.6 1.02,0 1.87,0.18 2.56,0.53 0.71,0.35 1.23,0.88 1.56,1.56 0.31,0.62 0.5,1.26 0.56,1.93 0.09,0.64 0.11,1.33 0.07,2.06 l -0.13,6.11 c -0.04,1.33 0.02,2.31 0.2,2.96 0.2,0.64 0.62,1.12 1.26,1.43 l -0.93,1.33 z m -6.68,-1.43 v 0.03 c 0.93,0 1.77,-0.22 2.52,-0.66 0.75,-0.44 1.37,-1.06 1.86,-1.86 0,-0.09 0,-0.24 0,-0.46 0,-0.22 0,-0.44 0,-0.66 0,-0.22 0,-0.38 0,-0.46 0,-0.24 0,-0.61 0,-1.1 0,-0.49 0,-0.97 0,-1.46 0,-0.49 0,-0.84 0,-1.06 -0.22,-0.02 -0.46,-0.03 -0.73,-0.03 -0.27,0 -0.53,0 -0.8,0 -2.21,0 -3.85,0.35 -4.91,1.06 -1.06,0.71 -1.59,1.79 -1.59,3.25 0,1.04 0.29,1.88 0.86,2.52 0.58,0.62 1.52,0.94 2.82,0.96 z"
   id="path19" />
	<path
   class="st0"
   d="m 161.09,53.87 v 0.03 c -0.82,0 -1.43,-0.23 -1.83,-0.7 -0.4,-0.44 -0.6,-1.16 -0.6,-2.16 V 32.65 c 0,-1.06 -0.06,-1.88 -0.17,-2.46 -0.09,-0.58 -0.16,-0.91 -0.2,-1 l 1.83,-0.33 c 0.04,0.09 0.12,0.45 0.23,1.1 0.13,0.62 0.2,1.55 0.2,2.79 v 17.9 c 0,0.71 0.09,1.2 0.27,1.46 0.15,0.27 0.43,0.4 0.83,0.4 0.09,0 0.18,-0.01 0.27,-0.03 0.09,-0.04 0.15,-0.07 0.2,-0.07 l 0.4,1.2 c -0.27,0.13 -0.5,0.22 -0.7,0.27 -0.22,0.04 -0.46,0.07 -0.73,0.07 z"
   id="path20" />
	<path
   class="st0"
   d="m 174.44,53.64 v 0.03 -23.31 h 1.86 v 10.09 h 10.69 V 30.36 h 1.93 v 23.31 h -1.93 V 42.05 H 176.3 v 11.62 h -1.86 z"
   id="path21" />
	<path
   class="st0"
   d="m 196.02,32.89 c -0.42,0 -0.77,-0.14 -1.06,-0.43 -0.29,-0.27 -0.43,-0.61 -0.43,-1.03 0,-0.42 0.14,-0.76 0.43,-1.03 0.29,-0.29 0.64,-0.43 1.06,-0.43 0.4,0 0.74,0.13 1.03,0.4 0.29,0.27 0.43,0.62 0.43,1.06 0,0.42 -0.14,0.76 -0.43,1.03 -0.28,0.28 -0.63,0.43 -1.03,0.43 z m -0.99,20.72 v 0.03 -16.93 l 1.93,-0.3 v 17.27 h -1.93 z"
   id="path22" />
	<path
   class="st0"
   d="m 207.01,54 v 0.03 c -1.08,0 -2.14,-0.14 -3.15,-0.43 -1.02,-0.29 -1.93,-0.69 -2.72,-1.2 l 0.73,-1.36 c 0.77,0.49 1.6,0.86 2.49,1.13 0.89,0.27 1.81,0.4 2.79,0.4 1.24,0 2.21,-0.31 2.92,-0.93 0.69,-0.62 1.03,-1.45 1.03,-2.49 0,-0.8 -0.24,-1.46 -0.73,-1.99 -0.49,-0.53 -1.28,-0.92 -2.39,-1.16 l -2.13,-0.4 c -1.33,-0.27 -2.35,-0.77 -3.05,-1.53 -0.71,-0.75 -1.06,-1.73 -1.06,-2.92 0.02,-1.44 0.53,-2.6 1.53,-3.49 1,-0.88 2.37,-1.34 4.12,-1.36 0.91,0 1.78,0.12 2.62,0.37 0.84,0.22 1.59,0.53 2.26,0.93 l -0.73,1.36 c -0.62,-0.35 -1.27,-0.64 -1.96,-0.86 -0.69,-0.22 -1.41,-0.33 -2.16,-0.33 -1.2,0.02 -2.1,0.32 -2.72,0.9 -0.62,0.58 -0.93,1.33 -0.93,2.26 0,0.8 0.23,1.44 0.7,1.93 0.46,0.46 1.17,0.8 2.13,1 l 2.19,0.46 c 1.53,0.31 2.65,0.85 3.35,1.63 0.69,0.78 1.03,1.74 1.03,2.89 -0.02,1.59 -0.56,2.86 -1.63,3.79 -1.06,0.95 -2.51,1.44 -4.35,1.46 z"
   id="path23" />
	<path
   class="st0"
   d="m 221.09,54.27 v 0.03 c -0.46,0 -0.88,-0.07 -1.23,-0.2 -0.35,-0.11 -0.66,-0.25 -0.93,-0.43 -0.44,-0.27 -0.78,-0.66 -1,-1.2 -0.22,-0.53 -0.33,-1.18 -0.33,-1.96 V 38.27 h -2.19 v -1.39 h 2.19 c 0,-0.6 0.02,-1.21 0.07,-1.83 0.04,-0.62 0.09,-1.17 0.13,-1.66 0.04,-0.46 0.09,-0.76 0.13,-0.9 l 1.96,-0.4 c -0.04,0.13 -0.09,0.44 -0.13,0.93 -0.04,0.46 -0.09,1.03 -0.13,1.69 -0.04,0.66 -0.07,1.37 -0.07,2.13 h 4.18 l -0.6,1.39 h -3.65 v 11.75 c 0,0.93 0.18,1.63 0.53,2.09 0.35,0.46 0.95,0.7 1.79,0.7 0.4,0 0.73,-0.03 1,-0.1 0.29,-0.07 0.54,-0.15 0.76,-0.27 l 0.27,1.2 c -0.35,0.18 -0.75,0.31 -1.2,0.4 -0.44,0.09 -0.93,0.13 -1.46,0.13 z"
   id="path24" />
	<path
   class="st0"
   d="m 233.28,54.04 c -1.31,-0.02 -2.41,-0.3 -3.32,-0.83 -0.91,-0.53 -1.63,-1.21 -2.16,-2.03 -0.51,-0.75 -0.9,-1.64 -1.16,-2.66 -0.27,-1.02 -0.4,-2.17 -0.4,-3.45 0,-1.33 0.15,-2.52 0.46,-3.59 0.31,-1.06 0.75,-1.97 1.33,-2.72 0.53,-0.71 1.24,-1.29 2.13,-1.76 0.88,-0.44 1.93,-0.67 3.12,-0.7 1.39,0.02 2.54,0.32 3.45,0.9 0.91,0.58 1.6,1.25 2.09,2.03 0.49,0.75 0.86,1.64 1.13,2.66 0.27,1.02 0.4,2.19 0.4,3.52 0,1.15 -0.11,2.18 -0.33,3.09 -0.22,0.93 -0.53,1.75 -0.93,2.46 -0.53,0.93 -1.28,1.68 -2.26,2.26 -0.95,0.58 -2.09,0.86 -3.42,0.86 z m 0.13,-1.46 v 0.03 c 1.02,0 1.86,-0.24 2.52,-0.73 0.66,-0.49 1.15,-1.11 1.46,-1.86 0.31,-0.66 0.53,-1.33 0.66,-1.99 0.13,-0.66 0.2,-1.48 0.2,-2.46 0,-1.2 -0.09,-2.24 -0.27,-3.12 -0.18,-0.88 -0.42,-1.64 -0.73,-2.26 -0.35,-0.69 -0.89,-1.24 -1.59,-1.66 -0.71,-0.42 -1.53,-0.63 -2.46,-0.63 -0.93,0.02 -1.73,0.23 -2.39,0.63 -0.66,0.4 -1.15,0.89 -1.46,1.46 -0.31,0.58 -0.55,1.27 -0.73,2.09 -0.18,0.82 -0.27,1.76 -0.27,2.82 0,1.22 0.11,2.31 0.33,3.29 0.2,0.97 0.48,1.75 0.83,2.32 0.33,0.53 0.83,1 1.49,1.39 0.66,0.39 1.46,0.61 2.39,0.63 v 0.05 z"
   id="path25" />
	<path
   class="st0"
   d="m 245.2,53.61 v 0.03 -13.35 c 0,-1.11 -0.07,-1.93 -0.2,-2.46 -0.13,-0.53 -0.23,-0.84 -0.3,-0.93 l 1.86,-0.46 c 0.07,0.09 0.17,0.38 0.3,0.86 0.13,0.49 0.2,1.16 0.2,2.03 0.22,-0.35 0.49,-0.7 0.8,-1.03 0.31,-0.31 0.64,-0.6 1,-0.86 0.49,-0.38 0.97,-0.65 1.46,-0.83 0.49,-0.18 0.96,-0.27 1.43,-0.27 0.22,0 0.42,0.02 0.6,0.07 0.18,0.04 0.29,0.08 0.33,0.1 l -0.73,1.99 c -0.09,-0.04 -0.2,-0.09 -0.33,-0.13 -0.13,-0.02 -0.27,-0.03 -0.4,-0.03 -0.53,0 -1.04,0.11 -1.53,0.33 -0.49,0.22 -0.95,0.55 -1.39,1 -0.44,0.42 -0.75,0.83 -0.93,1.23 -0.18,0.4 -0.27,0.93 -0.27,1.59 v 11.19 h -1.86 z"
   id="path26" />
	<path
   class="st0"
   d="m 255.69,60.41 v 0.03 l -0.53,-1.26 c 0.66,-0.2 1.23,-0.5 1.69,-0.9 0.44,-0.4 0.84,-0.95 1.2,-1.66 0.35,-0.71 0.71,-1.64 1.06,-2.79 l 0.13,-0.33 -0.83,0.13 c -0.04,-0.27 -0.16,-0.71 -0.33,-1.33 -0.18,-0.62 -0.37,-1.26 -0.56,-1.93 -0.2,-0.69 -0.38,-1.25 -0.53,-1.69 l -4.12,-11.82 1.83,-0.6 4.02,12.09 c 0.18,0.53 0.33,1.07 0.46,1.63 0.13,0.55 0.24,1.03 0.33,1.43 0.09,0.4 0.13,0.62 0.13,0.66 h 0.07 c 0.04,-0.13 0.11,-0.37 0.2,-0.7 0.09,-0.33 0.2,-0.7 0.33,-1.1 0.13,-0.4 0.27,-0.77 0.4,-1.13 l 3.92,-12.42 h 2.06 l -5.81,17.53 c -0.35,1.13 -0.75,2.11 -1.2,2.96 -0.44,0.86 -0.97,1.58 -1.59,2.16 -0.62,0.58 -1.38,0.98 -2.29,1.23 z"
   id="path27" />
	<path
   class="st0"
   d="m 276.77,53.61 v 0.03 l 2.06,-23.31 h 2.82 l 5.05,17.4 c 0.22,0.82 0.4,1.52 0.53,2.09 0.13,0.58 0.21,0.91 0.23,1 0,-0.09 0.07,-0.42 0.2,-1 0.13,-0.55 0.31,-1.18 0.53,-1.89 l 5.18,-17.6 h 2.82 l 2.06,23.31 h -1.93 l -1.59,-18.53 c 0,-0.09 -0.01,-0.29 -0.03,-0.6 0,-0.31 -0.01,-0.65 -0.03,-1.03 0,-0.35 0,-0.67 0,-0.96 0,-0.27 0,-0.42 0,-0.46 -0.02,0.07 -0.08,0.25 -0.17,0.56 -0.09,0.31 -0.19,0.69 -0.3,1.13 -0.11,0.44 -0.22,0.86 -0.33,1.26 l -5.51,18.69 h -1.66 l -5.31,-18.16 c -0.22,-0.75 -0.39,-1.35 -0.5,-1.79 -0.11,-0.44 -0.19,-0.77 -0.23,-1 -0.04,-0.22 -0.09,-0.42 -0.13,-0.6 l -0.2,3.32 -1.49,18.2 h -1.86 z"
   id="path28" />
	<path
   class="st0"
   d="m 314.93,54.17 v 0.03 c -0.4,-0.35 -0.71,-0.74 -0.93,-1.16 -0.22,-0.42 -0.38,-0.96 -0.46,-1.63 -0.66,0.89 -1.46,1.55 -2.39,1.99 -0.93,0.46 -1.95,0.7 -3.05,0.7 -0.97,0 -1.79,-0.18 -2.46,-0.53 -0.67,-0.35 -1.16,-0.84 -1.49,-1.46 -0.22,-0.31 -0.39,-0.7 -0.5,-1.16 -0.13,-0.44 -0.2,-0.94 -0.2,-1.49 V 36.84 l 1.79,-0.4 v 12.48 c 0,0.71 0.09,1.29 0.27,1.76 0.18,0.44 0.44,0.81 0.8,1.1 0.27,0.22 0.6,0.4 1,0.53 0.4,0.13 0.83,0.2 1.29,0.2 0.88,0 1.75,-0.27 2.59,-0.8 0.84,-0.53 1.55,-1.28 2.13,-2.26 V 36.8 l 1.86,-0.33 v 12.95 c 0,1 0.07,1.76 0.2,2.29 0.13,0.51 0.35,0.93 0.66,1.26 l -1.23,1.23 z"
   id="path29" />
	<path
   class="st0"
   d="m 325.15,54 v 0.03 c -1.08,0 -2.14,-0.14 -3.15,-0.43 -1.02,-0.29 -1.93,-0.69 -2.72,-1.2 l 0.73,-1.36 c 0.77,0.49 1.6,0.86 2.49,1.13 0.88,0.27 1.81,0.4 2.79,0.4 1.24,0 2.21,-0.31 2.92,-0.93 0.69,-0.62 1.03,-1.45 1.03,-2.49 0,-0.8 -0.24,-1.46 -0.73,-1.99 -0.49,-0.53 -1.28,-0.92 -2.39,-1.16 l -2.13,-0.4 c -1.33,-0.27 -2.35,-0.77 -3.05,-1.53 -0.71,-0.75 -1.06,-1.73 -1.06,-2.92 0.02,-1.44 0.53,-2.6 1.53,-3.49 1,-0.88 2.37,-1.34 4.12,-1.36 0.91,0 1.78,0.12 2.62,0.37 0.84,0.22 1.59,0.53 2.26,0.93 l -0.73,1.36 c -0.62,-0.35 -1.27,-0.64 -1.96,-0.86 -0.69,-0.22 -1.41,-0.33 -2.16,-0.33 -1.2,0.02 -2.1,0.32 -2.72,0.9 -0.62,0.58 -0.93,1.33 -0.93,2.26 0,0.8 0.23,1.44 0.7,1.93 0.46,0.46 1.17,0.8 2.13,1 l 2.19,0.46 c 1.53,0.31 2.64,0.85 3.35,1.63 0.69,0.78 1.03,1.74 1.03,2.89 -0.02,1.59 -0.56,2.86 -1.63,3.79 -1.06,0.95 -2.51,1.44 -4.35,1.46 z"
   id="path30" />
	<path
   class="st0"
   d="m 341.95,54.04 c -1.55,0 -2.86,-0.38 -3.92,-1.13 -1.06,-0.75 -1.87,-1.79 -2.42,-3.12 -0.55,-1.33 -0.83,-2.89 -0.83,-4.68 0,-1.44 0.17,-2.67 0.5,-3.69 0.33,-1.04 0.83,-1.96 1.49,-2.76 0.58,-0.69 1.26,-1.23 2.06,-1.63 0.8,-0.4 1.7,-0.6 2.72,-0.6 0.91,0 1.71,0.16 2.42,0.46 0.71,0.31 1.32,0.72 1.83,1.23 0.44,0.44 0.81,0.95 1.1,1.53 0.29,0.58 0.5,1.28 0.63,2.13 0.13,0.84 0.2,1.88 0.2,3.12 v 0.4 h -10.89 v 0.86 c 0.02,0.91 0.13,1.72 0.33,2.42 0.2,0.71 0.45,1.31 0.76,1.79 0.46,0.69 1.07,1.21 1.83,1.56 0.75,0.35 1.6,0.53 2.56,0.53 0.84,0 1.62,-0.12 2.32,-0.37 0.71,-0.27 1.35,-0.66 1.93,-1.2 l 0.73,1.2 c -0.71,0.62 -1.52,1.08 -2.42,1.39 -0.89,0.33 -1.87,0.5 -2.96,0.5 z m -5.18,-10.3 v 0.03 h 8.9 c 0,-1.02 -0.08,-1.86 -0.23,-2.52 -0.16,-0.69 -0.37,-1.25 -0.63,-1.69 -0.33,-0.53 -0.79,-0.96 -1.36,-1.29 -0.58,-0.31 -1.26,-0.46 -2.06,-0.46 -1.28,0 -2.35,0.51 -3.19,1.53 -0.82,1 -1.28,2.5 -1.39,4.52 z"
   id="path31" />
	<path
   class="st0"
   d="m 363.7,54.17 v 0.03 c -0.4,-0.35 -0.71,-0.74 -0.93,-1.16 -0.22,-0.42 -0.38,-0.96 -0.46,-1.63 -0.66,0.89 -1.46,1.55 -2.39,1.99 -0.93,0.46 -1.95,0.7 -3.05,0.7 -0.97,0 -1.79,-0.18 -2.46,-0.53 -0.67,-0.35 -1.16,-0.84 -1.49,-1.46 -0.22,-0.31 -0.39,-0.7 -0.5,-1.16 -0.13,-0.44 -0.2,-0.94 -0.2,-1.49 V 36.84 l 1.79,-0.4 v 12.48 c 0,0.71 0.09,1.29 0.27,1.76 0.18,0.44 0.44,0.81 0.8,1.1 0.27,0.22 0.6,0.4 1,0.53 0.4,0.13 0.83,0.2 1.29,0.2 0.88,0 1.75,-0.27 2.59,-0.8 0.84,-0.53 1.55,-1.28 2.13,-2.26 V 36.8 l 1.86,-0.33 v 12.95 c 0,1 0.07,1.76 0.2,2.29 0.13,0.51 0.35,0.93 0.66,1.26 l -1.23,1.23 z"
   id="path32" />
	<path
   class="st0"
   d="m 369.88,53.64 v 0.03 -13.41 c -0.02,-1.11 -0.1,-1.93 -0.23,-2.46 -0.13,-0.53 -0.22,-0.84 -0.27,-0.93 l 1.79,-0.4 c 0.04,0.09 0.13,0.37 0.27,0.83 0.13,0.49 0.21,1.07 0.23,1.76 0.58,-0.71 1.32,-1.33 2.22,-1.86 0.88,-0.53 1.8,-0.81 2.76,-0.83 1.02,0 1.87,0.27 2.56,0.8 0.71,0.53 1.2,1.24 1.46,2.13 0.73,-0.88 1.56,-1.59 2.49,-2.13 0.93,-0.54 1.86,-0.8 2.79,-0.8 1.31,0.02 2.32,0.44 3.05,1.26 0.75,0.8 1.13,1.88 1.13,3.25 V 53.63 H 388.2 V 41.02 c 0,-0.93 -0.22,-1.66 -0.66,-2.19 -0.44,-0.53 -1.14,-0.8 -2.09,-0.8 -0.8,0 -1.58,0.24 -2.36,0.73 -0.75,0.51 -1.53,1.23 -2.32,2.16 v 12.75 h -1.86 V 41.29 c 0,-0.53 -0.04,-1 -0.13,-1.39 -0.11,-0.4 -0.28,-0.73 -0.5,-1 -0.22,-0.27 -0.51,-0.46 -0.86,-0.6 -0.35,-0.13 -0.79,-0.2 -1.29,-0.2 -0.71,0 -1.44,0.21 -2.19,0.63 -0.75,0.4 -1.53,1.04 -2.32,1.93 v 13.02 h -1.76 z"
   id="path33" />
</g><g
         class="st1"
         id="g51">
	<path
   class="st0"
   d="m 77.62,88.04 c -0.55,-0.18 -1.01,-0.47 -1.36,-0.9 -0.35,-0.4 -0.6,-0.91 -0.73,-1.53 -0.71,0.8 -1.46,1.37 -2.26,1.73 -0.8,0.38 -1.68,0.56 -2.66,0.56 -1.37,-0.02 -2.46,-0.25 -3.25,-0.7 -0.8,-0.46 -1.35,-1.05 -1.66,-1.76 -0.31,-0.71 -0.46,-1.45 -0.46,-2.22 0.02,-1.93 0.8,-3.38 2.32,-4.35 1.53,-0.97 3.64,-1.46 6.34,-1.46 0.35,0 0.66,0 0.93,0 0.29,0.02 0.48,0.03 0.56,0.03 v -1.56 c 0,-0.8 -0.04,-1.44 -0.13,-1.93 -0.09,-0.49 -0.27,-0.87 -0.53,-1.16 -0.29,-0.31 -0.63,-0.55 -1.03,-0.73 -0.4,-0.18 -0.89,-0.27 -1.46,-0.27 -1.02,0.02 -2.01,0.23 -2.99,0.63 -0.97,0.4 -1.79,0.89 -2.46,1.46 l -0.93,-1.33 c 1.02,-0.71 2.08,-1.26 3.19,-1.66 1.11,-0.4 2.26,-0.6 3.45,-0.6 1.02,0 1.87,0.18 2.56,0.53 0.71,0.36 1.23,0.88 1.56,1.56 0.31,0.62 0.5,1.26 0.56,1.93 0.09,0.64 0.11,1.33 0.07,2.06 l -0.13,6.11 c -0.04,1.33 0.02,2.31 0.2,2.96 0.2,0.64 0.62,1.12 1.26,1.43 l -0.93,1.33 z m -6.67,-1.43 v 0.03 c 0.93,0 1.77,-0.22 2.52,-0.66 0.75,-0.44 1.37,-1.06 1.86,-1.86 0,-0.09 0,-0.24 0,-0.46 0,-0.22 0,-0.44 0,-0.66 0,-0.22 0,-0.38 0,-0.46 0,-0.24 0,-0.61 0,-1.1 0,-0.49 0,-0.97 0,-1.46 0,-0.49 0,-0.84 0,-1.06 -0.22,-0.02 -0.46,-0.03 -0.73,-0.03 -0.27,0 -0.53,0 -0.8,0 -2.21,0 -3.85,0.36 -4.91,1.06 -1.06,0.71 -1.59,1.79 -1.59,3.25 0,1.04 0.29,1.88 0.86,2.52 0.58,0.62 1.52,0.94 2.82,0.96 z"
   id="path34" />
	<path
   class="st0"
   d="M 83.33,87.67 V 87.7 74.32 c 0,-0.93 -0.07,-1.66 -0.2,-2.19 C 83,71.6 82.86,71.2 82.73,70.93 l 1.79,-0.46 c 0.04,0.09 0.13,0.38 0.27,0.86 0.13,0.49 0.21,1.11 0.23,1.86 0.84,-0.88 1.73,-1.56 2.66,-2.03 0.91,-0.46 1.85,-0.7 2.82,-0.7 0.89,0 1.66,0.18 2.32,0.53 0.66,0.36 1.16,0.84 1.49,1.46 0.2,0.31 0.37,0.66 0.5,1.06 0.11,0.4 0.17,0.82 0.17,1.26 V 87.65 H 93.12 V 75.72 c 0,-0.77 -0.07,-1.37 -0.2,-1.79 -0.13,-0.42 -0.33,-0.79 -0.6,-1.1 -0.22,-0.24 -0.53,-0.43 -0.93,-0.56 -0.4,-0.15 -0.84,-0.23 -1.33,-0.23 -0.8,0 -1.65,0.23 -2.56,0.7 -0.93,0.49 -1.75,1.13 -2.46,1.93 v 13.02 h -1.79 0.08 z"
   id="path35" />
	<path
   class="st0"
   d="m 106.48,88 c -1.15,0 -2.16,-0.22 -3.02,-0.66 -0.86,-0.42 -1.58,-1.03 -2.16,-1.83 -0.51,-0.73 -0.9,-1.62 -1.16,-2.66 -0.27,-1.06 -0.4,-2.22 -0.4,-3.49 0,-1.68 0.24,-3.14 0.73,-4.38 0.49,-1.24 1.22,-2.26 2.19,-3.05 0.58,-0.49 1.17,-0.84 1.79,-1.06 0.62,-0.22 1.27,-0.33 1.96,-0.33 1.02,0 1.93,0.19 2.72,0.56 0.8,0.38 1.45,0.91 1.96,1.59 0,-0.13 0,-0.42 0,-0.86 0,-0.44 0,-0.91 0,-1.39 v -7.57 l 1.86,0.33 v 19.39 c 0,1.35 0.04,2.42 0.13,3.22 0.09,0.8 0.22,1.44 0.4,1.93 h -1.86 c -0.07,-0.13 -0.14,-0.4 -0.23,-0.8 -0.09,-0.4 -0.16,-0.81 -0.2,-1.23 -0.58,0.78 -1.25,1.34 -2.03,1.69 -0.8,0.35 -1.68,0.53 -2.66,0.53 z m 0.1,-1.69 v 0.03 c 1.15,-0.02 2.1,-0.28 2.86,-0.76 0.75,-0.49 1.31,-1.08 1.66,-1.79 v -9.83 c -0.4,-0.57 -0.95,-1.04 -1.66,-1.39 -0.71,-0.35 -1.6,-0.53 -2.69,-0.53 -0.71,0 -1.37,0.16 -1.99,0.46 -0.62,0.31 -1.14,0.78 -1.56,1.39 -0.46,0.64 -0.81,1.38 -1.03,2.22 -0.22,0.84 -0.33,1.9 -0.33,3.19 0,1.02 0.07,1.95 0.2,2.79 0.13,0.86 0.35,1.56 0.66,2.09 0.42,0.73 0.95,1.27 1.59,1.63 0.64,0.36 1.41,0.53 2.29,0.53 z"
   id="path36" />
	<path
   class="st0"
   d="M 126.73,87.57 V 64.26 h 3.98 c 1.26,0 2.28,0.02 3.05,0.07 0.8,0.07 1.44,0.17 1.93,0.3 0.46,0.13 0.87,0.29 1.23,0.46 1,0.46 1.78,1.13 2.36,1.99 0.58,0.86 0.86,1.85 0.86,2.95 0,1.24 -0.38,2.31 -1.13,3.22 -0.77,0.91 -1.92,1.56 -3.42,1.96 0.77,0.13 1.43,0.31 1.96,0.53 0.55,0.22 1.03,0.49 1.43,0.8 0.75,0.58 1.31,1.29 1.66,2.13 0.35,0.84 0.53,1.73 0.53,2.66 0,1.29 -0.32,2.44 -0.96,3.45 -0.64,1.02 -1.54,1.76 -2.69,2.22 -0.4,0.16 -0.81,0.29 -1.23,0.4 -0.42,0.09 -0.96,0.16 -1.63,0.2 -0.66,0.04 -1.56,0.07 -2.69,0.07 h -5.21 z m 1.96,-12.95 h 4.28 c 0.8,0 1.5,-0.09 2.13,-0.27 0.62,-0.15 1.12,-0.38 1.49,-0.66 0.38,-0.29 0.71,-0.72 1,-1.29 0.31,-0.57 0.46,-1.26 0.46,-2.06 0,-0.91 -0.2,-1.67 -0.6,-2.29 -0.4,-0.62 -0.97,-1.11 -1.73,-1.46 -0.4,-0.22 -0.86,-0.38 -1.39,-0.46 C 133.8,66.04 133.17,66 132.44,66 h -3.79 v 8.63 h 0.04 z m -0.03,11.52 v 0.03 h 4.55 c 0.89,0 1.62,-0.07 2.19,-0.2 0.58,-0.11 1.13,-0.32 1.66,-0.63 0.75,-0.44 1.29,-1.02 1.63,-1.73 0.35,-0.71 0.53,-1.52 0.53,-2.42 0,-0.97 -0.22,-1.84 -0.66,-2.59 -0.44,-0.75 -1.04,-1.3 -1.79,-1.66 -0.62,-0.27 -1.22,-0.45 -1.79,-0.56 -0.58,-0.09 -1.25,-0.13 -2.03,-0.13 h -4.28 v 9.83 0.06 z"
   id="path37" />
	<path
   class="st0"
   d="m 151.83,88.04 c -1.31,-0.02 -2.41,-0.3 -3.32,-0.83 -0.91,-0.53 -1.63,-1.21 -2.16,-2.03 -0.51,-0.75 -0.9,-1.64 -1.16,-2.66 -0.27,-1.02 -0.4,-2.17 -0.4,-3.45 0,-1.33 0.15,-2.52 0.46,-3.59 0.31,-1.06 0.75,-1.97 1.33,-2.72 0.53,-0.71 1.24,-1.29 2.13,-1.76 0.89,-0.44 1.93,-0.67 3.12,-0.7 1.39,0.02 2.55,0.32 3.45,0.9 0.91,0.58 1.6,1.25 2.09,2.03 0.49,0.75 0.86,1.64 1.13,2.66 0.27,1.02 0.4,2.19 0.4,3.52 0,1.15 -0.11,2.18 -0.33,3.09 -0.22,0.93 -0.53,1.75 -0.93,2.46 -0.53,0.93 -1.28,1.68 -2.26,2.26 -0.95,0.58 -2.09,0.86 -3.42,0.86 z m 0.13,-1.46 v 0.03 c 1.02,0 1.86,-0.24 2.52,-0.73 0.66,-0.49 1.15,-1.11 1.46,-1.86 0.31,-0.66 0.53,-1.33 0.66,-1.99 0.13,-0.66 0.2,-1.48 0.2,-2.46 0,-1.2 -0.09,-2.23 -0.27,-3.12 -0.18,-0.88 -0.42,-1.64 -0.73,-2.26 -0.35,-0.69 -0.89,-1.24 -1.59,-1.66 -0.71,-0.42 -1.53,-0.63 -2.46,-0.63 -0.93,0.02 -1.73,0.23 -2.39,0.63 -0.66,0.4 -1.15,0.89 -1.46,1.46 -0.31,0.58 -0.55,1.27 -0.73,2.09 -0.18,0.82 -0.27,1.76 -0.27,2.82 0,1.22 0.11,2.31 0.33,3.29 0.2,0.97 0.48,1.75 0.83,2.32 0.33,0.53 0.83,1 1.49,1.39 0.66,0.39 1.46,0.61 2.39,0.63 v 0.05 z"
   id="path38" />
	<path
   class="st0"
   d="m 167.27,88.27 v 0.03 c -0.46,0 -0.87,-0.07 -1.23,-0.2 -0.35,-0.11 -0.66,-0.25 -0.93,-0.43 -0.44,-0.27 -0.77,-0.66 -1,-1.2 -0.22,-0.53 -0.33,-1.18 -0.33,-1.96 V 72.27 h -2.19 v -1.39 h 2.19 c 0,-0.6 0.02,-1.21 0.07,-1.83 0.04,-0.62 0.09,-1.17 0.13,-1.66 0.04,-0.46 0.09,-0.76 0.13,-0.9 l 1.96,-0.4 c -0.04,0.13 -0.09,0.44 -0.13,0.93 -0.04,0.46 -0.09,1.03 -0.13,1.69 -0.04,0.66 -0.07,1.37 -0.07,2.12 h 4.18 l -0.6,1.39 h -3.65 v 11.75 c 0,0.93 0.18,1.63 0.53,2.09 0.35,0.46 0.95,0.7 1.79,0.7 0.4,0 0.73,-0.03 1,-0.1 0.29,-0.07 0.54,-0.15 0.76,-0.27 l 0.27,1.2 c -0.35,0.18 -0.75,0.31 -1.2,0.4 -0.44,0.09 -0.93,0.13 -1.46,0.13 z"
   id="path39" />
	<path
   class="st0"
   d="m 184.8,88.04 c -0.55,-0.18 -1.01,-0.47 -1.36,-0.9 -0.35,-0.4 -0.6,-0.91 -0.73,-1.53 -0.71,0.8 -1.46,1.37 -2.26,1.73 -0.8,0.38 -1.68,0.56 -2.66,0.56 -1.37,-0.02 -2.46,-0.25 -3.25,-0.7 -0.8,-0.46 -1.35,-1.05 -1.66,-1.76 -0.31,-0.71 -0.46,-1.45 -0.46,-2.22 0.02,-1.93 0.8,-3.38 2.32,-4.35 1.53,-0.97 3.64,-1.46 6.34,-1.46 0.35,0 0.66,0 0.93,0 0.29,0.02 0.48,0.03 0.56,0.03 v -1.56 c 0,-0.8 -0.04,-1.44 -0.13,-1.93 -0.09,-0.49 -0.27,-0.87 -0.53,-1.16 -0.29,-0.31 -0.63,-0.55 -1.03,-0.73 -0.4,-0.18 -0.89,-0.27 -1.46,-0.27 -1.02,0.02 -2.01,0.23 -2.99,0.63 -0.97,0.4 -1.79,0.89 -2.46,1.46 l -0.93,-1.33 c 1.02,-0.71 2.08,-1.26 3.19,-1.66 1.11,-0.4 2.26,-0.6 3.45,-0.6 1.02,0 1.87,0.18 2.56,0.53 0.71,0.36 1.23,0.88 1.56,1.56 0.31,0.62 0.5,1.26 0.56,1.93 0.09,0.64 0.11,1.33 0.07,2.06 l -0.13,6.11 c -0.04,1.33 0.02,2.31 0.2,2.96 0.2,0.64 0.62,1.12 1.26,1.43 l -0.93,1.33 z m -6.67,-1.43 v 0.03 c 0.93,0 1.77,-0.22 2.52,-0.66 0.75,-0.44 1.37,-1.06 1.86,-1.86 0,-0.09 0,-0.24 0,-0.46 0,-0.22 0,-0.44 0,-0.66 0,-0.22 0,-0.38 0,-0.46 0,-0.24 0,-0.61 0,-1.1 0,-0.49 0,-0.97 0,-1.46 0,-0.49 0,-0.84 0,-1.06 -0.22,-0.02 -0.46,-0.03 -0.73,-0.03 -0.27,0 -0.53,0 -0.8,0 -2.21,0 -3.85,0.36 -4.91,1.06 -1.06,0.71 -1.59,1.79 -1.59,3.25 0,1.04 0.29,1.88 0.86,2.52 0.58,0.62 1.52,0.94 2.82,0.96 z"
   id="path40" />
	<path
   class="st0"
   d="M 190.51,87.67 V 87.7 74.32 c 0,-0.93 -0.07,-1.66 -0.2,-2.19 -0.13,-0.53 -0.27,-0.93 -0.4,-1.2 l 1.79,-0.46 c 0.04,0.09 0.13,0.38 0.27,0.86 0.13,0.49 0.21,1.11 0.23,1.86 0.84,-0.88 1.73,-1.56 2.66,-2.03 0.91,-0.46 1.85,-0.7 2.82,-0.7 0.89,0 1.66,0.18 2.32,0.53 0.66,0.36 1.16,0.84 1.49,1.46 0.2,0.31 0.37,0.66 0.5,1.06 0.11,0.4 0.17,0.82 0.17,1.26 V 87.65 H 200.3 V 75.72 c 0,-0.77 -0.07,-1.37 -0.2,-1.79 -0.13,-0.42 -0.33,-0.79 -0.6,-1.1 -0.22,-0.24 -0.53,-0.43 -0.93,-0.56 -0.4,-0.15 -0.84,-0.23 -1.33,-0.23 -0.8,0 -1.65,0.23 -2.56,0.7 -0.93,0.49 -1.75,1.13 -2.46,1.93 v 13.02 h -1.79 0.08 z"
   id="path41" />
	<path
   class="st0"
   d="m 208.97,66.89 c -0.42,0 -0.77,-0.14 -1.06,-0.43 -0.29,-0.27 -0.43,-0.61 -0.43,-1.03 0,-0.42 0.14,-0.76 0.43,-1.03 0.29,-0.29 0.64,-0.43 1.06,-0.43 0.4,0 0.74,0.13 1.03,0.4 0.29,0.27 0.43,0.62 0.43,1.06 0,0.42 -0.14,0.76 -0.43,1.03 -0.29,0.28 -0.63,0.43 -1.03,0.43 z m -0.99,20.72 V 87.64 70.7 l 1.93,-0.3 v 17.27 h -1.93 z"
   id="path42" />
	<path
   class="st0"
   d="m 221.69,87.8 v 0.03 c -1.17,0 -2.2,-0.22 -3.09,-0.66 -0.89,-0.44 -1.62,-1.08 -2.19,-1.93 -0.51,-0.75 -0.9,-1.62 -1.16,-2.59 -0.27,-0.97 -0.4,-2.1 -0.4,-3.39 0,-1.81 0.22,-3.28 0.66,-4.38 0.44,-1.11 1.02,-2.01 1.73,-2.72 0.66,-0.64 1.36,-1.12 2.09,-1.43 0.73,-0.31 1.53,-0.46 2.39,-0.46 1.02,0 1.88,0.17 2.59,0.5 0.71,0.33 1.33,0.76 1.86,1.29 l -1,1.29 c -0.58,-0.51 -1.13,-0.87 -1.66,-1.1 -0.53,-0.22 -1.15,-0.33 -1.86,-0.33 -0.71,0 -1.37,0.16 -1.99,0.46 -0.62,0.31 -1.13,0.76 -1.53,1.36 -0.44,0.62 -0.78,1.42 -1,2.39 -0.24,0.97 -0.37,2.16 -0.37,3.55 0,1.33 0.18,2.5 0.53,3.52 0.35,1.02 0.88,1.82 1.59,2.39 0.73,0.58 1.65,0.86 2.76,0.86 0.73,0 1.43,-0.15 2.09,-0.46 0.66,-0.31 1.26,-0.77 1.79,-1.39 l 1.03,1.2 c -0.71,0.75 -1.46,1.31 -2.26,1.66 -0.8,0.35 -1.66,0.54 -2.63,0.54 z"
   id="path43" />
	<path
   class="st0"
   d="m 241.85,88.04 c -0.55,-0.18 -1.01,-0.47 -1.36,-0.9 -0.35,-0.4 -0.6,-0.91 -0.73,-1.53 -0.71,0.8 -1.46,1.37 -2.26,1.73 -0.8,0.38 -1.68,0.56 -2.66,0.56 -1.37,-0.02 -2.46,-0.25 -3.25,-0.7 -0.8,-0.46 -1.35,-1.05 -1.66,-1.76 -0.31,-0.71 -0.46,-1.45 -0.46,-2.22 0.02,-1.93 0.8,-3.38 2.32,-4.35 1.53,-0.97 3.64,-1.46 6.34,-1.46 0.35,0 0.66,0 0.93,0 0.29,0.02 0.48,0.03 0.56,0.03 v -1.56 c 0,-0.8 -0.04,-1.44 -0.13,-1.93 -0.09,-0.49 -0.27,-0.87 -0.53,-1.16 -0.29,-0.31 -0.63,-0.55 -1.03,-0.73 -0.4,-0.18 -0.89,-0.27 -1.46,-0.27 -1.02,0.02 -2.01,0.23 -2.99,0.63 -0.97,0.4 -1.79,0.89 -2.46,1.46 l -0.93,-1.33 c 1.02,-0.71 2.08,-1.26 3.19,-1.66 1.11,-0.4 2.26,-0.6 3.45,-0.6 1.02,0 1.87,0.18 2.56,0.53 0.71,0.36 1.23,0.88 1.56,1.56 0.31,0.62 0.5,1.26 0.56,1.93 0.09,0.64 0.11,1.33 0.07,2.06 l -0.13,6.11 c -0.04,1.33 0.02,2.31 0.2,2.96 0.2,0.64 0.62,1.12 1.26,1.43 l -0.93,1.33 z m -6.68,-1.43 v 0.03 c 0.93,0 1.77,-0.22 2.52,-0.66 0.75,-0.44 1.37,-1.06 1.86,-1.86 0,-0.09 0,-0.24 0,-0.46 0,-0.22 0,-0.44 0,-0.66 0,-0.22 0,-0.38 0,-0.46 0,-0.24 0,-0.61 0,-1.1 0,-0.49 0,-0.97 0,-1.46 0,-0.49 0,-0.84 0,-1.06 -0.22,-0.02 -0.46,-0.03 -0.73,-0.03 -0.27,0 -0.53,0 -0.8,0 -2.21,0 -3.85,0.36 -4.91,1.06 -1.06,0.71 -1.59,1.79 -1.59,3.25 0,1.04 0.29,1.88 0.86,2.52 0.58,0.62 1.52,0.94 2.82,0.96 z"
   id="path44" />
	<path
   class="st0"
   d="m 249.91,87.87 v 0.03 c -0.82,0 -1.43,-0.23 -1.83,-0.7 -0.4,-0.44 -0.6,-1.16 -0.6,-2.16 V 66.65 c 0,-1.06 -0.06,-1.88 -0.17,-2.46 -0.09,-0.58 -0.16,-0.91 -0.2,-1 l 1.83,-0.33 c 0.04,0.09 0.12,0.45 0.23,1.1 0.13,0.62 0.2,1.55 0.2,2.79 v 17.9 c 0,0.71 0.09,1.2 0.27,1.46 0.15,0.27 0.43,0.4 0.83,0.4 0.09,0 0.18,-0.01 0.27,-0.03 0.09,-0.04 0.15,-0.07 0.2,-0.07 l 0.4,1.2 c -0.27,0.13 -0.5,0.22 -0.7,0.27 -0.22,0.04 -0.46,0.07 -0.73,0.07 z"
   id="path45" />
	<path
   class="st0"
   d="m 271.83,87.77 v 0.03 c -1.46,0 -2.79,-0.25 -3.98,-0.76 -1.2,-0.51 -2.24,-1.29 -3.12,-2.36 -0.84,-1.02 -1.48,-2.26 -1.93,-3.72 -0.44,-1.46 -0.66,-3.14 -0.66,-5.05 0,-2.01 0.24,-3.77 0.73,-5.28 0.49,-1.53 1.24,-2.84 2.26,-3.95 0.8,-0.88 1.7,-1.56 2.72,-2.03 1.02,-0.46 2.17,-0.7 3.45,-0.7 1.2,0 2.3,0.18 3.32,0.53 1.02,0.35 1.95,0.89 2.79,1.59 l -0.86,1.23 c -0.89,-0.62 -1.74,-1.06 -2.56,-1.33 -0.82,-0.27 -1.69,-0.4 -2.62,-0.4 -1.33,0 -2.5,0.33 -3.52,1 -1.02,0.66 -1.79,1.62 -2.32,2.86 -0.4,0.97 -0.71,2.02 -0.93,3.12 -0.22,1.11 -0.33,2.29 -0.33,3.55 0,1.59 0.15,3.03 0.46,4.32 0.31,1.29 0.73,2.32 1.26,3.12 0.66,0.93 1.53,1.63 2.59,2.09 1.06,0.49 2.19,0.73 3.39,0.73 0.8,0 1.55,-0.09 2.26,-0.27 0.73,-0.18 1.38,-0.44 1.96,-0.8 v -7.97 h -5.31 l -0.4,-1.59 h 7.57 v 10.59 c -0.84,0.53 -1.79,0.94 -2.86,1.23 -1.08,0.29 -2.2,0.43 -3.35,0.43 v -0.21 z"
   id="path46" />
	<path
   class="st0"
   d="m 294.87,88.04 c -0.55,-0.18 -1.01,-0.47 -1.36,-0.9 -0.35,-0.4 -0.6,-0.91 -0.73,-1.53 -0.71,0.8 -1.46,1.37 -2.26,1.73 -0.8,0.38 -1.68,0.56 -2.66,0.56 -1.37,-0.02 -2.46,-0.25 -3.25,-0.7 -0.8,-0.46 -1.35,-1.05 -1.66,-1.76 -0.31,-0.71 -0.46,-1.45 -0.46,-2.22 0.02,-1.93 0.8,-3.38 2.32,-4.35 1.53,-0.97 3.64,-1.46 6.34,-1.46 0.35,0 0.66,0 0.93,0 0.29,0.02 0.48,0.03 0.56,0.03 v -1.56 c 0,-0.8 -0.04,-1.44 -0.13,-1.93 -0.09,-0.49 -0.27,-0.87 -0.53,-1.16 -0.29,-0.31 -0.63,-0.55 -1.03,-0.73 -0.4,-0.18 -0.89,-0.27 -1.46,-0.27 -1.02,0.02 -2.01,0.23 -2.99,0.63 -0.97,0.4 -1.79,0.89 -2.46,1.46 l -0.93,-1.33 c 1.02,-0.71 2.08,-1.26 3.19,-1.66 1.11,-0.4 2.26,-0.6 3.45,-0.6 1.02,0 1.87,0.18 2.56,0.53 0.71,0.36 1.23,0.88 1.56,1.56 0.31,0.62 0.5,1.26 0.56,1.93 0.09,0.64 0.11,1.33 0.07,2.06 l -0.13,6.11 c -0.04,1.33 0.02,2.31 0.2,2.96 0.2,0.64 0.62,1.12 1.26,1.43 l -0.93,1.33 z m -6.67,-1.43 v 0.03 c 0.93,0 1.77,-0.22 2.52,-0.66 0.75,-0.44 1.37,-1.06 1.86,-1.86 0,-0.09 0,-0.24 0,-0.46 0,-0.22 0,-0.44 0,-0.66 0,-0.22 0,-0.38 0,-0.46 0,-0.24 0,-0.61 0,-1.1 0,-0.49 0,-0.97 0,-1.46 0,-0.49 0,-0.84 0,-1.06 -0.22,-0.02 -0.46,-0.03 -0.73,-0.03 -0.27,0 -0.53,0 -0.8,0 -2.21,0 -3.85,0.36 -4.91,1.06 -1.06,0.71 -1.59,1.79 -1.59,3.25 0,1.04 0.29,1.88 0.86,2.52 0.58,0.62 1.52,0.94 2.82,0.96 z"
   id="path47" />
	<path
   class="st0"
   d="m 300.48,87.61 v 0.03 -13.35 c 0,-1.11 -0.07,-1.93 -0.2,-2.46 -0.13,-0.53 -0.23,-0.84 -0.3,-0.93 l 1.86,-0.46 c 0.07,0.09 0.17,0.38 0.3,0.86 0.13,0.49 0.2,1.16 0.2,2.03 0.22,-0.35 0.49,-0.7 0.8,-1.03 0.31,-0.31 0.64,-0.6 1,-0.86 0.49,-0.38 0.97,-0.65 1.46,-0.83 0.49,-0.18 0.96,-0.27 1.43,-0.27 0.22,0 0.42,0.02 0.6,0.07 0.18,0.04 0.29,0.08 0.33,0.1 l -0.73,1.99 c -0.09,-0.04 -0.2,-0.09 -0.33,-0.13 -0.13,-0.02 -0.27,-0.03 -0.4,-0.03 -0.53,0 -1.04,0.11 -1.53,0.33 -0.49,0.22 -0.95,0.55 -1.39,1 -0.44,0.42 -0.75,0.83 -0.93,1.23 -0.18,0.4 -0.27,0.93 -0.27,1.59 v 11.19 h -1.86 z"
   id="path48" />
	<path
   class="st0"
   d="m 316.42,88 c -1.15,0 -2.16,-0.22 -3.02,-0.66 -0.86,-0.42 -1.58,-1.03 -2.16,-1.83 -0.51,-0.73 -0.9,-1.62 -1.16,-2.66 -0.27,-1.06 -0.4,-2.22 -0.4,-3.49 0,-1.68 0.24,-3.14 0.73,-4.38 0.49,-1.24 1.22,-2.26 2.19,-3.05 0.58,-0.49 1.17,-0.84 1.79,-1.06 0.62,-0.22 1.27,-0.33 1.96,-0.33 1.02,0 1.93,0.19 2.72,0.56 0.8,0.38 1.45,0.91 1.96,1.59 0,-0.13 0,-0.42 0,-0.86 0,-0.44 0,-0.91 0,-1.39 v -7.57 l 1.86,0.33 v 19.39 c 0,1.35 0.04,2.42 0.13,3.22 0.09,0.8 0.22,1.44 0.4,1.93 h -1.86 c -0.07,-0.13 -0.14,-0.4 -0.23,-0.8 -0.09,-0.4 -0.16,-0.81 -0.2,-1.23 -0.58,0.78 -1.25,1.34 -2.03,1.69 -0.8,0.35 -1.68,0.53 -2.66,0.53 z m 0.1,-1.69 v 0.03 c 1.15,-0.02 2.1,-0.28 2.86,-0.76 0.75,-0.49 1.31,-1.08 1.66,-1.79 v -9.83 c -0.4,-0.57 -0.95,-1.04 -1.66,-1.39 -0.71,-0.35 -1.61,-0.53 -2.69,-0.53 -0.71,0 -1.37,0.16 -1.99,0.46 -0.62,0.31 -1.14,0.78 -1.56,1.39 -0.46,0.64 -0.81,1.38 -1.03,2.22 -0.22,0.84 -0.33,1.9 -0.33,3.19 0,1.02 0.07,1.95 0.2,2.79 0.13,0.86 0.35,1.56 0.66,2.09 0.42,0.73 0.95,1.27 1.59,1.63 0.64,0.36 1.41,0.53 2.29,0.53 z"
   id="path49" />
	<path
   class="st0"
   d="m 335.08,88.04 c -1.55,0 -2.86,-0.38 -3.92,-1.13 -1.06,-0.75 -1.87,-1.79 -2.42,-3.12 -0.55,-1.33 -0.83,-2.89 -0.83,-4.68 0,-1.44 0.17,-2.67 0.5,-3.69 0.33,-1.04 0.83,-1.96 1.49,-2.76 0.58,-0.69 1.26,-1.23 2.06,-1.63 0.8,-0.4 1.7,-0.6 2.72,-0.6 0.91,0 1.71,0.16 2.42,0.46 0.71,0.31 1.32,0.72 1.83,1.23 0.44,0.44 0.81,0.95 1.1,1.53 0.29,0.58 0.5,1.29 0.63,2.13 0.13,0.84 0.2,1.88 0.2,3.12 v 0.4 h -10.89 v 0.86 c 0.02,0.91 0.13,1.72 0.33,2.42 0.2,0.71 0.45,1.31 0.76,1.79 0.46,0.69 1.07,1.21 1.83,1.56 0.75,0.36 1.6,0.53 2.56,0.53 0.84,0 1.62,-0.12 2.32,-0.37 0.71,-0.27 1.35,-0.66 1.93,-1.2 l 0.73,1.2 c -0.71,0.62 -1.52,1.09 -2.42,1.39 -0.89,0.33 -1.87,0.5 -2.96,0.5 z m -5.18,-10.3 v 0.03 h 8.9 c 0,-1.02 -0.08,-1.86 -0.23,-2.52 -0.16,-0.69 -0.37,-1.25 -0.63,-1.69 -0.33,-0.53 -0.79,-0.96 -1.36,-1.29 -0.58,-0.31 -1.26,-0.46 -2.06,-0.46 -1.28,0 -2.35,0.51 -3.19,1.53 -0.82,1 -1.28,2.5 -1.39,4.52 z"
   id="path50" />
	<path
   class="st0"
   d="M 345.47,87.67 V 87.7 74.32 c 0,-0.93 -0.07,-1.66 -0.2,-2.19 -0.13,-0.53 -0.27,-0.93 -0.4,-1.2 l 1.79,-0.46 c 0.04,0.09 0.13,0.38 0.27,0.86 0.13,0.49 0.21,1.11 0.23,1.86 0.84,-0.88 1.73,-1.56 2.66,-2.03 0.91,-0.46 1.85,-0.7 2.82,-0.7 0.88,0 1.66,0.18 2.32,0.53 0.66,0.36 1.16,0.84 1.49,1.46 0.2,0.31 0.37,0.66 0.5,1.06 0.11,0.4 0.17,0.82 0.17,1.26 v 12.88 h -1.86 V 75.72 c 0,-0.77 -0.07,-1.37 -0.2,-1.79 -0.13,-0.42 -0.33,-0.79 -0.6,-1.1 -0.22,-0.24 -0.53,-0.43 -0.93,-0.56 -0.4,-0.15 -0.84,-0.23 -1.33,-0.23 -0.8,0 -1.65,0.23 -2.56,0.7 -0.93,0.49 -1.75,1.13 -2.46,1.93 v 13.02 h -1.79 0.08 z"
   id="path51" />
</g><g
         id="g69">
	<path
   class="st0"
   d="M 78.36,3.13 78.33,3.12 c -0.28,0 -0.57,0.01 -0.86,0.02 C 76.92,3.17 76.36,3.18 75.8,3.13 75.52,3.11 75.24,3.1 74.96,3.1 c -0.09,0 -0.18,0.01 -0.26,0.03 -0.07,0.02 -0.18,0.08 -0.18,0.28 0,0.23 0.11,0.34 0.2,0.39 0.11,0.06 0.24,0.11 0.39,0.14 0.14,0.03 0.29,0.05 0.44,0.07 0.13,0.02 0.23,0.06 0.31,0.13 0.08,0.07 0.13,0.21 0.16,0.41 0.03,0.22 0.05,0.47 0.05,0.75 0,0.28 -0.01,0.58 -0.02,0.88 C 76.04,6.49 76.03,6.76 76.03,7 v 3.37 c 0,0.31 -0.03,0.61 -0.09,0.9 -0.09,0.52 -0.22,0.97 -0.39,1.32 -0.16,0.35 -0.37,0.64 -0.63,0.86 -0.25,0.22 -0.57,0.38 -0.94,0.48 -0.37,0.1 -0.83,0.15 -1.36,0.15 -0.44,0 -0.85,-0.05 -1.21,-0.14 C 71.06,13.85 70.75,13.69 70.5,13.46 70.24,13.23 70.04,12.91 69.88,12.5 69.72,12.09 69.62,11.56 69.58,10.92 69.56,10.6 69.55,10.27 69.54,9.95 69.53,9.62 69.53,9.3 69.53,8.97 v -2.9 c 0,-0.16 0,-0.32 0.01,-0.5 C 69.55,5.39 69.56,5.22 69.57,5.06 69.59,4.89 69.6,4.74 69.62,4.61 69.64,4.48 69.66,4.38 69.69,4.32 69.75,4.18 69.86,4.09 70,4.04 70.17,3.99 70.35,3.95 70.51,3.92 70.69,3.89 70.86,3.85 71,3.81 71.18,3.75 71.28,3.62 71.28,3.43 71.28,3.26 71.19,3.16 71.01,3.13 70.88,3.11 70.77,3.1 70.68,3.1 c -0.37,0 -0.73,0.02 -1.09,0.05 -0.66,0.06 -1.38,0.07 -2.06,0 C 67.2,3.12 66.86,3.1 66.52,3.1 c -0.26,0 -0.41,0.14 -0.41,0.4 0,0.1 0.04,0.19 0.13,0.25 0.07,0.05 0.15,0.08 0.24,0.1 0.08,0.02 0.17,0.03 0.25,0.03 0.08,0.01 0.15,0.01 0.2,0.01 h 0.17 c 0.18,0 0.32,0.05 0.41,0.14 0.1,0.11 0.17,0.23 0.22,0.38 0.04,0.15 0.07,0.32 0.08,0.5 0,0.19 0.01,0.36 0.01,0.5 0,0.89 -0.01,1.78 -0.03,2.65 -0.02,0.89 -0.03,1.79 -0.03,2.65 v 0.58 c 0,0.1 0,0.19 0.01,0.29 0,0.1 0.01,0.19 0.02,0.29 0.06,0.62 0.22,1.14 0.47,1.56 0.25,0.41 0.57,0.74 0.96,0.99 0.39,0.25 0.83,0.42 1.32,0.53 0.49,0.1 1.01,0.15 1.55,0.15 0.45,0 0.93,-0.03 1.4,-0.1 0.48,-0.07 0.94,-0.19 1.39,-0.36 0.52,-0.2 0.93,-0.5 1.21,-0.88 0.28,-0.37 0.49,-0.8 0.63,-1.27 0.14,-0.46 0.22,-0.96 0.25,-1.46 0.03,-0.51 0.04,-1 0.04,-1.46 0,-0.28 0,-0.57 -0.01,-0.85 -0.01,-0.28 -0.01,-0.57 -0.01,-0.85 0,-0.32 0,-0.68 -0.01,-1.11 -0.01,-0.42 -0.01,-0.82 0,-1.21 C 76.99,5.16 77,4.82 77.03,4.54 77.07,4.16 77.14,4.12 77.14,4.12 77.16,4.11 77.23,4.08 77.41,4.05 77.57,4.03 77.73,4 77.9,3.96 78.07,3.92 78.23,3.87 78.36,3.8 78.56,3.7 78.6,3.55 78.6,3.45 c 0.05,-0.1 0,-0.24 -0.24,-0.32"
   id="path52" />
	<path
   class="st0"
   d="M 93.74,3.12 C 93.48,3.12 93.2,3.13 92.91,3.14 92.31,3.17 91.66,3.17 91.08,3.13 90.74,3.11 90.4,3.1 90.07,3.1 c -0.1,0 -0.19,0.02 -0.28,0.06 -0.07,0.04 -0.16,0.12 -0.16,0.3 0,0.22 0.12,0.35 0.34,0.38 0.17,0.02 0.37,0.03 0.59,0.04 0.21,0 0.4,0.03 0.59,0.09 0.16,0.05 0.26,0.17 0.3,0.36 0.03,0.12 0.05,0.25 0.05,0.39 0.01,0.14 0.01,0.28 0.01,0.42 0,0.82 0,1.64 0.01,2.46 0.01,0.82 0,1.64 -0.01,2.46 v 1.93 c 0.01,0.17 -0.03,0.22 -0.07,0.24 C 90.58,11.21 89.83,10.32 89.18,9.55 88.52,8.78 87.93,8.08 87.4,7.47 86.87,6.86 86.39,6.29 85.95,5.78 85.51,5.27 85.09,4.76 84.66,4.25 84.46,4.06 84.31,3.9 84.21,3.77 84.1,3.63 84,3.51 83.91,3.42 83.81,3.32 83.71,3.24 83.6,3.19 83.49,3.14 83.33,3.11 83.13,3.11 c -0.18,0 -0.36,0 -0.52,0.02 -0.15,0.01 -0.32,0.02 -0.51,0.02 -0.24,0 -0.46,0 -0.67,-0.02 -0.22,-0.01 -0.45,-0.02 -0.68,-0.02 -0.09,0 -0.19,0.03 -0.32,0.09 -0.18,0.09 -0.22,0.22 -0.22,0.31 0,0.12 0.06,0.22 0.18,0.27 0.09,0.05 0.2,0.08 0.33,0.1 0.12,0.02 0.24,0.04 0.36,0.04 0.11,0 0.2,0.01 0.26,0.02 0.23,0.04 0.41,0.1 0.53,0.18 0.12,0.08 0.22,0.17 0.28,0.27 0.07,0.1 0.11,0.22 0.12,0.36 0.02,0.15 0.02,0.31 0.02,0.47 0,1.26 -0.01,2.51 -0.03,3.73 l -0.06,3.73 c 0,0.15 0,0.3 -0.02,0.45 -0.01,0.15 -0.04,0.29 -0.08,0.42 -0.04,0.12 -0.11,0.23 -0.2,0.31 -0.09,0.08 -0.21,0.14 -0.36,0.16 -0.08,0.01 -0.18,0.02 -0.31,0.02 -0.14,0.01 -0.26,0.02 -0.37,0.03 -0.12,0.02 -0.23,0.05 -0.32,0.1 -0.11,0.06 -0.17,0.16 -0.17,0.29 0,0.16 0.08,0.27 0.24,0.31 0.12,0.03 0.23,0.05 0.32,0.05 0.35,0 0.71,-0.01 1.06,-0.03 0.65,-0.04 1.29,-0.05 1.94,0 0.31,0.02 0.62,0.03 0.92,0.03 0.06,0 0.13,-0.01 0.2,-0.04 0.1,-0.03 0.16,-0.11 0.16,-0.22 0,-0.13 -0.05,-0.24 -0.16,-0.32 -0.09,-0.06 -0.18,-0.11 -0.28,-0.13 -0.29,-0.06 -0.55,-0.1 -0.76,-0.11 -0.19,-0.01 -0.34,-0.05 -0.46,-0.12 -0.11,-0.06 -0.19,-0.2 -0.25,-0.39 -0.06,-0.21 -0.09,-0.56 -0.09,-1.03 0,-0.79 -0.01,-1.52 -0.02,-2.17 C 83.18,9.66 83.17,9.08 83.16,8.55 83.16,8.01 83.15,7.5 83.14,7 83.13,6.48 83.12,5.94 83.12,5.4 c 0,-0.12 0.01,-0.23 0.02,-0.35 0.17,0.16 0.33,0.33 0.47,0.53 0.19,0.25 0.37,0.48 0.55,0.69 0.64,0.75 1.21,1.41 1.7,1.99 l 0.53,0.62 c 0.6,0.7 1.11,1.29 1.51,1.75 0.4,0.46 0.71,0.82 0.93,1.08 0.22,0.26 0.38,0.45 0.49,0.57 0.1,0.12 0.17,0.2 0.2,0.23 0.03,0.04 0.05,0.06 0.05,0.06 0.31,0.39 0.61,0.75 0.89,1.09 0.3,0.36 0.6,0.72 0.9,1.07 0.03,0.04 0.07,0.09 0.12,0.15 0.05,0.06 0.1,0.11 0.14,0.17 0.06,0.06 0.11,0.11 0.17,0.15 0.06,0.04 0.12,0.06 0.18,0.06 0.02,0 0.04,0 0.05,0 0.18,-0.03 0.29,-0.15 0.31,-0.35 0.02,-0.16 0.02,-0.33 0.02,-0.5 0,-1.04 0,-1.94 0.01,-2.71 0.01,-0.77 0.01,-1.46 0.01,-2.07 V 6.37 c 0,-0.1 0,-0.27 0.01,-0.49 C 92.39,5.66 92.4,5.43 92.41,5.2 92.43,4.97 92.45,4.75 92.5,4.54 92.55,4.3 92.6,4.19 92.64,4.14 92.7,4.07 92.8,4.02 92.94,4 93.1,3.97 93.27,3.95 93.44,3.94 93.61,3.92 93.77,3.9 93.91,3.86 94.08,3.81 94.18,3.69 94.18,3.52 94.19,3.35 94.13,3.12 93.74,3.12"
   id="path53" />
	<path
   class="st0"
   d="M 99.28,6.86 C 99.3,6.19 99.3,5.53 99.3,4.89 c 0,-0.19 0.01,-0.35 0.02,-0.48 0.01,-0.12 0.04,-0.21 0.1,-0.29 0.06,-0.08 0.16,-0.13 0.3,-0.17 0.15,-0.04 0.36,-0.06 0.64,-0.06 0.16,0 0.29,-0.02 0.41,-0.05 0.09,-0.02 0.24,-0.1 0.24,-0.36 0,-0.04 -0.01,-0.1 -0.04,-0.17 -0.03,-0.07 -0.06,-0.11 -0.09,-0.14 l -0.03,-0.03 h -1.41 c -0.15,0 -0.31,0.01 -0.47,0.02 -0.16,0.02 -0.31,0.02 -0.45,0.02 -0.3,0 -0.61,-0.02 -0.91,-0.05 C 97.31,3.1 96.99,3.08 96.68,3.08 h -0.17 c -0.09,0 -0.19,0.01 -0.29,0.02 -0.15,0.02 -0.23,0.12 -0.23,0.28 0,0.24 0.11,0.33 0.21,0.37 0.11,0.05 0.25,0.08 0.4,0.09 0.14,0.01 0.29,0.03 0.45,0.05 0.14,0.02 0.26,0.08 0.35,0.18 0.04,0.05 0.09,0.16 0.12,0.4 0.03,0.21 0.05,0.4 0.05,0.57 v 0.3 c 0,0.26 0,0.52 -0.01,0.79 0,0.26 -0.01,0.53 -0.01,0.81 l -0.02,5.52 v 0.33 c 0,0.19 -0.01,0.4 -0.04,0.61 -0.02,0.19 -0.08,0.32 -0.17,0.39 -0.09,0.09 -0.21,0.14 -0.35,0.18 -0.16,0.04 -0.3,0.07 -0.45,0.09 -0.14,0.03 -0.27,0.06 -0.39,0.1 -0.19,0.07 -0.22,0.21 -0.22,0.29 0,0.17 0.07,0.28 0.21,0.34 0.11,0.04 0.22,0.06 0.34,0.06 h 0.22 c 0.32,0 0.61,-0.02 0.87,-0.06 0.47,-0.07 1.1,-0.07 1.71,-0.01 0.46,0.05 0.9,0.07 1.37,0.02 0.2,-0.02 0.32,-0.15 0.32,-0.36 0,-0.08 -0.03,-0.22 -0.25,-0.28 -0.12,-0.03 -0.26,-0.06 -0.41,-0.09 -0.15,-0.03 -0.31,-0.06 -0.47,-0.09 -0.14,-0.03 -0.26,-0.08 -0.34,-0.15 -0.11,-0.1 -0.17,-0.24 -0.2,-0.43 -0.02,-0.2 -0.04,-0.39 -0.04,-0.56 V 8.82 c 0.02,-0.65 0.02,-1.31 0.04,-1.96"
   id="path54" />
	<path
   class="st0"
   d="m 114.63,3.12 c -0.24,0 -0.48,0.01 -0.72,0.04 -0.54,0.06 -1.14,0.05 -1.71,-0.02 -0.35,-0.04 -0.7,-0.06 -1.04,-0.06 -0.11,0 -0.2,0.04 -0.29,0.11 -0.08,0.08 -0.12,0.17 -0.12,0.28 0,0.2 0.12,0.34 0.33,0.39 0.17,0.04 0.37,0.07 0.57,0.09 0.2,0.02 0.38,0.06 0.54,0.12 0.08,0.03 0.19,0.1 0.19,0.33 0,0.03 -0.02,0.14 -0.16,0.59 -0.11,0.34 -0.25,0.76 -0.43,1.23 -0.17,0.48 -0.36,1.01 -0.57,1.57 -0.21,0.56 -0.41,1.1 -0.6,1.6 -0.2,0.51 -0.37,0.95 -0.52,1.35 -0.16,0.42 -0.26,0.67 -0.32,0.81 l -0.05,0.12 c -0.03,0.05 -0.05,0.11 -0.09,0.16 -0.03,0.05 -0.06,0.08 -0.1,0.12 -0.03,-0.04 -0.11,-0.16 -0.29,-0.57 -0.16,-0.35 -0.34,-0.79 -0.55,-1.31 -0.21,-0.51 -0.43,-1.07 -0.67,-1.68 -0.24,-0.6 -0.46,-1.18 -0.67,-1.73 -0.21,-0.55 -0.39,-1.03 -0.55,-1.46 -0.16,-0.42 -0.26,-0.71 -0.32,-0.87 -0.01,-0.03 -0.02,-0.06 -0.03,-0.1 -0.01,-0.03 -0.01,-0.05 -0.01,-0.08 0,-0.13 0.05,-0.2 0.15,-0.23 0.14,-0.05 0.3,-0.07 0.47,-0.08 0.19,-0.01 0.36,-0.03 0.51,-0.05 0.26,-0.04 0.3,-0.2 0.3,-0.3 0,-0.12 -0.05,-0.23 -0.14,-0.31 -0.09,-0.08 -0.2,-0.12 -0.32,-0.12 -0.38,0 -0.75,0.02 -1.1,0.05 -0.6,0.05 -1.23,0.08 -1.83,0 -0.25,-0.03 -0.51,-0.05 -0.77,-0.05 h -0.17 c -0.12,0 -0.23,0.02 -0.35,0.06 -0.19,0.06 -0.23,0.19 -0.23,0.29 0,0.18 0.09,0.31 0.26,0.35 0.13,0.04 0.28,0.07 0.45,0.1 0.17,0.03 0.33,0.08 0.5,0.14 0.15,0.05 0.26,0.17 0.35,0.35 0.53,1.1 1.02,2.23 1.45,3.36 0.43,1.13 0.87,2.26 1.31,3.4 0.24,0.6 0.49,1.21 0.74,1.83 0.25,0.62 0.5,1.23 0.74,1.83 0.02,0.06 0.06,0.12 0.11,0.19 0.06,0.08 0.15,0.13 0.25,0.13 0.12,0 0.2,-0.03 0.25,-0.09 0.03,-0.05 0.06,-0.1 0.08,-0.17 0.38,-0.94 0.77,-1.9 1.14,-2.85 0.36,-0.92 0.74,-1.88 1.13,-2.85 0.24,-0.58 0.47,-1.14 0.7,-1.68 0.24,-0.56 0.47,-1.12 0.69,-1.68 0.03,-0.07 0.08,-0.19 0.13,-0.34 0.06,-0.15 0.12,-0.3 0.19,-0.46 0.07,-0.16 0.13,-0.3 0.19,-0.44 0.06,-0.13 0.1,-0.22 0.13,-0.27 0.08,-0.12 0.18,-0.2 0.3,-0.24 0.13,-0.05 0.26,-0.08 0.38,-0.1 0.13,-0.02 0.25,-0.06 0.35,-0.1 0.09,-0.04 0.19,-0.14 0.19,-0.36 0,-0.08 -0.02,-0.16 -0.07,-0.23 -0.09,-0.07 -0.17,-0.11 -0.28,-0.11"
   id="path55" />
	<path
   class="st0"
   d="m 126.22,11.97 c -0.12,0 -0.24,0.09 -0.36,0.27 -0.1,0.16 -0.21,0.34 -0.32,0.54 -0.11,0.19 -0.23,0.39 -0.35,0.59 -0.12,0.19 -0.25,0.32 -0.38,0.41 -0.08,0.05 -0.17,0.09 -0.29,0.11 -0.13,0.03 -0.26,0.06 -0.41,0.07 -0.15,0.02 -0.31,0.03 -0.48,0.04 -0.17,0.01 -0.32,0.02 -0.45,0.02 h -0.49 c -0.09,0 -0.25,0 -0.47,-0.01 C 122,14 121.77,14 121.54,13.99 c -0.23,-0.01 -0.45,-0.03 -0.66,-0.05 -0.24,-0.03 -0.36,-0.07 -0.41,-0.09 -0.1,-0.05 -0.17,-0.13 -0.22,-0.23 -0.05,-0.11 -0.09,-0.24 -0.12,-0.37 -0.02,-0.14 -0.04,-0.28 -0.04,-0.41 -0.01,-0.14 -0.01,-0.27 -0.01,-0.38 V 9.97 c 0,-0.04 0,-0.12 -0.01,-0.23 -0.01,-0.1 0,-0.2 0.01,-0.3 0.01,-0.1 0.03,-0.19 0.05,-0.27 0.02,-0.06 0.04,-0.07 0.05,-0.07 0.04,-0.01 0.1,-0.02 0.19,-0.03 0.09,-0.01 0.18,-0.02 0.27,-0.02 h 0.03 c 0.09,0 0.17,-0.01 0.24,-0.01 0.08,-0.01 0.15,-0.01 0.2,-0.01 0.2,0 0.43,0 0.69,-0.01 h 0.09 c 0.22,0 0.43,0.02 0.63,0.05 0.22,0.03 0.42,0.1 0.58,0.19 0.15,0.09 0.24,0.21 0.28,0.38 l 0.01,0.03 c 0.03,0.04 0.05,0.12 0.07,0.23 0.02,0.12 0.05,0.25 0.07,0.37 0.03,0.13 0.06,0.24 0.11,0.34 0.07,0.17 0.18,0.2 0.26,0.2 0.1,0 0.19,-0.04 0.24,-0.11 0.05,-0.06 0.08,-0.14 0.09,-0.23 0.01,-0.08 0.01,-0.16 0.01,-0.25 0,-0.08 -0.01,-0.14 -0.01,-0.19 0,-0.22 -0.01,-0.44 -0.02,-0.66 -0.01,-0.22 -0.02,-0.44 -0.02,-0.65 0,-0.22 0.01,-0.44 0.02,-0.66 0.01,-0.22 0.02,-0.45 0.02,-0.67 0,-0.12 -0.01,-0.23 -0.02,-0.34 -0.02,-0.15 -0.12,-0.24 -0.28,-0.24 -0.15,0 -0.22,0.07 -0.26,0.13 -0.04,0.06 -0.08,0.12 -0.11,0.19 l -0.01,0.04 c -0.02,0.29 -0.09,0.53 -0.22,0.73 -0.12,0.19 -0.32,0.3 -0.61,0.35 -0.28,0.04 -0.56,0.06 -0.85,0.07 -0.29,0.01 -0.58,0.01 -0.87,0.01 -0.06,0 -0.14,0 -0.24,0.01 -0.09,0.01 -0.19,0.01 -0.28,0 C 120.38,8.33 120.3,8.32 120.22,8.3 120.17,8.29 120.13,8.27 120.1,8.24 120.08,8.17 120.07,8.07 120.07,7.95 V 7.59 c 0,-0.36 0,-0.72 -0.01,-1.07 0,-0.36 -0.01,-0.71 -0.01,-1.07 0,-0.18 0.01,-0.36 0.02,-0.56 0.01,-0.18 0.04,-0.35 0.1,-0.5 0.05,-0.14 0.13,-0.25 0.24,-0.34 0.11,-0.09 0.27,-0.13 0.49,-0.13 h 0.69 c 0.21,0 0.43,0 0.67,0.01 0.23,0.01 0.46,0.02 0.68,0.04 0.23,0.02 0.42,0.05 0.59,0.08 0.17,0.03 0.3,0.08 0.38,0.12 0.13,0.07 0.23,0.19 0.3,0.34 0.08,0.17 0.15,0.35 0.21,0.52 0.06,0.18 0.13,0.34 0.19,0.48 0.1,0.2 0.24,0.25 0.35,0.25 v 0 c 0.2,-0.02 0.24,-0.29 0.25,-0.37 0.03,-0.19 0.04,-0.39 0.04,-0.6 0,-0.19 0,-0.35 0.01,-0.48 0.01,-0.13 0.01,-0.25 0.01,-0.34 0,-0.19 -0.02,-0.39 -0.06,-0.61 -0.02,-0.09 -0.09,-0.19 -0.28,-0.23 -0.12,-0.02 -0.24,-0.03 -0.36,-0.03 h -0.17 c -0.75,0 -1.47,0.01 -2.14,0.02 -0.69,0.02 -1.4,0.02 -2.13,0.02 -0.37,0 -0.73,-0.01 -1.08,-0.02 -0.34,-0.02 -0.71,-0.02 -1.08,-0.02 -0.09,0 -0.21,0 -0.34,-0.01 -0.14,0 -0.27,0 -0.4,0.02 -0.13,0.02 -0.24,0.05 -0.34,0.09 -0.12,0.05 -0.19,0.15 -0.19,0.29 0,0.11 0.04,0.29 0.33,0.34 0.16,0.03 0.35,0.05 0.56,0.08 0.19,0.02 0.37,0.08 0.54,0.16 0.14,0.07 0.22,0.23 0.24,0.48 0.01,0.05 0.02,0.09 0.02,0.12 V 5.1 c 0,0.85 0,1.7 0.02,2.54 0.01,0.81 0.02,1.67 0.02,2.54 0,0.26 0.01,0.57 0.02,0.92 0.01,0.35 0.02,0.7 0.02,1.04 0,0.34 -0.02,0.64 -0.05,0.92 -0.03,0.27 -0.08,0.46 -0.16,0.57 -0.08,0.12 -0.21,0.21 -0.37,0.27 -0.17,0.06 -0.34,0.12 -0.53,0.16 -0.18,0.04 -0.34,0.08 -0.48,0.13 -0.22,0.07 -0.26,0.19 -0.26,0.28 0,0.28 0.16,0.34 0.26,0.35 0.12,0.01 0.24,0.02 0.36,0.02 0.16,0 0.32,-0.01 0.47,-0.02 0.15,-0.01 0.3,-0.02 0.44,-0.02 h 7.44 c 0.21,0 0.37,-0.08 0.47,-0.23 l 0.01,-0.03 c 0.07,-0.34 0.13,-0.61 0.18,-0.81 l 0.13,-0.58 c 0.04,-0.18 0.07,-0.29 0.07,-0.3 0.01,-0.03 0.02,-0.06 0.05,-0.19 0.02,-0.09 0.03,-0.13 0.03,-0.15 0.04,-0.1 0.06,-0.2 0.04,-0.3 -0.06,-0.11 -0.12,-0.24 -0.35,-0.24"
   id="path56" />
	<path
   class="st0"
   d="m 134.3,8.15 c -0.26,0.17 -0.56,0.3 -0.92,0.36 -0.36,0.07 -0.75,0.1 -1.17,0.1 -0.18,0 -0.31,-0.01 -0.39,-0.04 -0.08,-0.03 -0.1,-0.07 -0.11,-0.1 -0.02,-0.06 -0.03,-0.14 -0.02,-0.24 0,-0.11 0.01,-0.25 0.01,-0.41 0,-0.42 0,-0.89 0.02,-1.42 0.01,-0.53 0.02,-1 0.02,-1.42 V 4.44 c 0,-0.23 0.05,-0.4 0.15,-0.51 0.07,-0.07 0.23,-0.16 0.65,-0.16 0.38,0 0.73,0.05 1.04,0.16 0.31,0.11 0.58,0.26 0.81,0.47 0.23,0.21 0.41,0.46 0.54,0.76 0.13,0.3 0.2,0.66 0.2,1.06 0,0.49 -0.07,0.89 -0.22,1.2 -0.15,0.31 -0.36,0.55 -0.61,0.73 m 5.18,6.71 c -0.11,-0.03 -0.23,-0.06 -0.35,-0.12 -0.42,-0.09 -0.8,-0.28 -1.12,-0.57 -0.33,-0.29 -0.63,-0.64 -0.9,-1.03 -0.27,-0.39 -0.52,-0.82 -0.73,-1.26 -0.22,-0.45 -0.43,-0.87 -0.62,-1.27 -0.2,-0.4 -0.39,-0.76 -0.59,-1.04 -0.15,-0.22 -0.31,-0.39 -0.47,-0.5 0.22,-0.11 0.44,-0.24 0.67,-0.38 0.28,-0.18 0.54,-0.39 0.77,-0.63 0.23,-0.24 0.42,-0.51 0.57,-0.8 0.15,-0.3 0.22,-0.63 0.22,-0.98 0,-0.63 -0.12,-1.16 -0.36,-1.58 -0.24,-0.41 -0.54,-0.74 -0.9,-0.98 -0.35,-0.24 -0.74,-0.41 -1.15,-0.5 -0.4,-0.09 -0.79,-0.14 -1.14,-0.14 -0.41,0 -0.81,0.01 -1.21,0.02 -0.39,0.02 -0.8,0.02 -1.2,0.02 h -1.37 c -0.11,0 -0.23,-0.01 -0.35,-0.02 -0.25,-0.02 -0.5,-0.03 -0.72,0.03 -0.09,0.02 -0.24,0.09 -0.24,0.35 0,0.13 0.07,0.23 0.19,0.28 0.09,0.03 0.21,0.06 0.35,0.07 0.13,0.01 0.27,0.02 0.42,0.03 0.14,0.01 0.27,0.04 0.39,0.08 0.11,0.04 0.2,0.11 0.28,0.21 0.07,0.1 0.11,0.24 0.11,0.43 0,0.88 -0.01,1.77 -0.02,2.66 -0.02,0.89 -0.02,1.79 -0.02,2.67 v 3.25 c 0,0.2 -0.04,0.36 -0.11,0.47 -0.08,0.11 -0.17,0.2 -0.29,0.27 -0.12,0.07 -0.25,0.11 -0.39,0.14 -0.15,0.03 -0.28,0.05 -0.42,0.07 -0.13,0.02 -0.25,0.05 -0.34,0.07 -0.17,0.05 -0.19,0.17 -0.19,0.24 0,0.19 0.03,0.29 0.11,0.34 0.06,0.04 0.16,0.05 0.32,0.05 0.33,0 0.66,-0.02 0.98,-0.05 0.67,-0.07 1.38,-0.06 2.07,0.01 0.37,0.04 0.76,0.05 1.14,0.05 0.23,0 0.39,-0.02 0.5,-0.05 0.08,-0.03 0.23,-0.11 0.23,-0.36 0,-0.13 -0.07,-0.22 -0.18,-0.25 -0.08,-0.02 -0.17,-0.03 -0.26,-0.03 -0.06,0 -0.08,-0.01 -0.08,-0.01 l -0.02,-0.01 c -0.21,-0.04 -0.41,-0.07 -0.58,-0.1 -0.16,-0.02 -0.29,-0.06 -0.4,-0.11 -0.1,-0.05 -0.18,-0.14 -0.24,-0.26 -0.06,-0.12 -0.09,-0.32 -0.09,-0.57 V 9.82 c 0,-0.31 0.04,-0.42 0.06,-0.46 0.01,-0.02 0.07,-0.08 0.3,-0.08 0.36,0 0.66,0.09 0.9,0.27 0.25,0.18 0.47,0.41 0.66,0.69 0.19,0.28 0.36,0.6 0.51,0.95 0.15,0.36 0.32,0.71 0.49,1.04 0.32,0.83 0.79,1.54 1.41,2.12 0.61,0.58 1.38,0.95 2.3,1.11 0.07,0.01 0.16,0.02 0.27,0.03 0.11,0.01 0.22,0.02 0.33,0.02 0.27,0 0.47,-0.02 0.6,-0.07 l 0.04,-0.02 c 0.12,-0.12 0.17,-0.21 0.17,-0.31 -0.05,-0.05 -0.08,-0.2 -0.31,-0.25"
   id="path57" />
	<path
   class="st0"
   d="m 146.94,8.7 c -0.36,-0.23 -0.78,-0.46 -1.25,-0.68 -0.46,-0.22 -0.91,-0.46 -1.32,-0.71 -0.41,-0.25 -0.76,-0.54 -1.04,-0.86 -0.27,-0.31 -0.41,-0.68 -0.41,-1.1 0,-0.27 0.05,-0.51 0.15,-0.73 0.1,-0.22 0.24,-0.4 0.41,-0.55 0.17,-0.15 0.38,-0.27 0.61,-0.34 0.23,-0.08 0.49,-0.12 0.75,-0.12 0.32,0 0.63,0.11 0.94,0.31 0.31,0.21 0.55,0.51 0.71,0.9 0.06,0.09 0.1,0.21 0.13,0.34 0.03,0.14 0.06,0.28 0.1,0.41 0.03,0.13 0.07,0.25 0.12,0.36 0.1,0.22 0.24,0.19 0.33,0.21 0.11,0.03 0.24,0.03 0.33,-0.06 0.05,-0.05 0.08,-0.12 0.11,-0.25 0.04,-0.55 0.06,-1.1 0.05,-1.65 0,-0.11 0.01,-0.25 0.02,-0.4 0.02,-0.16 0.02,-0.32 0.02,-0.47 0,-0.15 -0.01,-0.29 -0.03,-0.4 -0.04,-0.2 -0.17,-0.24 -0.24,-0.24 -0.19,0 -0.33,0.06 -0.43,0.18 -0.08,0.1 -0.16,0.21 -0.21,0.32 -0.05,0.1 -0.1,0.17 -0.15,0.22 -0.02,0.02 -0.04,0.03 -0.14,-0.02 -0.19,-0.12 -0.43,-0.24 -0.71,-0.36 -0.28,-0.12 -0.55,-0.18 -0.78,-0.18 -0.48,0 -0.94,0.07 -1.38,0.22 -0.44,0.15 -0.82,0.36 -1.14,0.63 -0.33,0.28 -0.59,0.62 -0.77,1.03 -0.19,0.41 -0.28,0.87 -0.28,1.39 0,0.59 0.14,1.08 0.42,1.48 0.27,0.39 0.62,0.74 1.02,1.03 0.4,0.29 0.85,0.56 1.32,0.79 0.46,0.23 0.9,0.48 1.29,0.73 0.39,0.26 0.72,0.55 0.98,0.88 0.25,0.32 0.38,0.72 0.38,1.19 0,0.32 -0.05,0.61 -0.16,0.86 -0.11,0.25 -0.26,0.47 -0.45,0.65 -0.19,0.18 -0.41,0.32 -0.67,0.41 -0.25,0.09 -0.54,0.14 -0.84,0.14 -0.41,0 -0.82,-0.11 -1.2,-0.33 -0.38,-0.21 -0.66,-0.52 -0.84,-0.91 -0.05,-0.1 -0.09,-0.22 -0.13,-0.36 -0.04,-0.15 -0.07,-0.29 -0.1,-0.42 -0.03,-0.14 -0.07,-0.25 -0.12,-0.35 -0.07,-0.16 -0.18,-0.19 -0.26,-0.19 -0.02,0 -0.05,0 -0.08,-0.01 -0.1,-0.03 -0.23,-0.03 -0.33,0.05 -0.06,0.05 -0.09,0.13 -0.1,0.25 -0.02,0.27 -0.03,0.52 -0.04,0.74 -0.01,0.22 -0.01,0.47 -0.01,0.74 0,0.11 -0.01,0.26 -0.02,0.45 -0.02,0.2 -0.02,0.38 -0.02,0.56 0,0.18 0.01,0.35 0.03,0.48 0.04,0.24 0.17,0.28 0.24,0.28 0.19,0 0.32,-0.04 0.41,-0.13 0.08,-0.07 0.15,-0.16 0.21,-0.26 0.05,-0.08 0.1,-0.16 0.16,-0.23 0.08,-0.09 0.31,-0.09 0.54,0.01 0.13,0.05 0.27,0.11 0.43,0.17 0.15,0.06 0.32,0.11 0.5,0.17 0.18,0.05 0.38,0.08 0.59,0.08 0.55,-0.01 1.07,-0.09 1.53,-0.25 0.47,-0.16 0.88,-0.39 1.22,-0.69 0.34,-0.3 0.61,-0.68 0.8,-1.13 0.19,-0.45 0.28,-0.97 0.28,-1.56 -0.01,-0.55 -0.15,-1.07 -0.4,-1.56 -0.27,-0.45 -0.63,-0.85 -1.08,-1.16"
   id="path58" />
	<path
   class="st0"
   d="m 154.06,6.86 c 0.02,-0.65 0.02,-1.31 0.02,-1.97 0,-0.19 0,-0.35 0.02,-0.48 0.01,-0.12 0.04,-0.21 0.1,-0.29 0.06,-0.08 0.16,-0.13 0.3,-0.17 0.15,-0.04 0.36,-0.06 0.64,-0.06 0.16,0 0.29,-0.02 0.41,-0.05 0.09,-0.02 0.24,-0.1 0.24,-0.36 0,-0.04 -0.01,-0.1 -0.04,-0.17 -0.03,-0.07 -0.05,-0.11 -0.09,-0.14 l -0.03,-0.03 h -1.41 c -0.15,0 -0.31,0.01 -0.47,0.02 -0.16,0.02 -0.31,0.02 -0.45,0.02 -0.3,0 -0.61,-0.02 -0.91,-0.05 -0.31,-0.03 -0.62,-0.05 -0.93,-0.05 h -0.17 c -0.09,0 -0.19,0.01 -0.29,0.02 -0.15,0.02 -0.23,0.12 -0.23,0.28 0,0.24 0.11,0.33 0.21,0.37 0.11,0.05 0.25,0.08 0.4,0.09 0.15,0.01 0.29,0.03 0.45,0.05 0.14,0.02 0.26,0.09 0.35,0.18 0.04,0.05 0.09,0.16 0.12,0.4 0.03,0.21 0.05,0.4 0.05,0.57 v 0.3 c 0,0.26 0,0.52 -0.01,0.79 -0.01,0.26 -0.01,0.53 -0.01,0.81 l -0.02,5.52 v 0.33 c 0,0.19 -0.01,0.4 -0.04,0.61 -0.02,0.19 -0.08,0.32 -0.17,0.39 -0.09,0.08 -0.21,0.14 -0.35,0.18 -0.16,0.04 -0.3,0.07 -0.44,0.09 -0.14,0.03 -0.27,0.06 -0.38,0.1 -0.19,0.07 -0.22,0.21 -0.22,0.29 0,0.17 0.08,0.28 0.21,0.34 0.11,0.04 0.22,0.06 0.34,0.06 h 0.22 c 0.32,0 0.61,-0.02 0.87,-0.06 0.46,-0.07 1.1,-0.07 1.71,-0.01 0.46,0.05 0.9,0.07 1.37,0.02 0.2,-0.02 0.31,-0.15 0.31,-0.36 0,-0.08 -0.03,-0.22 -0.24,-0.28 -0.12,-0.03 -0.26,-0.06 -0.41,-0.09 -0.15,-0.03 -0.31,-0.06 -0.47,-0.09 -0.15,-0.03 -0.26,-0.08 -0.34,-0.15 -0.11,-0.1 -0.17,-0.24 -0.2,-0.43 -0.02,-0.2 -0.04,-0.39 -0.04,-0.56 V 8.82 c 0,-0.66 0.01,-1.33 0.02,-1.96"
   id="path59" />
	<path
   class="st0"
   d="m 168.11,2.52 c -0.06,0 -0.15,0.03 -0.22,0.15 -0.04,0.07 -0.09,0.14 -0.15,0.22 -0.06,0.08 -0.13,0.15 -0.21,0.22 -0.07,0.06 -0.16,0.1 -0.26,0.12 -0.16,0.02 -0.31,0.03 -0.47,0.04 -0.68,0.02 -1.33,0.01 -1.94,0.02 -1.04,0.03 -2.26,0.02 -3.39,-0.01 C 160.83,3.26 160.18,3.24 159.54,3.21 159.4,3.2 159.29,3.17 159.22,3.12 159.14,3.06 159.08,3 159.03,2.94 158.98,2.87 158.94,2.82 158.9,2.76 c -0.07,-0.1 -0.15,-0.12 -0.21,-0.12 -0.16,0 -0.29,0.04 -0.38,0.13 -0.08,0.08 -0.15,0.18 -0.19,0.3 -0.04,0.11 -0.06,0.24 -0.08,0.38 V 3.5 c -0.01,0.11 -0.02,0.22 -0.03,0.32 -0.05,0.54 -0.12,0.96 -0.2,1.25 -0.08,0.3 -0.13,0.56 -0.13,0.74 0,0.15 0.04,0.25 0.11,0.31 0.07,0.06 0.17,0.08 0.3,0.08 0.08,0 0.16,-0.07 0.28,-0.27 0.09,-0.16 0.19,-0.32 0.28,-0.5 0.1,-0.18 0.18,-0.36 0.27,-0.53 0.1,-0.2 0.16,-0.28 0.19,-0.31 0.2,-0.19 0.4,-0.32 0.62,-0.38 0.22,-0.07 0.44,-0.1 0.67,-0.1 h 0.98 c 0.25,0 0.48,0.02 0.69,0.05 0.2,0.03 0.28,0.08 0.28,0.12 0.01,0.04 0.02,0.14 0.02,0.28 0.01,0.14 0.01,0.24 0.01,0.29 v 7.63 c 0,0.29 -0.02,0.53 -0.05,0.73 -0.03,0.18 -0.09,0.34 -0.17,0.46 -0.08,0.11 -0.21,0.21 -0.38,0.27 -0.17,0.07 -0.41,0.12 -0.72,0.15 -0.02,0.01 -0.07,0.01 -0.18,0.01 -0.12,0 -0.23,0.02 -0.34,0.06 -0.09,0.04 -0.2,0.13 -0.2,0.33 0,0.23 0.15,0.28 0.22,0.29 0.09,0.01 0.18,0.02 0.27,0.02 0.38,0 0.76,-0.01 1.13,-0.04 0.75,-0.05 1.61,-0.05 2.37,0 0.42,0.03 0.84,0.04 1.26,0.04 0.13,0 0.24,-0.01 0.33,-0.02 0.13,-0.02 0.19,-0.14 0.19,-0.36 0,-0.1 -0.05,-0.28 -0.36,-0.32 l -0.62,-0.07 c -0.22,-0.02 -0.43,-0.09 -0.63,-0.18 -0.18,-0.08 -0.29,-0.26 -0.34,-0.52 -0.03,-0.16 -0.05,-0.33 -0.05,-0.49 0,-0.17 -0.01,-0.33 -0.01,-0.5 0.02,-0.93 0.02,-1.87 -0.01,-2.78 -0.03,-0.92 -0.03,-1.85 -0.01,-2.77 l 0.03,-1.92 c 0,-0.24 0.01,-0.41 0.04,-0.52 0.03,-0.13 0.06,-0.18 0.08,-0.2 0.02,-0.03 0.05,-0.04 0.09,-0.04 v 0 c 0.14,0.01 0.29,0.01 0.53,0 0.29,-0.01 0.69,-0.01 1.09,0.02 0.24,0.02 0.46,0.04 0.66,0.08 0.2,0.03 0.37,0.09 0.52,0.17 0.13,0.07 0.22,0.15 0.26,0.26 0.06,0.14 0.08,0.3 0.07,0.46 -0.01,0.18 -0.03,0.34 -0.04,0.49 -0.02,0.17 -0.01,0.3 0.01,0.41 0.02,0.08 0.08,0.23 0.31,0.23 0.21,0 0.35,-0.14 0.43,-0.42 0.07,-0.23 0.12,-0.51 0.16,-0.83 0.04,-0.31 0.07,-0.64 0.09,-0.97 0.02,-0.32 0.07,-0.58 0.14,-0.77 C 168.6,3.1 168.6,2.96 168.54,2.8 168.5,2.67 168.39,2.52 168.11,2.52"
   id="path60" />
	<path
   class="st0"
   d="m 182.4,3.19 c -0.14,-0.06 -0.28,-0.09 -0.44,-0.09 -0.27,0 -0.55,0.02 -0.82,0.06 -0.49,0.07 -1.02,0.07 -1.51,0.01 -0.24,-0.03 -0.49,-0.05 -0.74,-0.05 -0.11,0 -0.2,0.01 -0.27,0.03 -0.1,0.03 -0.16,0.13 -0.16,0.31 0,0.19 0.11,0.32 0.3,0.36 0.15,0.03 0.32,0.05 0.49,0.06 0.17,0.01 0.32,0.04 0.46,0.08 0.07,0.02 0.15,0.07 0.15,0.24 0,0.01 -0.02,0.07 -0.18,0.32 -0.13,0.2 -0.28,0.43 -0.48,0.72 -0.19,0.28 -0.41,0.59 -0.64,0.92 -0.24,0.35 -0.46,0.65 -0.67,0.93 -0.21,0.29 -0.4,0.54 -0.57,0.76 -0.16,0.21 -0.27,0.35 -0.33,0.41 -0.02,0.02 -0.05,0.04 -0.08,0.07 -0.02,0.01 -0.03,0.02 -0.04,0.03 C 176.85,8.35 176.84,8.34 176.83,8.32 176.8,8.28 176.77,8.24 176.74,8.2 176.47,7.86 176.2,7.51 175.96,7.16 175.71,6.8 175.45,6.43 175.2,6.06 175.11,5.93 174.99,5.78 174.84,5.59 174.7,5.42 174.57,5.23 174.43,5.03 174.29,4.83 174.18,4.65 174.09,4.48 174,4.32 173.95,4.18 173.95,4.09 c 0,-0.1 0.04,-0.15 0.14,-0.17 0.14,-0.02 0.3,-0.04 0.47,-0.04 0.18,-0.01 0.34,-0.02 0.49,-0.05 0.19,-0.03 0.3,-0.17 0.3,-0.37 0,-0.09 -0.05,-0.17 -0.16,-0.24 -0.1,-0.06 -0.18,-0.09 -0.25,-0.09 -0.4,0 -0.82,0.02 -1.23,0.06 -0.67,0.06 -1.39,0.09 -2.05,-0.01 -0.29,-0.04 -0.59,-0.06 -0.88,-0.06 -0.09,0 -0.17,0.01 -0.25,0.02 -0.06,0.01 -0.19,0.05 -0.19,0.27 0,0.16 0.08,0.27 0.24,0.32 0.11,0.04 0.25,0.07 0.43,0.11 0.15,0.03 0.32,0.09 0.5,0.16 0.16,0.07 0.29,0.18 0.4,0.33 0.57,0.82 1.14,1.63 1.7,2.41 0.57,0.8 1.14,1.61 1.69,2.4 0.12,0.17 0.18,0.34 0.19,0.55 0.01,0.23 0.02,0.5 0.02,0.82 v 1.39 c 0,0.19 0,0.39 -0.01,0.6 -0.01,0.22 -0.02,0.41 -0.03,0.59 -0.02,0.18 -0.04,0.34 -0.07,0.48 -0.03,0.13 -0.07,0.22 -0.1,0.26 -0.1,0.11 -0.24,0.18 -0.41,0.21 -0.19,0.03 -0.38,0.06 -0.57,0.09 -0.19,0.03 -0.35,0.07 -0.48,0.14 -0.09,0.04 -0.23,0.16 -0.15,0.42 0.01,0.09 0.06,0.15 0.14,0.17 0.05,0.01 0.09,0.02 0.13,0.02 0.38,0 0.76,-0.02 1.14,-0.06 0.76,-0.07 1.57,-0.07 2.35,0 0.42,0.04 0.84,0.06 1.25,0.06 0.19,0 0.28,-0.09 0.32,-0.16 0.05,-0.09 0.08,-0.19 0.08,-0.3 l -0.01,-0.04 c -0.05,-0.13 -0.15,-0.22 -0.29,-0.25 -0.11,-0.03 -0.24,-0.04 -0.39,-0.05 -0.14,-0.01 -0.28,-0.01 -0.44,-0.02 -0.14,-0.01 -0.27,-0.04 -0.38,-0.1 -0.11,-0.05 -0.2,-0.15 -0.27,-0.28 -0.08,-0.14 -0.11,-0.34 -0.11,-0.61 V 9.93 c 0,-0.22 0.06,-0.45 0.17,-0.68 0.11,-0.24 0.26,-0.49 0.45,-0.73 0.18,-0.25 0.38,-0.49 0.58,-0.72 0.22,-0.26 0.4,-0.48 0.56,-0.68 0.37,-0.47 0.73,-0.95 1.1,-1.42 0.35,-0.46 0.73,-0.92 1.12,-1.38 0.11,-0.12 0.22,-0.21 0.34,-0.25 0.13,-0.05 0.25,-0.09 0.37,-0.11 0.13,-0.02 0.25,-0.04 0.36,-0.07 0.13,-0.03 0.23,-0.1 0.28,-0.22 0.05,-0.1 0.05,-0.18 0.03,-0.26 -0.03,-0.13 -0.09,-0.18 -0.17,-0.22"
   id="path61" />
	<g
   id="g68">
		<path
   class="st0"
   d="m 194.89,12.72 c -0.15,0.41 -0.38,0.77 -0.69,1.07 -0.31,0.3 -0.74,0.5 -1.28,0.59 -0.21,0.04 -0.42,0.06 -0.61,0.06 -0.31,0 -0.6,-0.05 -0.85,-0.15 -0.42,-0.17 -0.77,-0.42 -1.07,-0.75 -0.29,-0.33 -0.53,-0.72 -0.71,-1.15 -0.18,-0.44 -0.31,-0.88 -0.39,-1.32 -0.08,-0.42 -0.12,-0.87 -0.12,-1.33 0.01,-0.45 0.08,-0.88 0.22,-1.28 0.14,-0.39 0.37,-0.74 0.68,-1.03 0.31,-0.29 0.75,-0.49 1.29,-0.59 0.21,-0.04 0.4,-0.06 0.59,-0.06 0.28,0 0.55,0.04 0.79,0.13 0.41,0.14 0.77,0.37 1.07,0.67 0.31,0.31 0.56,0.68 0.76,1.1 0.2,0.43 0.35,0.89 0.44,1.36 0.07,0.42 0.11,0.88 0.1,1.34 0,0.48 -0.08,0.92 -0.22,1.34 m 0.39,-5.33 c -0.41,-0.38 -0.89,-0.68 -1.43,-0.89 -0.54,-0.21 -1.12,-0.32 -1.73,-0.32 -0.63,0 -1.22,0.12 -1.75,0.34 -0.53,0.23 -1,0.55 -1.39,0.95 -0.39,0.4 -0.7,0.88 -0.91,1.43 -0.22,0.55 -0.32,1.15 -0.32,1.78 0,0.64 0.11,1.23 0.32,1.77 0.21,0.54 0.51,1.01 0.89,1.4 0.38,0.39 0.84,0.7 1.37,0.93 0.53,0.22 1.11,0.33 1.73,0.33 0.63,0 1.23,-0.12 1.79,-0.36 0.55,-0.24 1.04,-0.57 1.46,-0.99 0.41,-0.41 0.74,-0.9 0.97,-1.45 0.24,-0.55 0.36,-1.14 0.36,-1.76 0,-0.65 -0.12,-1.24 -0.36,-1.78 -0.26,-0.54 -0.59,-1 -1,-1.38"
   id="path62" />
		<path
   class="st0"
   d="m 203.51,6.67 c -0.01,-0.11 -0.04,-0.25 -0.17,-0.27 -0.01,0 -0.04,0 -0.08,0 -0.05,0 -0.1,-0.01 -0.17,-0.01 h -0.25 c -0.35,0 -0.69,0 -1.03,0.01 -0.34,0 -0.68,0.01 -1.03,0.01 h -1.76 c -0.06,0 -0.17,0 -0.33,-0.01 -0.16,0 -0.34,-0.01 -0.52,-0.01 -0.2,0 -0.35,0 -0.46,0.01 -0.12,0.01 -0.21,0.02 -0.28,0.04 -0.08,0.03 -0.14,0.07 -0.16,0.12 -0.02,0.04 -0.03,0.09 -0.03,0.16 0,0.11 0.06,0.19 0.16,0.22 0.07,0.02 0.15,0.03 0.25,0.04 0.09,0 0.18,0.01 0.28,0.02 0.09,0.01 0.17,0.03 0.25,0.06 0.07,0.03 0.13,0.09 0.18,0.17 0.05,0.08 0.08,0.2 0.08,0.36 0,0.73 0.01,1.46 0.02,2.24 0.01,0.7 0.02,1.44 0.02,2.23 v 0.42 c 0,0.14 0,0.28 -0.01,0.45 0,0.16 -0.01,0.32 -0.02,0.48 -0.01,0.15 -0.02,0.29 -0.03,0.41 -0.02,0.14 -0.04,0.2 -0.05,0.23 -0.05,0.12 -0.13,0.19 -0.28,0.22 -0.04,0.01 -0.1,0.02 -0.19,0.04 -0.1,0.01 -0.19,0.02 -0.28,0.04 -0.1,0.02 -0.19,0.05 -0.26,0.08 -0.14,0.07 -0.16,0.17 -0.16,0.23 0,0.13 0.08,0.22 0.21,0.24 0.09,0.01 0.16,0.02 0.23,0.02 0.22,0 0.44,-0.01 0.64,-0.04 0.45,-0.06 0.98,-0.04 1.46,0 0.28,0.03 0.57,0.04 0.85,0.04 h 0.11 c 0.09,0 0.17,-0.02 0.25,-0.05 0.11,-0.04 0.17,-0.12 0.17,-0.23 0,-0.15 -0.09,-0.26 -0.25,-0.29 -0.12,-0.03 -0.25,-0.05 -0.41,-0.06 -0.15,-0.02 -0.29,-0.04 -0.43,-0.09 -0.12,-0.04 -0.21,-0.12 -0.27,-0.25 0,0 -0.01,-0.02 -0.01,-0.09 0,-0.07 -0.01,-0.15 -0.02,-0.24 -0.01,-0.08 -0.01,-0.17 -0.01,-0.26 v -0.5 c 0,-0.34 0,-0.68 0.01,-1.01 0.01,-0.33 0.01,-0.67 0.01,-1.01 0,-0.06 0.02,-0.08 0.04,-0.09 0.05,-0.03 0.1,-0.05 0.16,-0.06 0.07,-0.01 0.15,-0.01 0.23,-0.01 0.09,0 0.15,0.01 0.21,0.01 h 0.31 c 0.17,0 0.36,0.01 0.57,0.02 0.2,0.01 0.35,0.03 0.46,0.07 0.14,0.04 0.24,0.11 0.31,0.22 0.07,0.13 0.13,0.25 0.16,0.37 l 0.1,0.36 c 0.06,0.2 0.18,0.23 0.25,0.23 0.11,0 0.17,-0.05 0.2,-0.1 0.04,-0.05 0.06,-0.11 0.07,-0.18 0.01,-0.07 0.02,-0.14 0.01,-0.19 0,-0.05 -0.01,-0.1 -0.01,-0.15 0,-0.17 -0.01,-0.34 -0.02,-0.5 -0.01,-0.15 -0.02,-0.31 -0.02,-0.48 0,-0.17 0,-0.33 0.01,-0.48 0.01,-0.16 0.01,-0.33 0.01,-0.49 0,-0.05 -0.01,-0.11 -0.02,-0.17 -0.02,-0.14 -0.11,-0.18 -0.19,-0.18 -0.16,0 -0.24,0.08 -0.28,0.14 -0.04,0.07 -0.08,0.16 -0.1,0.26 -0.02,0.09 -0.05,0.18 -0.08,0.29 -0.03,0.09 -0.08,0.17 -0.14,0.23 -0.04,0.04 -0.11,0.08 -0.19,0.1 -0.09,0.03 -0.21,0.05 -0.34,0.07 -0.13,0.02 -0.26,0.03 -0.4,0.03 -0.14,0 -0.28,0.01 -0.4,0.01 h -0.41 c -0.09,0 -0.16,0 -0.24,0.01 h -0.03 c -0.05,0 -0.09,-0.01 -0.13,-0.02 -0.03,-0.01 -0.06,-0.04 -0.08,-0.07 -0.02,-0.02 -0.04,-0.08 -0.04,-0.22 0,-0.34 0,-0.68 0,-1.02 0,-0.34 -0.01,-0.68 -0.01,-1.02 0,-0.15 0.01,-0.29 0.03,-0.41 0.02,-0.1 0.08,-0.19 0.18,-0.27 0.05,-0.03 0.14,-0.06 0.34,-0.09 0.18,-0.02 0.34,-0.03 0.48,-0.03 h 0.25 c 0.08,0 0.19,0 0.33,0.01 0.14,0.01 0.28,0.01 0.43,0.02 0.15,0.01 0.29,0.02 0.42,0.04 0.13,0.02 0.23,0.04 0.3,0.06 0.14,0.05 0.24,0.13 0.29,0.25 0.06,0.13 0.1,0.27 0.13,0.4 0.03,0.14 0.06,0.27 0.09,0.38 0.04,0.15 0.15,0.23 0.31,0.23 0.09,0 0.15,-0.04 0.18,-0.08 0.03,-0.04 0.06,-0.1 0.06,-0.16 0.01,-0.05 0.01,-0.1 0.01,-0.16 V 7.87 c 0,-0.06 0,-0.16 0.01,-0.3 0,-0.14 0,-0.29 0,-0.44 -0.02,-0.21 -0.03,-0.34 -0.04,-0.46"
   id="path63" />
		<path
   class="st0"
   d="m 218.8,3.99 c 0.03,-0.32 0.07,-0.58 0.14,-0.77 0.05,-0.14 0.05,-0.29 -0.01,-0.44 -0.04,-0.12 -0.15,-0.27 -0.43,-0.27 -0.06,0 -0.15,0.03 -0.22,0.15 -0.04,0.07 -0.09,0.14 -0.15,0.22 -0.06,0.08 -0.13,0.15 -0.21,0.22 -0.07,0.06 -0.16,0.1 -0.26,0.12 -0.16,0.02 -0.31,0.03 -0.47,0.04 -0.68,0.02 -1.33,0.01 -1.94,0.02 -1.04,0.02 -2.26,0.02 -3.39,-0.01 -0.63,-0.02 -1.29,-0.04 -1.93,-0.07 -0.14,-0.01 -0.25,-0.04 -0.32,-0.09 -0.08,-0.06 -0.15,-0.12 -0.19,-0.18 -0.05,-0.07 -0.09,-0.13 -0.13,-0.18 -0.07,-0.1 -0.16,-0.12 -0.21,-0.12 -0.16,0 -0.29,0.04 -0.38,0.13 -0.09,0.08 -0.15,0.18 -0.19,0.3 -0.04,0.11 -0.07,0.24 -0.08,0.38 -0.01,0.13 -0.02,0.25 -0.03,0.37 -0.05,0.54 -0.12,0.96 -0.2,1.25 -0.09,0.31 -0.13,0.56 -0.13,0.74 0,0.15 0.04,0.25 0.12,0.31 0.07,0.06 0.17,0.09 0.3,0.09 0.08,0 0.16,-0.07 0.28,-0.27 0.09,-0.16 0.19,-0.32 0.28,-0.5 0.09,-0.18 0.18,-0.36 0.27,-0.53 0.1,-0.2 0.16,-0.28 0.18,-0.3 0.2,-0.19 0.4,-0.31 0.62,-0.38 0.22,-0.07 0.44,-0.1 0.67,-0.1 h 0.98 c 0.25,0 0.48,0.02 0.69,0.06 0.25,0.04 0.28,0.11 0.28,0.12 0.01,0.05 0.02,0.18 0.02,0.27 0,0.14 0.01,0.24 0.01,0.29 v 7.63 c 0,0.29 -0.02,0.53 -0.04,0.72 -0.03,0.18 -0.09,0.34 -0.17,0.46 -0.08,0.12 -0.21,0.21 -0.37,0.28 -0.17,0.07 -0.41,0.12 -0.72,0.15 -0.02,0.01 -0.07,0.01 -0.18,0.01 -0.12,0 -0.23,0.02 -0.34,0.06 -0.09,0.04 -0.2,0.12 -0.2,0.33 0,0.23 0.15,0.28 0.22,0.28 0.09,0.01 0.18,0.02 0.27,0.02 0.38,0 0.76,-0.01 1.13,-0.04 0.75,-0.05 1.62,-0.05 2.37,0 0.42,0.03 0.84,0.04 1.26,0.04 0.13,0 0.25,-0.01 0.33,-0.02 0.13,-0.02 0.19,-0.14 0.19,-0.36 0,-0.1 -0.05,-0.28 -0.36,-0.32 l -0.62,-0.07 c -0.22,-0.03 -0.44,-0.09 -0.63,-0.18 -0.18,-0.09 -0.29,-0.26 -0.34,-0.52 -0.03,-0.16 -0.05,-0.32 -0.05,-0.49 -0.01,-0.17 -0.01,-0.33 -0.01,-0.5 0.02,-0.92 0.02,-1.86 -0.01,-2.78 -0.03,-0.9 -0.03,-1.84 -0.01,-2.77 l 0.03,-1.92 c 0,-0.24 0.01,-0.41 0.04,-0.52 0.03,-0.13 0.06,-0.18 0.08,-0.2 0.03,-0.02 0.05,-0.04 0.09,-0.04 0.14,0.01 0.29,0.01 0.53,0 0.29,-0.01 0.69,-0.01 1.09,0.02 0.23,0.02 0.46,0.04 0.66,0.08 0.2,0.04 0.37,0.09 0.52,0.16 0.13,0.07 0.22,0.15 0.26,0.26 0.06,0.14 0.08,0.3 0.07,0.46 -0.01,0.18 -0.02,0.34 -0.04,0.49 -0.02,0.17 -0.02,0.3 0.01,0.41 0.02,0.08 0.08,0.23 0.31,0.23 0.14,0 0.33,-0.07 0.43,-0.42 0.07,-0.23 0.12,-0.51 0.16,-0.84 0.01,-0.31 0.04,-0.64 0.07,-0.97"
   id="path64" />
		<path
   class="st0"
   d="m 225.32,8.79 c -0.65,0 -1.15,0 -1.5,0.01 -0.36,0 -0.63,0.01 -0.81,0.01 h -0.28 L 223.2,7.7 c 0.14,-0.33 0.26,-0.62 0.36,-0.88 0.1,-0.26 0.21,-0.51 0.31,-0.76 0.08,-0.2 0.18,-0.42 0.29,-0.68 0.02,0.06 0.05,0.14 0.09,0.24 0.09,0.26 0.2,0.56 0.32,0.92 0.13,0.36 0.26,0.75 0.41,1.17 0.13,0.38 0.26,0.74 0.39,1.08 -0.02,-0.02 -0.04,-0.01 -0.05,0 m 5.16,5.3 c -0.13,-0.04 -0.28,-0.07 -0.45,-0.1 -0.16,-0.03 -0.33,-0.08 -0.5,-0.14 -0.15,-0.06 -0.26,-0.17 -0.35,-0.35 -0.53,-1.11 -1.05,-2.24 -1.53,-3.36 -0.47,-1.1 -0.94,-2.25 -1.39,-3.4 -0.24,-0.6 -0.49,-1.21 -0.74,-1.83 -0.25,-0.62 -0.5,-1.23 -0.74,-1.83 -0.02,-0.06 -0.06,-0.12 -0.11,-0.19 -0.06,-0.08 -0.15,-0.13 -0.25,-0.13 -0.12,0 -0.2,0.03 -0.24,0.1 -0.03,0.05 -0.06,0.11 -0.08,0.17 -0.39,0.96 -0.78,1.91 -1.17,2.85 -0.39,0.95 -0.78,1.9 -1.17,2.85 l -0.69,1.68 c -0.23,0.55 -0.45,1.11 -0.67,1.68 -0.03,0.07 -0.08,0.19 -0.13,0.34 -0.06,0.15 -0.12,0.31 -0.19,0.46 l -0.2,0.45 c -0.07,0.17 -0.11,0.23 -0.14,0.26 -0.08,0.13 -0.18,0.21 -0.29,0.24 -0.13,0.04 -0.25,0.07 -0.37,0.09 -0.13,0.02 -0.24,0.05 -0.33,0.1 -0.08,0.04 -0.18,0.14 -0.18,0.35 0,0.08 0.02,0.16 0.07,0.23 0.04,0.06 0.11,0.12 0.24,0.12 0.24,0 0.46,-0.02 0.67,-0.04 0.47,-0.06 1.08,-0.05 1.66,0.02 0.35,0.04 0.7,0.06 1.04,0.06 0.11,0 0.2,-0.04 0.29,-0.11 0.08,-0.08 0.13,-0.18 0.13,-0.29 0,-0.2 -0.12,-0.34 -0.33,-0.39 -0.16,-0.04 -0.35,-0.06 -0.57,-0.09 -0.2,-0.02 -0.38,-0.06 -0.54,-0.12 -0.08,-0.03 -0.19,-0.1 -0.19,-0.33 0,-0.02 0.01,-0.1 0.1,-0.42 0.07,-0.24 0.16,-0.54 0.28,-0.89 0.11,-0.35 0.26,-0.75 0.42,-1.19 0.15,-0.41 0.32,-0.84 0.51,-1.27 0.12,-0.03 0.27,-0.04 0.45,-0.05 0.42,-0.02 0.85,-0.02 1.25,-0.01 0.21,0.01 0.37,0.01 0.5,0.01 h 0.3 c 0.17,0 0.34,0.01 0.51,0.02 0.15,0.01 0.25,0.05 0.32,0.12 0,0 0.02,0.02 0.06,0.13 0.04,0.09 0.08,0.18 0.14,0.28 0.16,0.38 0.31,0.75 0.46,1.1 0.15,0.36 0.28,0.68 0.39,0.97 l 0.3,0.77 c 0.08,0.21 0.14,0.37 0.17,0.47 l 0.03,0.1 c 0.01,0.03 0.01,0.05 0.01,0.08 0,0.17 -0.08,0.22 -0.15,0.24 -0.14,0.04 -0.29,0.07 -0.48,0.08 -0.19,0.01 -0.36,0.03 -0.5,0.05 -0.26,0.04 -0.3,0.2 -0.3,0.3 0,0.12 0.05,0.23 0.14,0.31 0.09,0.08 0.2,0.12 0.32,0.12 0.37,0 0.74,-0.02 1.1,-0.05 0.61,-0.05 1.22,-0.08 1.83,0 0.25,0.03 0.51,0.05 0.77,0.05 h 0.17 c 0.11,0 0.23,-0.02 0.35,-0.06 0.2,-0.07 0.23,-0.21 0.23,-0.29 0.01,-0.14 -0.08,-0.27 -0.24,-0.32"
   id="path65" />
		<path
   class="st0"
   d="m 238.23,8.13 c -0.25,0.17 -0.56,0.3 -0.92,0.36 -0.36,0.07 -0.75,0.1 -1.16,0.1 -0.18,0 -0.31,-0.01 -0.39,-0.04 -0.08,-0.03 -0.1,-0.07 -0.11,-0.1 -0.02,-0.06 -0.03,-0.14 -0.02,-0.24 0,-0.11 0.01,-0.25 0.01,-0.41 0,-0.42 0,-0.89 0.02,-1.42 0.01,-0.53 0.02,-1 0.02,-1.42 V 4.42 c 0,-0.23 0.05,-0.4 0.15,-0.51 0.07,-0.07 0.23,-0.16 0.65,-0.16 0.38,0 0.73,0.05 1.04,0.16 0.31,0.11 0.58,0.26 0.81,0.47 0.23,0.21 0.41,0.46 0.54,0.76 0.13,0.3 0.2,0.66 0.2,1.06 0,0.49 -0.07,0.89 -0.22,1.2 -0.16,0.32 -0.37,0.56 -0.62,0.73 m 5.18,6.72 c -0.11,-0.02 -0.23,-0.06 -0.35,-0.12 -0.42,-0.09 -0.8,-0.28 -1.12,-0.57 -0.33,-0.29 -0.63,-0.64 -0.9,-1.03 -0.27,-0.39 -0.52,-0.81 -0.73,-1.26 -0.22,-0.45 -0.43,-0.87 -0.62,-1.27 -0.2,-0.41 -0.39,-0.75 -0.59,-1.04 -0.15,-0.23 -0.31,-0.39 -0.47,-0.5 0.22,-0.11 0.44,-0.24 0.67,-0.38 0.28,-0.18 0.54,-0.39 0.77,-0.63 0.23,-0.24 0.42,-0.51 0.57,-0.81 0.15,-0.3 0.22,-0.63 0.22,-0.98 0,-0.63 -0.12,-1.16 -0.36,-1.58 -0.24,-0.41 -0.54,-0.74 -0.9,-0.98 -0.35,-0.24 -0.74,-0.41 -1.15,-0.5 -0.4,-0.09 -0.79,-0.14 -1.14,-0.14 -0.41,0 -0.81,0.01 -1.21,0.02 -0.39,0.02 -0.8,0.02 -1.2,0.02 h -1.37 c -0.11,0 -0.23,-0.01 -0.35,-0.02 -0.25,-0.02 -0.5,-0.03 -0.72,0.03 -0.09,0.02 -0.24,0.09 -0.24,0.35 0,0.14 0.07,0.23 0.19,0.28 0.09,0.03 0.21,0.06 0.35,0.07 0.13,0.01 0.27,0.02 0.42,0.03 0.14,0.01 0.27,0.04 0.39,0.08 0.11,0.04 0.2,0.11 0.28,0.21 0.07,0.1 0.11,0.24 0.11,0.43 0,0.88 -0.01,1.77 -0.02,2.66 -0.02,0.89 -0.02,1.79 -0.02,2.67 v 3.25 c 0,0.2 -0.04,0.36 -0.11,0.47 -0.08,0.11 -0.17,0.2 -0.29,0.27 -0.12,0.07 -0.25,0.11 -0.39,0.14 -0.15,0.03 -0.28,0.05 -0.42,0.07 -0.13,0.02 -0.25,0.05 -0.34,0.07 -0.17,0.05 -0.19,0.17 -0.19,0.24 0,0.19 0.03,0.29 0.11,0.34 0.06,0.04 0.16,0.05 0.32,0.05 0.33,0 0.66,-0.02 0.98,-0.05 0.67,-0.07 1.38,-0.06 2.07,0.01 0.37,0.04 0.76,0.05 1.14,0.05 0.23,0 0.39,-0.02 0.5,-0.05 0.09,-0.03 0.23,-0.11 0.23,-0.36 0,-0.13 -0.07,-0.22 -0.18,-0.25 -0.08,-0.02 -0.17,-0.04 -0.26,-0.04 -0.06,0 -0.08,-0.01 -0.08,-0.01 l -0.02,-0.01 c -0.22,-0.04 -0.4,-0.07 -0.58,-0.09 -0.16,-0.02 -0.29,-0.06 -0.4,-0.12 -0.1,-0.05 -0.18,-0.14 -0.24,-0.26 -0.06,-0.12 -0.09,-0.32 -0.09,-0.57 V 9.79 c 0,-0.31 0.04,-0.42 0.06,-0.46 0.01,-0.02 0.07,-0.08 0.3,-0.08 0.36,0 0.66,0.09 0.9,0.27 0.25,0.18 0.47,0.41 0.65,0.69 0.19,0.28 0.36,0.6 0.51,0.95 0.15,0.36 0.32,0.71 0.49,1.04 0.32,0.83 0.79,1.54 1.4,2.12 0.62,0.58 1.39,0.95 2.3,1.11 0.07,0.01 0.16,0.02 0.27,0.03 0.11,0.01 0.22,0.02 0.33,0.02 0.28,0 0.47,-0.02 0.6,-0.07 l 0.04,-0.02 c 0.12,-0.12 0.17,-0.21 0.17,-0.31 -0.03,-0.04 -0.06,-0.18 -0.29,-0.23"
   id="path66" />
		<path
   class="st0"
   d="m 253.88,2.51 c -0.06,0 -0.15,0.03 -0.22,0.15 -0.04,0.07 -0.09,0.14 -0.15,0.22 -0.06,0.08 -0.13,0.15 -0.21,0.22 -0.07,0.06 -0.16,0.1 -0.26,0.12 -0.15,0.02 -0.31,0.03 -0.47,0.04 -0.69,0.02 -1.32,0.01 -1.94,0.02 -1.04,0.03 -2.26,0.02 -3.39,-0.01 C 246.61,3.25 245.95,3.23 245.3,3.2 245.16,3.19 245.05,3.16 244.98,3.11 244.9,3.05 244.84,3 244.79,2.93 244.74,2.86 244.7,2.81 244.66,2.75 c -0.07,-0.1 -0.15,-0.12 -0.21,-0.12 -0.16,0 -0.29,0.04 -0.38,0.13 -0.09,0.08 -0.15,0.18 -0.19,0.3 -0.04,0.11 -0.06,0.24 -0.08,0.38 l -0.03,0.37 c -0.05,0.54 -0.12,0.96 -0.2,1.25 -0.09,0.31 -0.13,0.55 -0.13,0.74 0,0.15 0.04,0.25 0.12,0.31 0.07,0.06 0.17,0.08 0.3,0.08 0.08,0 0.16,-0.07 0.28,-0.27 0.1,-0.16 0.19,-0.33 0.28,-0.5 0.09,-0.17 0.17,-0.33 0.24,-0.48 l 0.03,-0.05 c 0.1,-0.2 0.16,-0.28 0.18,-0.31 0.2,-0.19 0.41,-0.32 0.62,-0.38 0.21,-0.06 0.44,-0.1 0.67,-0.1 h 0.98 c 0.25,0 0.48,0.02 0.69,0.05 0.2,0.03 0.28,0.08 0.28,0.12 0.01,0.04 0.02,0.13 0.02,0.27 0.01,0.14 0.01,0.24 0.01,0.29 v 7.63 c 0,0.29 -0.02,0.53 -0.04,0.73 -0.03,0.18 -0.09,0.34 -0.17,0.46 -0.08,0.11 -0.21,0.21 -0.37,0.27 -0.17,0.07 -0.41,0.12 -0.72,0.15 -0.02,0.01 -0.07,0.01 -0.18,0.01 -0.11,0 -0.23,0.02 -0.34,0.06 -0.09,0.04 -0.2,0.12 -0.2,0.33 0,0.23 0.15,0.28 0.22,0.29 0.09,0.01 0.18,0.02 0.27,0.02 0.38,0 0.76,-0.01 1.13,-0.04 0.75,-0.05 1.61,-0.05 2.37,0 0.42,0.03 0.84,0.04 1.26,0.04 0.13,0 0.25,-0.01 0.33,-0.02 0.13,-0.02 0.19,-0.14 0.19,-0.36 0,-0.1 -0.05,-0.28 -0.36,-0.32 l -0.62,-0.07 c -0.22,-0.02 -0.43,-0.09 -0.63,-0.18 -0.18,-0.09 -0.29,-0.26 -0.34,-0.52 -0.03,-0.16 -0.05,-0.33 -0.05,-0.49 -0.01,-0.17 -0.01,-0.33 -0.01,-0.5 0.02,-0.93 0.02,-1.87 -0.01,-2.78 -0.03,-0.9 -0.03,-1.83 -0.01,-2.77 l 0.03,-1.92 c 0,-0.24 0.01,-0.41 0.04,-0.52 0.03,-0.13 0.07,-0.18 0.09,-0.2 0.02,-0.03 0.05,-0.04 0.09,-0.04 0.14,0.01 0.29,0.01 0.53,0 0.29,-0.01 0.69,-0.01 1.09,0.02 0.23,0.02 0.46,0.04 0.66,0.08 0.2,0.04 0.38,0.09 0.52,0.17 0.13,0.07 0.22,0.15 0.26,0.26 0.06,0.14 0.08,0.3 0.07,0.46 -0.01,0.18 -0.02,0.34 -0.04,0.49 -0.02,0.17 -0.02,0.3 0.01,0.41 0.02,0.08 0.08,0.22 0.31,0.22 0.21,0 0.35,-0.14 0.43,-0.42 0.07,-0.23 0.12,-0.51 0.16,-0.84 0.03,-0.31 0.07,-0.63 0.09,-0.97 0.03,-0.32 0.07,-0.58 0.14,-0.77 0.05,-0.14 0.05,-0.28 -0.01,-0.44 -0.06,-0.1 -0.17,-0.25 -0.45,-0.25"
   id="path67" />
		<path
   class="st0"
   d="M 268.63,3.12 268.6,3.11 c -0.28,0 -0.57,0.01 -0.86,0.02 -0.55,0.03 -1.11,0.03 -1.66,-0.01 -0.28,-0.02 -0.56,-0.03 -0.83,-0.03 -0.09,0 -0.18,0.01 -0.26,0.04 -0.07,0.02 -0.18,0.08 -0.18,0.28 0,0.23 0.11,0.34 0.2,0.39 0.11,0.06 0.24,0.11 0.39,0.14 0.14,0.03 0.29,0.05 0.44,0.07 0.13,0.02 0.23,0.06 0.31,0.13 0.08,0.07 0.13,0.21 0.16,0.41 0.03,0.22 0.05,0.47 0.05,0.75 0,0.28 0,0.58 -0.02,0.88 -0.01,0.31 -0.02,0.58 -0.02,0.82 v 3.37 c 0,0.3 -0.03,0.6 -0.09,0.9 -0.09,0.52 -0.22,0.97 -0.39,1.33 -0.16,0.35 -0.37,0.64 -0.63,0.86 -0.25,0.22 -0.57,0.38 -0.94,0.48 -0.37,0.1 -0.83,0.15 -1.36,0.15 -0.44,0 -0.85,-0.05 -1.21,-0.14 -0.35,-0.09 -0.66,-0.25 -0.91,-0.48 -0.26,-0.23 -0.47,-0.55 -0.62,-0.96 -0.16,-0.41 -0.26,-0.94 -0.3,-1.58 -0.02,-0.31 -0.03,-0.63 -0.04,-0.97 -0.01,-0.33 -0.01,-0.65 -0.01,-0.98 v -2.9 c 0,-0.16 0,-0.32 0.01,-0.5 0.01,-0.17 0.02,-0.35 0.03,-0.51 0.02,-0.17 0.03,-0.32 0.05,-0.45 0.02,-0.13 0.04,-0.23 0.07,-0.29 0.06,-0.14 0.16,-0.23 0.31,-0.28 0.17,-0.05 0.35,-0.09 0.52,-0.12 0.18,-0.03 0.35,-0.07 0.49,-0.11 0.18,-0.06 0.28,-0.19 0.28,-0.38 0,-0.16 -0.09,-0.27 -0.27,-0.3 -0.13,-0.02 -0.24,-0.03 -0.33,-0.03 -0.37,0 -0.73,0.02 -1.09,0.05 -0.66,0.06 -1.38,0.07 -2.06,0 -0.33,-0.03 -0.67,-0.05 -1.01,-0.05 -0.26,0 -0.41,0.15 -0.41,0.4 0,0.1 0.04,0.19 0.13,0.25 0.07,0.05 0.15,0.08 0.24,0.1 0.08,0.02 0.16,0.03 0.25,0.03 0.08,0.01 0.15,0.01 0.2,0.01 h 0.17 c 0.18,0 0.32,0.05 0.41,0.14 0.1,0.1 0.17,0.23 0.21,0.38 0.05,0.15 0.07,0.32 0.08,0.51 0,0.19 0.01,0.35 0.01,0.5 0,0.9 -0.01,1.79 -0.03,2.65 -0.02,0.89 -0.03,1.78 -0.03,2.65 v 0.58 c 0,0.09 0,0.19 0.01,0.29 0.01,0.09 0.01,0.19 0.02,0.29 0.06,0.62 0.22,1.14 0.47,1.55 0.25,0.41 0.57,0.74 0.96,0.99 0.39,0.25 0.83,0.42 1.32,0.53 0.49,0.1 1.01,0.15 1.55,0.15 0.45,0 0.93,-0.03 1.4,-0.1 0.48,-0.07 0.94,-0.19 1.39,-0.36 0.52,-0.2 0.93,-0.5 1.21,-0.88 0.28,-0.37 0.49,-0.8 0.63,-1.27 0.14,-0.46 0.22,-0.95 0.25,-1.46 0.03,-0.51 0.04,-1 0.04,-1.46 0,-0.28 0,-0.57 -0.01,-0.85 -0.01,-0.28 -0.01,-0.57 -0.01,-0.85 0,-0.31 0,-0.68 -0.01,-1.1 -0.01,-0.42 -0.01,-0.82 0,-1.21 0.01,-0.38 0.02,-0.72 0.05,-1.01 0.04,-0.38 0.11,-0.42 0.11,-0.43 0.02,-0.01 0.08,-0.04 0.27,-0.07 0.16,-0.02 0.32,-0.05 0.49,-0.09 0.18,-0.04 0.33,-0.09 0.46,-0.16 0.2,-0.1 0.24,-0.25 0.24,-0.35 0.03,-0.12 -0.02,-0.26 -0.26,-0.34"
   id="path68" />
	</g>
</g></g></g><style
     type="text/css"
     id="style1">
	.st0{fill:#FFFFFF;}
	.st1{enable-background:new    ;}
</style><style
     type="text/css"
     id="style1-9">
	.st0{fill:#2C5697;}
</style></svg>
