<?xml version="1.0" encoding="UTF-8" standalone="no"?>
<!-- Created with Inkscape (http://www.inkscape.org/) -->

<svg
   width="150.30157mm"
   height="128.32982mm"
   viewBox="0 0 150.30157 128.32982"
   version="1.1"
   id="svg1"
   xml:space="preserve"
   xmlns:inkscape="http://www.inkscape.org/namespaces/inkscape"
   xmlns:sodipodi="http://sodipodi.sourceforge.net/DTD/sodipodi-0.dtd"
   xmlns="http://www.w3.org/2000/svg"
   xmlns:svg="http://www.w3.org/2000/svg"><sodipodi:namedview
     id="namedview1"
     pagecolor="#ffffff"
     bordercolor="#000000"
     borderopacity="0.25"
     inkscape:showpageshadow="2"
     inkscape:pageopacity="0.0"
     inkscape:pagecheckerboard="0"
     inkscape:deskcolor="#d1d1d1"
     inkscape:document-units="mm" /><defs
     id="defs1"><clipPath
       clipPathUnits="userSpaceOnUse"
       id="clipPath3"><path
         d="M 0,841.89 H 595.276 V 0 H 0 Z"
         transform="translate(-468.62571,-261.9472)"
         id="path3" /></clipPath><clipPath
       clipPathUnits="userSpaceOnUse"
       id="clipPath8"><path
         d="M 0,841.89 H 595.276 V 0 H 0 Z"
         transform="translate(-206.1421,-230.9797)"
         id="path8" /></clipPath><clipPath
       clipPathUnits="userSpaceOnUse"
       id="clipPath10"><path
         d="M 0,841.89 H 595.276 V 0 H 0 Z"
         transform="translate(-219.2437,-220.8019)"
         id="path10" /></clipPath><clipPath
       clipPathUnits="userSpaceOnUse"
       id="clipPath12"><path
         d="M 0,841.89 H 595.276 V 0 H 0 Z"
         transform="translate(-235.16941,-220.8019)"
         id="path12" /></clipPath><clipPath
       clipPathUnits="userSpaceOnUse"
       id="clipPath14"><path
         d="M 0,841.89 H 595.276 V 0 H 0 Z"
         transform="translate(-252.1519,-229.2658)"
         id="path14" /></clipPath><clipPath
       clipPathUnits="userSpaceOnUse"
       id="clipPath16"><path
         d="M 0,841.89 H 595.276 V 0 H 0 Z"
         transform="translate(-276.7339,-222.2785)"
         id="path16" /></clipPath><clipPath
       clipPathUnits="userSpaceOnUse"
       id="clipPath18"><path
         d="M 0,841.89 H 595.276 V 0 H 0 Z"
         transform="translate(-287.56401,-221.1574)"
         id="path18" /></clipPath><clipPath
       clipPathUnits="userSpaceOnUse"
       id="clipPath20"><path
         d="M 0,841.89 H 595.276 V 0 H 0 Z"
         transform="translate(-310.42771,-220.74921)"
         id="path20" /></clipPath><clipPath
       clipPathUnits="userSpaceOnUse"
       id="clipPath22"><path
         d="M 0,841.89 H 595.276 V 0 H 0 Z"
         transform="translate(-331.12991,-234.77661)"
         id="path22" /></clipPath><clipPath
       clipPathUnits="userSpaceOnUse"
       id="clipPath24"><path
         d="M 0,841.89 H 595.276 V 0 H 0 Z"
         transform="translate(-351.78321,-230.9797)"
         id="path24" /></clipPath><clipPath
       clipPathUnits="userSpaceOnUse"
       id="clipPath26"><path
         d="M 0,841.89 H 595.276 V 0 H 0 Z"
         transform="translate(-368.59371,-234.47281)"
         id="path26" /></clipPath><clipPath
       clipPathUnits="userSpaceOnUse"
       id="clipPath28"><path
         d="M 0,841.89 H 595.276 V 0 H 0 Z"
         transform="translate(-375.76371,-221.1574)"
         id="path28" /></clipPath><clipPath
       clipPathUnits="userSpaceOnUse"
       id="clipPath30"><path
         d="M 0,841.89 H 595.276 V 0 H 0 Z"
         transform="translate(-411.99901,-221.1574)"
         id="path30" /></clipPath><clipPath
       clipPathUnits="userSpaceOnUse"
       id="clipPath32"><path
         d="M 0,841.89 H 595.276 V 0 H 0 Z"
         transform="translate(-423.17381,-230.9797)"
         id="path32" /></clipPath><clipPath
       clipPathUnits="userSpaceOnUse"
       id="clipPath34"><path
         d="M 0,841.89 H 595.276 V 0 H 0 Z"
         transform="translate(-444.02341,-221.1574)"
         id="path34" /></clipPath><clipPath
       clipPathUnits="userSpaceOnUse"
       id="clipPath36"><path
         d="M 0,841.89 H 595.276 V 0 H 0 Z"
         transform="translate(-453.34371,-229.2658)"
         id="path36" /></clipPath><clipPath
       clipPathUnits="userSpaceOnUse"
       id="clipPath38"><path
         d="M 0,841.89 H 595.276 V 0 H 0 Z"
         transform="translate(-192.4492,-115.17111)"
         id="path38" /></clipPath><clipPath
       clipPathUnits="userSpaceOnUse"
       id="clipPath40"><path
         d="M 0,841.89 H 595.276 V 0 H 0 Z"
         transform="translate(-202.62991,-118.7512)"
         id="path40" /></clipPath><clipPath
       clipPathUnits="userSpaceOnUse"
       id="clipPath42"><path
         d="M 0,841.89 H 595.276 V 0 H 0 Z"
         transform="translate(-217.06741,-129.3517)"
         id="path42" /></clipPath><clipPath
       clipPathUnits="userSpaceOnUse"
       id="clipPath44"><path
         d="M 0,841.89 H 595.276 V 0 H 0 Z"
         transform="translate(-229.42381,-122.9787)"
         id="path44" /></clipPath><clipPath
       clipPathUnits="userSpaceOnUse"
       id="clipPath46"><path
         d="M 0,841.89 H 595.276 V 0 H 0 Z"
         transform="translate(-250.8496,-120.8967)"
         id="path46" /></clipPath><clipPath
       clipPathUnits="userSpaceOnUse"
       id="clipPath48"><path
         d="M 0,841.89 H 595.276 V 0 H 0 Z"
         transform="translate(-258.96091,-134.925)"
         id="path48" /></clipPath><clipPath
       clipPathUnits="userSpaceOnUse"
       id="clipPath50"><path
         d="M 0,841.89 H 595.276 V 0 H 0 Z"
         transform="translate(-260.47461,-115.17111)"
         id="path50" /></clipPath><clipPath
       clipPathUnits="userSpaceOnUse"
       id="clipPath52"><path
         d="M 0,841.89 H 595.276 V 0 H 0 Z"
         transform="translate(-197.8008,-147.74421)"
         id="path52" /></clipPath><clipPath
       clipPathUnits="userSpaceOnUse"
       id="clipPath54"><path
         d="M 0,841.89 H 595.276 V 0 H 0 Z"
         transform="translate(-237.88851,-195.153)"
         id="path54" /></clipPath><clipPath
       clipPathUnits="userSpaceOnUse"
       id="clipPath56"><path
         d="M 0,841.89 H 595.276 V 0 H 0 Z"
         transform="translate(-289.61161,-169.7103)"
         id="path56" /></clipPath><clipPath
       clipPathUnits="userSpaceOnUse"
       id="clipPath58"><path
         d="M 0,841.89 H 595.276 V 0 H 0 Z"
         transform="translate(-240.08731,-197.4565)"
         id="path58" /></clipPath><clipPath
       clipPathUnits="userSpaceOnUse"
       id="clipPath60"><path
         d="M 0,841.89 H 595.276 V 0 H 0 Z"
         transform="translate(-376.52021,-175.20471)"
         id="path60" /></clipPath><clipPath
       clipPathUnits="userSpaceOnUse"
       id="clipPath62"><path
         d="M 0,841.89 H 595.276 V 0 H 0 Z"
         transform="translate(-197.8008,-147.74421)"
         id="path62" /></clipPath><clipPath
       clipPathUnits="userSpaceOnUse"
       id="clipPath64"><path
         d="M 0,841.89 H 595.276 V 0 H 0 Z"
         transform="translate(-237.88851,-195.153)"
         id="path64" /></clipPath><clipPath
       clipPathUnits="userSpaceOnUse"
       id="clipPath66"><path
         d="M 0,841.89 H 595.276 V 0 H 0 Z"
         transform="translate(-289.61161,-169.7103)"
         id="path66" /></clipPath><clipPath
       clipPathUnits="userSpaceOnUse"
       id="clipPath68"><path
         d="M 0,841.89 H 595.276 V 0 H 0 Z"
         transform="translate(-240.08731,-197.4565)"
         id="path68" /></clipPath><clipPath
       clipPathUnits="userSpaceOnUse"
       id="clipPath70"><path
         d="m 266.357,134.887 h 207.822 v 43.362 H 266.357 Z m 142.708,32.231 v 9.271 c 3.578,-0.395 7.17,-0.934 10.712,-1.604 v 0 -8.389 c -3.604,0.388 -7.196,0.629 -10.712,0.722 m -79.048,-8.211 c 2.797,1.243 5.757,2.79 9.377,4.897 v 0 l 7.193,-14.231 c -0.903,-0.643 -1.781,-1.254 -2.629,-1.829 v 0 h -8.476 z"
         transform="translate(-376.52021,-175.20471)"
         id="path70" /></clipPath><clipPath
       clipPathUnits="userSpaceOnUse"
       id="clipPath181"><path
         d="M 0,841.89 H 595.276 V 0 H 0 Z"
         transform="translate(-189.26151,-166.2757)"
         id="path181" /></clipPath><clipPath
       clipPathUnits="userSpaceOnUse"
       id="clipPath271"><path
         d="M 0,841.89 H 595.276 V 0 H 0 Z"
         transform="translate(-143.0703,-228.88011)"
         id="path271" /></clipPath><clipPath
       clipPathUnits="userSpaceOnUse"
       id="clipPath273"><path
         d="M 0,841.89 H 595.276 V 0 H 0 Z"
         transform="translate(-160.3452,-232.1206)"
         id="path273" /></clipPath><clipPath
       clipPathUnits="userSpaceOnUse"
       id="clipPath275"><path
         d="M 0,841.89 H 595.276 V 0 H 0 Z"
         transform="translate(-153.75891,-243.1378)"
         id="path275" /></clipPath><clipPath
       clipPathUnits="userSpaceOnUse"
       id="clipPath277"><path
         d="M 0,841.89 H 595.276 V 0 H 0 Z"
         transform="translate(-160.7773,-248.3218)"
         id="path277" /></clipPath><clipPath
       clipPathUnits="userSpaceOnUse"
       id="clipPath279"><path
         d="M 0,841.89 H 595.276 V 0 H 0 Z"
         transform="translate(-157.43211,-257.50201)"
         id="path279" /></clipPath><clipPath
       clipPathUnits="userSpaceOnUse"
       id="clipPath281"><path
         d="M 0,841.89 H 595.276 V 0 H 0 Z"
         transform="translate(-171.5638,-262.4962)"
         id="path281" /></clipPath><clipPath
       clipPathUnits="userSpaceOnUse"
       id="clipPath283"><path
         d="M 0,841.89 H 595.276 V 0 H 0 Z"
         transform="translate(-156.1257,-275.02411)"
         id="path283" /></clipPath><clipPath
       clipPathUnits="userSpaceOnUse"
       id="clipPath285"><path
         d="M 0,841.89 H 595.276 V 0 H 0 Z"
         transform="translate(-177.1803,-273.94531)"
         id="path285" /></clipPath><clipPath
       clipPathUnits="userSpaceOnUse"
       id="clipPath287"><path
         d="M 0,841.89 H 595.276 V 0 H 0 Z"
         transform="translate(-192.19131,-340.75931)"
         id="path287" /></clipPath><clipPath
       clipPathUnits="userSpaceOnUse"
       id="clipPath289"><path
         d="M 0,841.89 H 595.276 V 0 H 0 Z"
         transform="translate(-161.3193,-226.288)"
         id="path289" /></clipPath><clipPath
       clipPathUnits="userSpaceOnUse"
       id="clipPath291"><path
         d="M 0,841.89 H 595.276 V 0 H 0 Z"
         transform="translate(-140.0409,-197.6086)"
         id="path291" /></clipPath><clipPath
       clipPathUnits="userSpaceOnUse"
       id="clipPath293"><path
         d="M 0,841.89 H 595.276 V 0 H 0 Z"
         transform="translate(-168.33291,-197.82531)"
         id="path293" /></clipPath><clipPath
       clipPathUnits="userSpaceOnUse"
       id="clipPath295"><path
         d="M 0,841.89 H 595.276 V 0 H 0 Z"
         transform="translate(-160.6873,-158.8797)"
         id="path295" /></clipPath><clipPath
       clipPathUnits="userSpaceOnUse"
       id="clipPath297"><path
         d="M 0,841.89 H 595.276 V 0 H 0 Z"
         transform="translate(-126.2421,-160.7164)"
         id="path297" /></clipPath><clipPath
       clipPathUnits="userSpaceOnUse"
       id="clipPath299"><path
         d="M 0,841.89 H 595.276 V 0 H 0 Z"
         transform="translate(-127.8624,-143.97381)"
         id="path299" /></clipPath><clipPath
       clipPathUnits="userSpaceOnUse"
       id="clipPath301"><path
         d="M 0,841.89 H 595.276 V 0 H 0 Z"
         transform="translate(-158.0739,-133.90701)"
         id="path301" /></clipPath><clipPath
       clipPathUnits="userSpaceOnUse"
       id="clipPath303"><path
         d="M 0,841.89 H 595.276 V 0 H 0 Z"
         transform="translate(-134.4267,-128.39751)"
         id="path303" /></clipPath><clipPath
       clipPathUnits="userSpaceOnUse"
       id="clipPath305"><path
         d="M 0,841.89 H 595.276 V 0 H 0 Z"
         transform="translate(-160.2358,-127.1028)"
         id="path305" /></clipPath><clipPath
       clipPathUnits="userSpaceOnUse"
       id="clipPath307"><path
         d="M 0,841.89 H 595.276 V 0 H 0 Z"
         transform="translate(-141.55401,-117.0573)"
         id="path307" /></clipPath><clipPath
       clipPathUnits="userSpaceOnUse"
       id="clipPath309"><path
         d="M 0,841.89 H 595.276 V 0 H 0 Z"
         transform="translate(-161.8512,-91.528502)"
         id="path309" /></clipPath><clipPath
       clipPathUnits="userSpaceOnUse"
       id="clipPath311"><path
         d="M 0,841.89 H 595.276 V 0 H 0 Z"
         transform="translate(-189.9247,-83.103977)"
         id="path311" /></clipPath><clipPath
       clipPathUnits="userSpaceOnUse"
       id="clipPath313"><path
         d="M 0,841.89 H 595.276 V 0 H 0 Z"
         transform="translate(-151.4832,-73.600727)"
         id="path313" /></clipPath></defs><g
     inkscape:label="Kiht 1"
     inkscape:groupmode="layer"
     id="layer1"
     transform="translate(-29.726516,-84.335088)"><g
       id="g1"
       inkscape:label="1"
       transform="matrix(0.26458333,0,0,0.26458335,221.35669,72.471559)"><path
         id="path2"
         d="m 0,0 -269.457,103.564 c -46.641,17.926 -96.758,-16.504 -96.758,-66.471 v -207.127 c 0,-49.967 50.117,-84.397 96.758,-66.471 L 0,-132.941 C 60.885,-109.541 60.885,-23.401 0,0"
         style="fill:#ffffff;fill-opacity:1;fill-rule:nonzero;stroke:#f1542d;stroke-width:14.173;stroke-linecap:butt;stroke-linejoin:miter;stroke-miterlimit:4;stroke-dasharray:none;stroke-opacity:1"
         transform="matrix(1.3333333,0,0,-1.3333333,-226.53622,198.72424)"
         clip-path="url(#clipPath3)" /><path
         id="path6"
         d="m -595.55609,231.92837 h -10.232 v 4.94 h 9.41467 v 4.992 h -9.41467 v 11.25067 h -6.09067 v -26.17467 h 16.32267 z"
         style="fill:#425672;fill-opacity:1;fill-rule:nonzero;stroke:none;stroke-width:1.33333" /><path
         id="path7"
         d="M 0,0 C 0,1.169 -0.112,2.164 -0.338,2.985 -0.563,3.808 -0.864,4.482 -1.24,5.01 -1.633,5.546 -2.077,5.93 -2.572,6.163 -3.068,6.396 -3.582,6.513 -4.113,6.513 -4.679,6.513 -5.19,6.404 -5.648,6.189 -6.107,5.974 -6.549,5.59 -6.975,5.036 -7.352,4.526 -7.656,3.85 -7.89,3.006 -8.123,2.162 -8.239,1.155 -8.239,-0.014 c 0,-1.204 0.11,-2.204 0.331,-2.999 0.221,-0.796 0.524,-1.461 0.909,-1.997 0.393,-0.545 0.839,-0.934 1.338,-1.167 0.5,-0.233 1.015,-0.349 1.548,-0.349 0.54,0 1.063,0.125 1.571,0.376 0.508,0.25 0.945,0.639 1.314,1.167 0.393,0.571 0.696,1.236 0.909,1.997 C -0.106,-2.227 0,-1.23 0,0 m 4.739,-0.014 c 0,-3.173 -0.79,-5.669 -2.369,-7.488 -1.58,-1.819 -3.745,-2.728 -6.496,-2.728 -2.759,0 -4.924,0.919 -6.495,2.761 -1.572,1.841 -2.358,4.326 -2.358,7.455 0,3.156 0.786,5.65 2.358,7.482 1.571,1.833 3.736,2.749 6.495,2.749 2.751,0 4.916,-0.912 6.496,-2.736 1.579,-1.824 2.369,-4.322 2.369,-7.495"
         style="fill:#425672;fill-opacity:1;fill-rule:nonzero;stroke:none"
         transform="matrix(1.3333333,0,0,-1.3333333,-576.51436,240.01424)"
         clip-path="url(#clipPath8)" /><path
         id="path9"
         d="m 0,0 c -1.399,0 -2.63,0.145 -3.689,0.435 -1.061,0.29 -2.045,0.65 -2.954,1.081 v 4.667 h 0.417 c 0.917,-0.835 1.928,-1.477 3.034,-1.925 1.105,-0.448 2.177,-0.672 3.216,-0.672 0.263,0 0.609,0.03 1.038,0.092 0.43,0.061 0.776,0.158 1.038,0.29 0.319,0.149 0.589,0.358 0.81,0.626 0.222,0.268 0.332,0.622 0.332,1.061 0,0.492 -0.18,0.893 -0.54,1.2 C 2.342,7.163 1.911,7.387 1.412,7.527 0.79,7.703 0.125,7.87 -0.583,8.028 c -0.708,0.159 -1.369,0.352 -1.983,0.58 -1.416,0.537 -2.431,1.257 -3.045,2.163 -0.615,0.905 -0.921,2.039 -0.921,3.401 0,1.837 0.724,3.324 2.174,4.463 1.448,1.137 3.257,1.707 5.426,1.707 1.089,0 2.172,-0.118 3.248,-0.356 1.077,-0.237 2.04,-0.558 2.892,-0.963 V 14.541 H 6.803 c -0.68,0.624 -1.508,1.151 -2.487,1.582 -0.978,0.431 -1.983,0.647 -3.014,0.647 -0.402,0 -0.761,-0.032 -1.08,-0.093 -0.32,-0.062 -0.656,-0.18 -1.007,-0.356 -0.287,-0.14 -0.534,-0.349 -0.743,-0.627 -0.209,-0.276 -0.314,-0.586 -0.314,-0.928 0,-0.501 0.166,-0.9 0.497,-1.194 0.332,-0.295 0.973,-0.56 1.922,-0.798 C 1.191,12.625 1.782,12.48 2.352,12.34 2.921,12.199 3.528,12.006 4.175,11.76 5.444,11.268 6.388,10.605 7.006,9.775 7.623,8.944 7.933,7.849 7.933,6.486 7.933,4.535 7.219,2.966 5.79,1.779 4.361,0.593 2.432,0 0,0"
         style="fill:#425672;fill-opacity:1;fill-rule:nonzero;stroke:none"
         transform="matrix(1.3333333,0,0,-1.3333333,-559.04556,253.58464)"
         clip-path="url(#clipPath10)" /><path
         id="path11"
         d="m 0,0 c -1.399,0 -2.63,0.145 -3.689,0.435 -1.061,0.29 -2.045,0.65 -2.954,1.081 v 4.667 h 0.417 c 0.917,-0.835 1.928,-1.477 3.034,-1.925 1.105,-0.448 2.177,-0.672 3.216,-0.672 0.263,0 0.609,0.03 1.038,0.092 0.43,0.061 0.776,0.158 1.038,0.29 0.319,0.149 0.589,0.358 0.81,0.626 0.222,0.268 0.332,0.622 0.332,1.061 0,0.492 -0.18,0.893 -0.54,1.2 C 2.342,7.163 1.911,7.387 1.412,7.527 0.79,7.703 0.125,7.87 -0.583,8.028 c -0.708,0.159 -1.369,0.352 -1.983,0.58 -1.416,0.537 -2.431,1.257 -3.045,2.163 -0.615,0.905 -0.921,2.039 -0.921,3.401 0,1.837 0.724,3.324 2.174,4.463 1.448,1.137 3.257,1.707 5.426,1.707 1.089,0 2.172,-0.118 3.248,-0.356 1.077,-0.237 2.04,-0.558 2.892,-0.963 V 14.541 H 6.803 c -0.68,0.624 -1.508,1.151 -2.487,1.582 -0.978,0.431 -1.983,0.647 -3.014,0.647 -0.402,0 -0.761,-0.032 -1.08,-0.093 -0.32,-0.062 -0.656,-0.18 -1.007,-0.356 -0.287,-0.14 -0.534,-0.349 -0.743,-0.627 -0.209,-0.276 -0.314,-0.586 -0.314,-0.928 0,-0.501 0.166,-0.9 0.497,-1.194 0.332,-0.295 0.973,-0.56 1.922,-0.798 C 1.191,12.625 1.782,12.48 2.352,12.34 2.921,12.199 3.528,12.006 4.175,11.76 5.444,11.268 6.388,10.605 7.006,9.775 7.623,8.944 7.933,7.849 7.933,6.486 7.933,4.535 7.219,2.966 5.79,1.779 4.361,0.593 2.432,0 0,0"
         style="fill:#425672;fill-opacity:1;fill-rule:nonzero;stroke:none"
         transform="matrix(1.3333333,0,0,-1.3333333,-537.81129,253.58464)"
         clip-path="url(#clipPath12)" /><path
         id="path13"
         d="M 0,0 V 6.684 L -4.63,0 Z M 6.9,-3.533 H 4.433 V -8.161 H 0 v 4.628 h -8.043 v 3.665 l 7.896,11.39 h 4.58 V 0 H 6.9 Z"
         style="fill:#425672;fill-opacity:1;fill-rule:nonzero;stroke:none"
         transform="matrix(1.3333333,0,0,-1.3333333,-515.16796,242.29944)"
         clip-path="url(#clipPath14)" /><path
         id="path15"
         d="m 0,0 c -0.802,-0.352 -1.844,-0.694 -3.125,-1.028 -1.281,-0.334 -2.544,-0.501 -3.788,-0.501 -2.873,0 -5.163,0.889 -6.87,2.669 -1.707,1.78 -2.561,4.304 -2.561,7.574 0,3.076 0.854,5.542 2.561,7.396 1.707,1.855 4.042,2.782 7.005,2.782 1.531,0 2.775,-0.157 3.733,-0.468 0.958,-0.313 1.948,-0.737 2.972,-1.273 v -4.6 h -0.418 c -0.221,0.184 -0.538,0.445 -0.951,0.784 -0.414,0.338 -0.817,0.626 -1.21,0.863 -0.458,0.281 -0.989,0.524 -1.59,0.726 -0.602,0.202 -1.238,0.303 -1.909,0.303 -0.786,0 -1.503,-0.132 -2.15,-0.396 -0.646,-0.264 -1.223,-0.668 -1.731,-1.213 -0.483,-0.527 -0.865,-1.195 -1.148,-2.004 -0.282,-0.808 -0.424,-1.749 -0.424,-2.821 0,-2.294 0.537,-3.985 1.609,-5.075 1.072,-1.09 2.538,-1.635 4.395,-1.635 0.164,0 0.357,0.004 0.578,0.013 0.221,0.008 0.414,0.022 0.577,0.04 V 5.985 H -7.993 V 9.663 H 0 Z"
         style="fill:#425672;fill-opacity:1;fill-rule:nonzero;stroke:none"
         transform="matrix(1.3333333,0,0,-1.3333333,-482.39196,251.61584)"
         clip-path="url(#clipPath16)" /><path
         id="path17"
         d="M 0,0 V 19.631 H 12.365 V 15.887 H 4.568 V 12.445 H 11.75 V 8.701 H 4.568 V 3.744 h 7.797 V 0 Z"
         style="fill:#425672;fill-opacity:1;fill-rule:nonzero;stroke:none"
         transform="matrix(1.3333333,0,0,-1.3333333,-467.95182,253.11064)"
         clip-path="url(#clipPath18)" /><path
         id="path19"
         d="M 0,0 C -2.456,0 -4.345,0.637 -5.667,1.911 -6.989,3.186 -7.65,5.049 -7.65,7.501 v 12.538 h 4.592 V 7.791 c 0,-1.362 0.24,-2.377 0.718,-3.045 0.48,-0.668 1.259,-1.002 2.34,-1.002 1.056,0 1.831,0.32 2.326,0.962 0.496,0.642 0.743,1.67 0.743,3.085 V 20.039 H 7.662 V 7.515 C 7.662,5.098 7.018,3.24 5.728,1.944 4.438,0.647 2.529,0 0,0"
         style="fill:#425672;fill-opacity:1;fill-rule:nonzero;stroke:none"
         transform="matrix(1.3333333,0,0,-1.3333333,-437.46689,253.6549)"
         clip-path="url(#clipPath20)" /><path
         id="path21"
         d="M 0,0 C 0,0.492 -0.088,0.916 -0.264,1.271 -0.44,1.628 -0.732,1.902 -1.142,2.096 -1.429,2.228 -1.748,2.312 -2.1,2.347 -2.452,2.382 -2.89,2.399 -3.413,2.399 h -1.535 v -5.287 h 1.313 c 0.639,0 1.181,0.042 1.627,0.125 0.446,0.084 0.825,0.262 1.136,0.534 0.295,0.247 0.514,0.542 0.657,0.884 C -0.071,-1.002 0,-0.554 0,0 M 7.392,-13.619 H 1.793 l -5.096,7.198 h -1.645 v -7.198 H -9.517 V 6.012 h 7.356 c 1.015,0 1.899,-0.069 2.652,-0.205 C 1.244,5.671 1.94,5.388 2.579,4.957 3.233,4.509 3.753,3.939 4.138,3.249 4.522,2.56 4.715,1.683 4.715,0.619 4.715,-0.884 4.4,-2.104 3.77,-3.039 3.14,-3.976 2.296,-4.72 1.24,-5.273 Z"
         style="fill:#425672;fill-opacity:1;fill-rule:nonzero;stroke:none"
         transform="matrix(1.3333333,0,0,-1.3333333,-409.86396,234.9517)"
         clip-path="url(#clipPath22)" /><path
         id="path23"
         d="M 0,0 C 0,1.169 -0.112,2.164 -0.338,2.985 -0.563,3.808 -0.864,4.482 -1.24,5.01 -1.633,5.546 -2.077,5.93 -2.572,6.163 -3.068,6.396 -3.582,6.513 -4.113,6.513 -4.679,6.513 -5.19,6.404 -5.648,6.189 -6.107,5.974 -6.549,5.59 -6.975,5.036 -7.352,4.526 -7.656,3.85 -7.89,3.006 -8.123,2.162 -8.239,1.155 -8.239,-0.014 c 0,-1.204 0.11,-2.204 0.331,-2.999 0.221,-0.796 0.524,-1.461 0.909,-1.997 0.393,-0.545 0.839,-0.934 1.338,-1.167 0.5,-0.233 1.015,-0.349 1.548,-0.349 0.54,0 1.063,0.125 1.571,0.376 0.508,0.25 0.945,0.639 1.314,1.167 0.393,0.571 0.696,1.236 0.909,1.997 C -0.106,-2.227 0,-1.23 0,0 m 4.739,-0.014 c 0,-3.173 -0.79,-5.669 -2.369,-7.488 -1.58,-1.819 -3.745,-2.728 -6.496,-2.728 -2.759,0 -4.924,0.919 -6.495,2.761 -1.572,1.841 -2.358,4.326 -2.358,7.455 0,3.156 0.786,5.65 2.358,7.482 1.571,1.833 3.736,2.749 6.495,2.749 2.751,0 4.916,-0.912 6.496,-2.736 1.579,-1.824 2.369,-4.322 2.369,-7.495"
         style="fill:#425672;fill-opacity:1;fill-rule:nonzero;stroke:none"
         transform="matrix(1.3333333,0,0,-1.3333333,-382.32622,240.01424)"
         clip-path="url(#clipPath24)" /><path
         id="path25"
         d="M 0,0 C 0,0.554 -0.123,1.03 -0.369,1.431 -0.614,1.83 -0.909,2.105 -1.253,2.255 -1.687,2.457 -2.103,2.573 -2.499,2.604 -2.896,2.635 -3.435,2.65 -4.114,2.65 h -0.651 v -5.879 h 0.32 c 0.433,0 0.842,0.003 1.227,0.012 0.385,0.009 0.721,0.04 1.007,0.093 0.246,0.044 0.506,0.129 0.78,0.257 0.274,0.127 0.485,0.27 0.632,0.429 0.312,0.325 0.523,0.663 0.633,1.014 C -0.056,-1.072 0,-0.598 0,0 M 4.715,0.119 C 4.715,-0.795 4.58,-1.665 4.31,-2.491 4.039,-3.317 3.65,-4.008 3.143,-4.562 2.832,-4.904 2.49,-5.221 2.118,-5.511 1.745,-5.801 1.334,-6.047 0.884,-6.249 c -0.45,-0.202 -0.94,-0.36 -1.468,-0.475 -0.527,-0.114 -1.119,-0.171 -1.774,-0.171 h -2.407 v -6.42 h -4.592 v 19.63 h 7.097 c 1.056,0 1.967,-0.103 2.733,-0.31 C 1.237,5.799 1.932,5.472 2.554,5.023 3.241,4.531 3.773,3.874 4.15,3.052 4.526,2.23 4.715,1.253 4.715,0.119"
         style="fill:#425672;fill-opacity:1;fill-rule:nonzero;stroke:none"
         transform="matrix(1.3333333,0,0,-1.3333333,-359.91222,235.35677)"
         clip-path="url(#clipPath26)" /><path
         id="path27"
         d="M 0,0 V 19.631 H 12.365 V 15.887 H 4.568 v -3.442 h 7.183 V 8.701 H 4.568 V 3.744 h 7.797 V 0 Z"
         style="fill:#425672;fill-opacity:1;fill-rule:nonzero;stroke:none"
         transform="matrix(1.3333333,0,0,-1.3333333,-350.35222,253.11064)"
         clip-path="url(#clipPath28)" /><path
         id="path29"
         d="m 0,0 h -13.433 v 3.204 c 1.138,0.967 2.159,1.881 3.064,2.742 0.904,0.862 1.7,1.679 2.388,2.452 0.892,1.011 1.539,1.899 1.94,2.664 0.401,0.764 0.602,1.55 0.602,2.359 0,0.914 -0.254,1.615 -0.761,2.102 -0.508,0.489 -1.216,0.733 -2.125,0.733 -0.466,0 -0.906,-0.062 -1.32,-0.185 -0.414,-0.123 -0.833,-0.281 -1.258,-0.474 -0.418,-0.202 -0.774,-0.409 -1.069,-0.62 -0.295,-0.211 -0.515,-0.37 -0.663,-0.475 h -0.356 v 4.285 c 0.515,0.264 1.322,0.533 2.419,0.811 1.097,0.276 2.153,0.415 3.168,0.415 2.17,0 3.813,-0.519 4.93,-1.556 1.118,-1.037 1.676,-2.496 1.676,-4.377 0,-1.16 -0.254,-2.296 -0.762,-3.408 C -2.066,9.561 -2.91,8.367 -4.089,7.093 -4.825,6.311 -5.542,5.614 -6.237,5.003 -6.934,4.393 -7.437,3.96 -7.748,3.705 H 0 Z"
         style="fill:#425672;fill-opacity:1;fill-rule:nonzero;stroke:none"
         transform="matrix(1.3333333,0,0,-1.3333333,-302.03849,253.11064)"
         clip-path="url(#clipPath30)" /><path
         id="path31"
         d="m 0,0 c 0,2.426 -0.186,4.128 -0.559,5.108 -0.372,0.98 -1.001,1.47 -1.884,1.47 -0.876,0 -1.502,-0.49 -1.879,-1.47 -0.376,-0.98 -0.565,-2.691 -0.565,-5.134 0,-2.391 0.189,-4.085 0.565,-5.083 0.377,-0.997 1.003,-1.496 1.879,-1.496 0.876,0 1.502,0.499 1.879,1.496 C -0.188,-4.111 0,-2.408 0,0 M 4.604,0 C 4.604,-1.696 4.478,-3.182 4.225,-4.456 3.971,-5.73 3.565,-6.794 3.009,-7.646 2.452,-8.499 1.728,-9.144 0.835,-9.578 c -0.892,-0.436 -1.985,-0.652 -3.278,-0.652 -1.286,0 -2.374,0.216 -3.267,0.652 -0.892,0.434 -1.62,1.088 -2.186,1.958 -0.556,0.861 -0.961,1.922 -1.214,3.183 -0.254,1.261 -0.381,2.736 -0.381,4.423 0,1.741 0.124,3.226 0.374,4.456 0.25,1.231 0.665,2.29 1.246,3.178 0.573,0.87 1.31,1.518 2.211,1.944 0.9,0.426 1.972,0.64 3.217,0.64 1.318,0 2.417,-0.223 3.297,-0.666 C 1.733,9.094 2.456,8.433 3.021,7.554 3.577,6.692 3.98,5.629 4.23,4.363 4.48,3.098 4.604,1.644 4.604,0"
         style="fill:#425672;fill-opacity:1;fill-rule:nonzero;stroke:none"
         transform="matrix(1.3333333,0,0,-1.3333333,-287.13876,240.01424)"
         clip-path="url(#clipPath32)" /><path
         id="path33"
         d="m 0,0 h -13.433 v 3.204 c 1.138,0.967 2.159,1.881 3.064,2.742 0.904,0.862 1.7,1.679 2.388,2.452 0.892,1.011 1.539,1.899 1.94,2.664 0.401,0.764 0.602,1.55 0.602,2.359 0,0.914 -0.254,1.615 -0.761,2.102 -0.508,0.489 -1.216,0.733 -2.125,0.733 -0.466,0 -0.906,-0.062 -1.32,-0.185 -0.414,-0.123 -0.833,-0.281 -1.258,-0.474 -0.418,-0.202 -0.774,-0.409 -1.069,-0.62 -0.295,-0.211 -0.515,-0.37 -0.663,-0.475 h -0.356 v 4.285 c 0.515,0.264 1.322,0.533 2.419,0.811 1.097,0.276 2.153,0.415 3.168,0.415 2.17,0 3.813,-0.519 4.93,-1.556 1.118,-1.037 1.676,-2.496 1.676,-4.377 0,-1.16 -0.254,-2.296 -0.762,-3.408 C -2.066,9.561 -2.91,8.367 -4.089,7.093 -4.825,6.311 -5.542,5.614 -6.237,5.003 -6.934,4.393 -7.437,3.96 -7.748,3.705 H 0 Z"
         style="fill:#425672;fill-opacity:1;fill-rule:nonzero;stroke:none"
         transform="matrix(1.3333333,0,0,-1.3333333,-259.33929,253.11064)"
         clip-path="url(#clipPath34)" /><path
         id="path35"
         d="M 0,0 V 6.684 L -4.63,0 Z M 6.9,-3.533 H 4.433 V -8.161 H 0 v 4.628 h -8.043 v 3.665 l 7.896,11.39 h 4.58 V 0 H 6.9 Z"
         style="fill:#425672;fill-opacity:1;fill-rule:nonzero;stroke:none"
         transform="matrix(1.3333333,0,0,-1.3333333,-246.91222,242.29944)"
         clip-path="url(#clipPath36)" /><path
         id="path37"
         d="m 0,0 h -12.937 v 3.085 c 1.096,0.931 2.08,1.811 2.951,2.641 0.871,0.829 1.637,1.616 2.299,2.361 0.86,0.973 1.483,1.828 1.869,2.564 0.386,0.737 0.58,1.494 0.58,2.273 0,0.88 -0.245,1.555 -0.734,2.024 -0.489,0.47 -1.171,0.705 -2.046,0.705 -0.449,0 -0.873,-0.059 -1.27,-0.177 -0.399,-0.12 -0.803,-0.272 -1.212,-0.457 -0.402,-0.196 -0.745,-0.394 -1.029,-0.597 -0.284,-0.203 -0.496,-0.356 -0.639,-0.457 h -0.343 v 4.126 c 0.497,0.254 1.274,0.513 2.329,0.78 1.057,0.267 2.074,0.4 3.051,0.4 2.089,0 3.672,-0.5 4.748,-1.498 1.076,-0.999 1.614,-2.404 1.614,-4.214 0,-1.118 -0.245,-2.211 -0.733,-3.283 C -1.991,9.206 -2.803,8.057 -3.938,6.83 -4.647,6.076 -5.337,5.406 -6.007,4.817 -6.678,4.229 -7.162,3.813 -7.462,3.567 H 0 Z"
         style="fill:#425672;fill-opacity:1;fill-rule:nonzero;stroke:none"
         transform="matrix(1.3333333,0,0,-1.3333333,-594.77156,394.4257)"
         clip-path="url(#clipPath38)" /><path
         id="path39"
         d="m 0,0 c 0.229,0.305 0.403,0.637 0.525,0.996 0.123,0.36 0.184,0.903 0.184,1.632 0,0.609 -0.07,1.112 -0.213,1.511 C 0.354,4.536 0.153,4.854 -0.106,5.091 -0.367,5.327 -0.662,5.49 -0.993,5.579 -1.324,5.668 -1.676,5.713 -2.046,5.713 -2.354,5.713 -2.671,5.67 -2.998,5.586 -3.325,5.501 -3.631,5.396 -3.914,5.269 -3.914,5.184 -3.918,5.044 -3.926,4.85 -3.934,4.654 -3.938,4.409 -3.938,4.113 c 0,-1.084 0.088,-1.955 0.266,-2.615 0.178,-0.66 0.401,-1.16 0.668,-1.498 0.205,-0.271 0.44,-0.466 0.704,-0.584 0.264,-0.119 0.542,-0.178 0.833,-0.178 0.237,0 0.493,0.064 0.769,0.191 C -0.422,-0.444 -0.189,-0.254 0,0 m 5.132,2.856 c 0,-1.989 -0.588,-3.625 -1.763,-4.907 -1.174,-1.282 -2.786,-1.923 -4.836,-1.923 -1.024,0 -1.938,0.159 -2.743,0.476 -0.804,0.317 -1.485,0.785 -2.045,1.403 -0.671,0.728 -1.182,1.667 -1.538,2.819 -0.354,1.15 -0.531,2.526 -0.531,4.126 0,1.658 0.165,3.13 0.496,4.418 0.331,1.286 0.871,2.424 1.62,3.415 0.717,0.939 1.655,1.673 2.814,2.202 1.159,0.529 2.531,0.794 4.115,0.794 0.575,0 1.153,-0.04 1.732,-0.121 0.579,-0.08 0.976,-0.146 1.189,-0.197 v -3.719 h -0.32 c -0.205,0.109 -0.544,0.234 -1.016,0.374 -0.474,0.139 -1.014,0.21 -1.62,0.21 -1.38,0 -2.444,-0.39 -3.193,-1.168 -0.749,-0.78 -1.21,-1.897 -1.384,-3.352 0.576,0.398 1.162,0.715 1.756,0.952 0.596,0.237 1.268,0.356 2.017,0.356 0.63,0 1.223,-0.091 1.779,-0.274 C 2.217,8.559 2.711,8.294 3.145,7.947 3.752,7.447 4.234,6.792 4.594,5.979 4.952,5.167 5.132,4.126 5.132,2.856"
         style="fill:#425672;fill-opacity:1;fill-rule:nonzero;stroke:none"
         transform="matrix(1.3333333,0,0,-1.3333333,-581.19729,389.65224)"
         clip-path="url(#clipPath40)" /><path
         id="path41"
         d="M 0,0 C 0,0.668 -0.211,1.239 -0.633,1.714 -1.055,2.188 -1.581,2.425 -2.212,2.425 -2.834,2.425 -3.358,2.189 -3.784,1.72 -4.21,1.25 -4.423,0.677 -4.423,0 c 0,-0.694 0.215,-1.271 0.645,-1.733 0.429,-0.461 0.952,-0.692 1.566,-0.692 0.631,0 1.157,0.235 1.579,0.704 C -0.211,-1.251 0,-0.678 0,0 m 2.589,0 c 0,-1.439 -0.465,-2.651 -1.395,-3.638 -0.93,-0.985 -2.065,-1.478 -3.406,-1.478 -1.34,0 -2.475,0.493 -3.405,1.478 -0.93,0.987 -1.395,2.199 -1.395,3.638 0,1.438 0.465,2.651 1.395,3.637 0.93,0.986 2.065,1.479 3.405,1.479 1.349,0 2.485,-0.493 3.412,-1.479 C 2.126,2.651 2.589,1.438 2.589,0"
         style="fill:#425672;fill-opacity:1;fill-rule:nonzero;stroke:none"
         transform="matrix(1.3333333,0,0,-1.3333333,-561.94729,375.51824)"
         clip-path="url(#clipPath42)" /><path
         id="path43"
         d="M 0,0 V 6.437 L -4.458,0 Z M 6.645,-3.402 H 4.269 V -7.858 H 0 v 4.456 h -7.745 v 3.529 l 7.602,10.969 H 4.269 V 0 h 2.376 z"
         style="fill:#425672;fill-opacity:1;fill-rule:nonzero;stroke:none"
         transform="matrix(1.3333333,0,0,-1.3333333,-545.47209,384.01557)"
         clip-path="url(#clipPath44)" /><path
         id="path45"
         d="m 0,0 c 0,-0.923 -0.16,-1.765 -0.479,-2.526 -0.32,-0.762 -0.787,-1.41 -1.402,-1.943 -0.622,-0.533 -1.353,-0.941 -2.193,-1.225 -0.839,-0.284 -1.863,-0.425 -3.069,-0.425 -1.371,0 -2.547,0.122 -3.529,0.368 -0.981,0.245 -1.779,0.521 -2.394,0.825 v 4.101 h 0.425 c 0.647,-0.441 1.406,-0.821 2.277,-1.143 0.871,-0.322 1.665,-0.482 2.383,-0.482 0.424,0 0.888,0.04 1.388,0.12 0.501,0.081 0.921,0.256 1.26,0.527 0.268,0.211 0.482,0.472 0.645,0.781 0.161,0.309 0.242,0.747 0.242,1.314 0,0.559 -0.115,0.988 -0.343,1.288 -0.229,0.301 -0.532,0.519 -0.911,0.654 -0.378,0.144 -0.831,0.224 -1.36,0.242 -0.528,0.016 -0.993,0.025 -1.395,0.025 h -0.757 v 3.326 h 0.698 c 0.536,0 1.029,0.026 1.478,0.076 0.449,0.051 0.832,0.153 1.147,0.305 0.315,0.16 0.562,0.385 0.739,0.673 0.177,0.287 0.266,0.677 0.266,1.168 0,0.381 -0.083,0.691 -0.248,0.932 -0.166,0.242 -0.371,0.43 -0.615,0.566 -0.284,0.152 -0.615,0.254 -0.993,0.305 -0.379,0.05 -0.702,0.076 -0.97,0.076 -0.434,0 -0.875,-0.056 -1.324,-0.165 -0.449,-0.111 -0.887,-0.25 -1.313,-0.419 -0.331,-0.136 -0.677,-0.312 -1.041,-0.528 -0.362,-0.215 -0.63,-0.378 -0.803,-0.488 h -0.367 v 4.05 c 0.607,0.279 1.425,0.548 2.454,0.806 1.029,0.258 2.079,0.387 3.151,0.387 1.048,0 1.957,-0.097 2.725,-0.292 0.769,-0.195 1.425,-0.478 1.969,-0.85 0.599,-0.399 1.048,-0.904 1.348,-1.518 0.3,-0.613 0.449,-1.306 0.449,-2.075 0,-1.075 -0.289,-2.017 -0.869,-2.825 C -1.91,5.203 -2.673,4.68 -3.619,4.443 V 4.266 C -3.201,4.197 -2.793,4.083 -2.395,3.923 -1.997,3.762 -1.608,3.499 -1.23,3.136 -0.875,2.806 -0.582,2.38 -0.35,1.859 -0.117,1.339 0,0.719 0,0"
         style="fill:#425672;fill-opacity:1;fill-rule:nonzero;stroke:none"
         transform="matrix(1.3333333,0,0,-1.3333333,-516.90436,386.79157)"
         clip-path="url(#clipPath46)" /><path
         id="path47"
         d="M 0,0 -3.205,-7.478 H -5.854 L -3.997,0 Z"
         style="fill:#425672;fill-opacity:1;fill-rule:nonzero;stroke:none"
         transform="matrix(1.3333333,0,0,-1.3333333,-506.08929,368.08717)"
         clip-path="url(#clipPath48)" /><path
         id="path49"
         d="M 0,0 V 18.903 H 11.906 V 15.298 H 4.398 v -3.314 h 6.917 V 8.379 H 4.398 V 3.605 h 7.508 V 0 Z"
         style="fill:#425672;fill-opacity:1;fill-rule:nonzero;stroke:none"
         transform="matrix(1.3333333,0,0,-1.3333333,-504.07102,394.4257)"
         clip-path="url(#clipPath50)" /><path
         id="path51"
         d="m 0,0 h 10.888 v 51.806 h 20.02 v 9.659 H -20.02 V 51.806 H 0 Z m 99.837,0 h 10.712 V 21.161 H 127.32 L 137.682,0 h 12.029 l -12.117,23.971 c 6.673,3.512 11.239,10.01 11.239,17.298 0,10.976 -10.185,20.196 -22.566,20.196 h -26.43 z m 10.712,30.644 v 21.162 h 15.718 c 7.288,0 11.854,-3.863 11.854,-10.537 0,-6.673 -4.566,-10.625 -11.854,-10.625 z M 172.892,0 h 10.889 V 51.806 H 203.8 v 9.659 h -50.927 v -9.659 h 20.019 z m 61.027,-0.878 h 7.024 c 13.347,0 22.654,7.727 22.654,19.405 V 61.465 H 252.885 V 18.527 c 0,-6.585 -4.566,-9.922 -11.942,-9.922 h -7.024 c -7.376,0 -11.942,3.337 -11.942,9.922 V 61.465 H 211.264 V 18.527 c 0,-11.678 9.308,-19.405 22.655,-19.405"
         style="fill:#f1542d;fill-opacity:1;fill-rule:nonzero;stroke:none"
         transform="matrix(1.3333333,0,0,-1.3333333,-587.63609,350.9949)"
         clip-path="url(#clipPath52)" /><path
         id="path53"
         d="m 0,0 c 0,0 -2.618,2.513 -1.78,3.979 l -18.218,-25.548 c 0,0 -6.282,-6.91 29.107,-34.447 l 18.323,17.904 -1.361,11.203 z"
         style="fill:#f1542d;fill-opacity:1;fill-rule:nonzero;stroke:none"
         transform="matrix(1.3333333,0,0,-1.3333333,-534.18582,287.78317)"
         clip-path="url(#clipPath54)" /><path
         id="path55"
         d="m 0,0 -4.397,25.024 c -1.78,0 -5.026,-0.314 -8.377,-1.571 -4.921,-1.78 -9.842,-4.921 -11.412,-11.412 l 3.141,-25.129 C -17.485,-8.795 -10.261,-1.361 0,0"
         style="fill:#f1542d;fill-opacity:1;fill-rule:nonzero;stroke:none"
         transform="matrix(1.3333333,0,0,-1.3333333,-465.22169,321.70677)"
         clip-path="url(#clipPath56)" /><path
         id="path57"
         d="m 0,0 c 0,0 0.105,0 0.105,-0.105 l 23.139,-23.977 -1.047,8.377 v 0.523 c 0.838,3.665 2.513,6.492 4.712,8.586 -4.084,-0.314 -12.46,0.523 -26.385,8.271 0,0 -0.838,0.419 -1.257,0.419 0,0 -0.838,0 -0.105,-1.047 C -0.628,0.733 -0.314,0.314 0,0"
         style="fill:#425672;fill-opacity:1;fill-rule:nonzero;stroke:none"
         transform="matrix(1.3333333,0,0,-1.3333333,-531.25409,284.71184)"
         clip-path="url(#clipPath58)" /><path
         id="path59"
         d="m 0,0 c -11.712,-1.574 -23.925,-4.83 -34.385,-10.947 -9.774,-5.843 -20.946,-11.81 -32.478,-9.778 -6.615,1.16 -12.806,4.431 -19.214,7.505 -1.71,1.12 -3.153,2.386 -4.392,3.852 -7.433,-2.409 -12.983,-8.481 -15.6,-11.832 -1.047,-1.361 -1.571,-2.199 -1.571,-2.199 -0.104,-0.209 -0.314,-0.314 -0.523,-0.523 1.225,-1.666 6.077,-4.433 13.145,-7.281 0,0 -0.002,-0.003 -0.002,-0.003 0.062,-0.023 0.123,-0.046 0.184,-0.069 2.767,-1.11 5.866,-2.229 9.222,-3.3 1.364,-0.444 2.735,-0.86 4.112,-1.248 0.199,-0.057 0.391,-0.117 0.591,-0.174 0.001,0.004 0.001,0.006 0.001,0.01 8.802,-2.413 17.87,-3.436 27.191,-0.681 10.098,2.754 18.513,8.305 26.634,14.341 0.546,0.415 1.686,1.192 2.273,1.547 34.838,20.877 85.394,16.645 119.92,-3.707 0,0 0.55,0.836 0.55,0.836 C 68.416,-4.059 33.51,4.137 0,0"
         style="fill:#425672;fill-opacity:1;fill-rule:nonzero;stroke:none"
         transform="matrix(1.3333333,0,0,-1.3333333,-349.34356,314.3809)"
         clip-path="url(#clipPath60)" /><path
         id="path61"
         d="m 0,0 h 10.888 v 51.806 h 20.02 v 9.659 H -20.02 V 51.806 H 0 Z m 99.837,0 h 10.712 V 21.161 H 127.32 L 137.682,0 h 12.029 l -12.117,23.971 c 6.673,3.512 11.239,10.01 11.239,17.298 0,10.976 -10.185,20.196 -22.566,20.196 h -26.43 z m 10.712,30.644 v 21.162 h 15.718 c 7.288,0 11.854,-3.863 11.854,-10.537 0,-6.673 -4.566,-10.625 -11.854,-10.625 z M 172.892,0 h 10.889 V 51.806 H 203.8 v 9.659 h -50.927 v -9.659 h 20.019 z m 61.027,-0.878 h 7.024 c 13.347,0 22.654,7.727 22.654,19.405 V 61.465 H 252.885 V 18.527 c 0,-6.585 -4.566,-9.922 -11.942,-9.922 h -7.024 c -7.376,0 -11.942,3.337 -11.942,9.922 V 61.465 H 211.264 V 18.527 c 0,-11.678 9.308,-19.405 22.655,-19.405"
         style="fill:#f1542d;fill-opacity:1;fill-rule:nonzero;stroke:none"
         transform="matrix(1.3333333,0,0,-1.3333333,-587.63609,350.9949)"
         clip-path="url(#clipPath62)" /><path
         id="path63"
         d="m 0,0 c 0,0 -2.618,2.513 -1.78,3.979 l -18.218,-25.548 c 0,0 -6.282,-6.91 29.107,-34.447 l 18.323,17.904 -1.361,11.203 z"
         style="fill:#f1542d;fill-opacity:1;fill-rule:nonzero;stroke:none"
         transform="matrix(1.3333333,0,0,-1.3333333,-534.18582,287.78317)"
         clip-path="url(#clipPath64)" /><path
         id="path65"
         d="m 0,0 -4.397,25.024 c -1.78,0 -5.026,-0.314 -8.377,-1.571 -4.921,-1.78 -9.842,-4.921 -11.412,-11.412 l 3.141,-25.129 C -17.485,-8.795 -10.261,-1.361 0,0"
         style="fill:#f1542d;fill-opacity:1;fill-rule:nonzero;stroke:none"
         transform="matrix(1.3333333,0,0,-1.3333333,-465.22169,321.70677)"
         clip-path="url(#clipPath66)" /><path
         id="path67"
         d="m 0,0 c 0,0 0.105,0 0.105,-0.105 l 23.139,-23.977 -1.047,8.377 v 0.523 c 0.838,3.665 2.513,6.492 4.712,8.586 -4.084,-0.314 -12.46,0.523 -26.385,8.271 0,0 -0.838,0.419 -1.257,0.419 0,0 -0.838,0 -0.105,-1.047 C -0.628,0.733 -0.314,0.314 0,0"
         style="fill:#425672;fill-opacity:1;fill-rule:nonzero;stroke:none"
         transform="matrix(1.3333333,0,0,-1.3333333,-531.25409,284.71184)"
         clip-path="url(#clipPath68)" /><path
         id="path69"
         d="m 0,0 c -11.712,-1.574 -23.925,-4.83 -34.385,-10.947 -9.774,-5.843 -20.946,-11.81 -32.478,-9.778 -6.615,1.16 -12.806,4.431 -19.214,7.505 -1.71,1.12 -3.153,2.386 -4.392,3.852 -7.433,-2.409 -12.983,-8.481 -15.6,-11.832 -1.047,-1.361 -1.571,-2.199 -1.571,-2.199 -0.104,-0.209 -0.314,-0.314 -0.523,-0.523 1.225,-1.666 6.077,-4.433 13.145,-7.281 0,0 -0.002,-0.003 -0.002,-0.003 0.062,-0.023 0.123,-0.046 0.184,-0.069 2.767,-1.11 5.866,-2.229 9.222,-3.3 1.364,-0.444 2.735,-0.86 4.112,-1.248 0.199,-0.057 0.391,-0.117 0.591,-0.174 0.001,0.004 0.001,0.006 0.001,0.01 8.802,-2.413 17.87,-3.436 27.191,-0.681 10.098,2.754 18.513,8.305 26.634,14.341 0.546,0.415 1.686,1.192 2.273,1.547 34.838,20.877 85.394,16.645 119.92,-3.707 0,0 0.55,0.836 0.55,0.836 C 68.416,-4.059 33.51,4.137 0,0"
         style="fill:#425672;fill-opacity:1;fill-rule:nonzero;stroke:none"
         transform="matrix(1.3333333,0,0,-1.3333333,-349.34356,314.3809)"
         clip-path="url(#clipPath70)" /><path
         id="path137"
         d="m -599.73236,437.18187 -37.432,-11.23333"
         style="fill:none;stroke:#425672;stroke-width:1.88933;stroke-linecap:butt;stroke-linejoin:miter;stroke-miterlimit:4;stroke-dasharray:none;stroke-opacity:1" /><path
         id="path138"
         d="m -637.16369,425.94917 -13.824,23.904"
         style="fill:none;stroke:#425672;stroke-width:1.88933;stroke-linecap:butt;stroke-linejoin:miter;stroke-miterlimit:4;stroke-dasharray:none;stroke-opacity:1" /><path
         id="path139"
         d="m -650.98769,449.85287 51.25466,-12.67066"
         style="fill:none;stroke:#425672;stroke-width:1.88933;stroke-linecap:butt;stroke-linejoin:miter;stroke-miterlimit:4;stroke-dasharray:none;stroke-opacity:1" /><path
         id="path140"
         d="m -599.73236,437.18187 -39.58533,-58.66533"
         style="fill:none;stroke:#425672;stroke-width:1.88933;stroke-linecap:butt;stroke-linejoin:miter;stroke-miterlimit:4;stroke-dasharray:none;stroke-opacity:1" /><path
         id="path141"
         d="m -639.31769,378.51677 2.15333,47.432"
         style="fill:none;stroke:#425672;stroke-width:1.88933;stroke-linecap:butt;stroke-linejoin:miter;stroke-miterlimit:4;stroke-dasharray:none;stroke-opacity:1" /><path
         id="path142"
         d="m -637.16369,425.94917 -27.06267,-34.03866"
         style="fill:none;stroke:#425672;stroke-width:1.88933;stroke-linecap:butt;stroke-linejoin:miter;stroke-miterlimit:4;stroke-dasharray:none;stroke-opacity:1" /><path
         id="path143"
         d="m -664.22662,391.91077 24.90933,-13.39333"
         style="fill:none;stroke:#425672;stroke-width:1.88933;stroke-linecap:butt;stroke-linejoin:miter;stroke-miterlimit:4;stroke-dasharray:none;stroke-opacity:1" /><path
         id="path144"
         d="m -639.31769,378.51677 -2.88267,-9.072"
         style="fill:none;stroke:#425672;stroke-width:1.88933;stroke-linecap:butt;stroke-linejoin:miter;stroke-miterlimit:4;stroke-dasharray:none;stroke-opacity:1" /><path
         id="path145"
         d="m -642.20022,369.4445 -31.52933,7.34534"
         style="fill:none;stroke:#425672;stroke-width:1.88933;stroke-linecap:butt;stroke-linejoin:miter;stroke-miterlimit:4;stroke-dasharray:none;stroke-opacity:1" /><path
         id="path146"
         d="m -673.72969,376.7905 34.412,1.72667"
         style="fill:none;stroke:#425672;stroke-width:1.88933;stroke-linecap:butt;stroke-linejoin:miter;stroke-miterlimit:4;stroke-dasharray:none;stroke-opacity:1" /><path
         id="path147"
         d="m -664.22662,391.91077 -9.50267,-15.12"
         style="fill:none;stroke:#425672;stroke-width:1.88933;stroke-linecap:butt;stroke-linejoin:miter;stroke-miterlimit:4;stroke-dasharray:none;stroke-opacity:1" /><path
         id="path148"
         d="m -673.72969,376.7905 -8.752,-20.768"
         style="fill:none;stroke:#425672;stroke-width:1.88933;stroke-linecap:butt;stroke-linejoin:miter;stroke-miterlimit:4;stroke-dasharray:none;stroke-opacity:1" /><path
         id="path149"
         d="m -682.48222,356.0221 -2.16,-22.324"
         style="fill:none;stroke:#425672;stroke-width:1.88933;stroke-linecap:butt;stroke-linejoin:miter;stroke-miterlimit:4;stroke-dasharray:none;stroke-opacity:1" /><path
         id="path150"
         d="m -684.64262,333.69864 45.92666,2.44934"
         style="fill:none;stroke:#425672;stroke-width:1.88933;stroke-linecap:butt;stroke-linejoin:miter;stroke-miterlimit:4;stroke-dasharray:none;stroke-opacity:1" /><path
         id="path151"
         d="m -638.71556,336.14757 -43.76667,19.87467"
         style="fill:none;stroke:#425672;stroke-width:1.88933;stroke-linecap:butt;stroke-linejoin:miter;stroke-miterlimit:4;stroke-dasharray:none;stroke-opacity:1" /><path
         id="path152"
         d="m -682.48222,356.0221 40.28133,13.42267"
         style="fill:none;stroke:#425672;stroke-width:1.88933;stroke-linecap:butt;stroke-linejoin:miter;stroke-miterlimit:4;stroke-dasharray:none;stroke-opacity:1" /><path
         id="path153"
         d="m -642.20022,369.4445 3.484,-33.29733"
         style="fill:none;stroke:#425672;stroke-width:1.88933;stroke-linecap:butt;stroke-linejoin:miter;stroke-miterlimit:4;stroke-dasharray:none;stroke-opacity:1" /><path
         id="path154"
         d="m -684.64262,333.69864 18.39867,-49.18933"
         style="fill:none;stroke:#425672;stroke-width:1.88933;stroke-linecap:butt;stroke-linejoin:miter;stroke-miterlimit:4;stroke-dasharray:none;stroke-opacity:1" /><path
         id="path155"
         d="m -666.24409,284.50904 37.72266,-0.28933"
         style="fill:none;stroke:#425672;stroke-width:1.88933;stroke-linecap:butt;stroke-linejoin:miter;stroke-miterlimit:4;stroke-dasharray:none;stroke-opacity:1" /><path
         id="path156"
         d="m -628.52156,284.2201 14.74933,39.548"
         style="fill:none;stroke:#425672;stroke-width:1.88933;stroke-linecap:butt;stroke-linejoin:miter;stroke-miterlimit:4;stroke-dasharray:none;stroke-opacity:1" /><path
         id="path157"
         d="m -613.77236,323.76797 -24.94267,12.38"
         style="fill:none;stroke:#425672;stroke-width:1.88933;stroke-linecap:butt;stroke-linejoin:miter;stroke-miterlimit:4;stroke-dasharray:none;stroke-opacity:1" /><path
         id="path158"
         d="m -638.71556,336.14757 -27.528,-51.63866"
         style="fill:none;stroke:#425672;stroke-width:1.88933;stroke-linecap:butt;stroke-linejoin:miter;stroke-miterlimit:4;stroke-dasharray:none;stroke-opacity:1" /><path
         id="path159"
         d="m -628.52156,284.2201 -10.19467,51.928"
         style="fill:none;stroke:#425672;stroke-width:1.88933;stroke-linecap:butt;stroke-linejoin:miter;stroke-miterlimit:4;stroke-dasharray:none;stroke-opacity:1" /><path
         id="path160"
         d="m -666.24409,284.50904 4.03867,-41.69466"
         style="fill:none;stroke:#425672;stroke-width:1.88933;stroke-linecap:butt;stroke-linejoin:miter;stroke-miterlimit:4;stroke-dasharray:none;stroke-opacity:1" /><path
         id="path161"
         d="m -662.20502,242.8137 23.03333,-4.32133"
         style="fill:none;stroke:#425672;stroke-width:1.88933;stroke-linecap:butt;stroke-linejoin:miter;stroke-miterlimit:4;stroke-dasharray:none;stroke-opacity:1" /><path
         id="path162"
         d="m -639.17169,238.49304 -8.78133,-14.68933"
         style="fill:none;stroke:#425672;stroke-width:1.88933;stroke-linecap:butt;stroke-linejoin:miter;stroke-miterlimit:4;stroke-dasharray:none;stroke-opacity:1" /><path
         id="path163"
         d="m -647.95356,223.80344 9.35733,-6.912"
         style="fill:none;stroke:#425672;stroke-width:1.88933;stroke-linecap:butt;stroke-linejoin:miter;stroke-miterlimit:4;stroke-dasharray:none;stroke-opacity:1" /><path
         id="path164"
         d="m -638.59556,216.89144 -4.46,-12.24"
         style="fill:none;stroke:#425672;stroke-width:1.88933;stroke-linecap:butt;stroke-linejoin:miter;stroke-miterlimit:4;stroke-dasharray:none;stroke-opacity:1" /><path
         id="path165"
         d="m -643.05582,204.65117 -4.89733,19.152"
         style="fill:none;stroke:#425672;stroke-width:1.88933;stroke-linecap:butt;stroke-linejoin:miter;stroke-miterlimit:4;stroke-dasharray:none;stroke-opacity:1" /><path
         id="path166"
         d="m -647.95356,223.80344 -14.252,19.01067"
         style="fill:none;stroke:#425672;stroke-width:1.88933;stroke-linecap:butt;stroke-linejoin:miter;stroke-miterlimit:4;stroke-dasharray:none;stroke-opacity:1" /><path
         id="path167"
         d="m -662.20502,242.8137 24.332,3.456"
         style="fill:none;stroke:#425672;stroke-width:1.88933;stroke-linecap:butt;stroke-linejoin:miter;stroke-miterlimit:4;stroke-dasharray:none;stroke-opacity:1" /><path
         id="path168"
         d="m -637.87289,246.26984 -1.29867,-7.77733"
         style="fill:none;stroke:#425672;stroke-width:1.88933;stroke-linecap:butt;stroke-linejoin:miter;stroke-miterlimit:4;stroke-dasharray:none;stroke-opacity:1" /><path
         id="path169"
         d="m -639.17169,238.49304 0.576,-21.60133"
         style="fill:none;stroke:#425672;stroke-width:1.88933;stroke-linecap:butt;stroke-linejoin:miter;stroke-miterlimit:4;stroke-dasharray:none;stroke-opacity:1" /><path
         id="path170"
         d="m -666.24409,284.50904 28.37066,-38.23866"
         style="fill:none;stroke:#425672;stroke-width:1.88933;stroke-linecap:butt;stroke-linejoin:miter;stroke-miterlimit:4;stroke-dasharray:none;stroke-opacity:1" /><path
         id="path171"
         d="m -637.87289,246.26984 9.352,37.95067"
         style="fill:none;stroke:#425672;stroke-width:1.88933;stroke-linecap:butt;stroke-linejoin:miter;stroke-miterlimit:4;stroke-dasharray:none;stroke-opacity:1" /><path
         id="path172"
         d="m -638.59556,216.89144 14.38133,-18.89866"
         style="fill:none;stroke:#425672;stroke-width:1.88933;stroke-linecap:butt;stroke-linejoin:miter;stroke-miterlimit:4;stroke-dasharray:none;stroke-opacity:1" /><path
         id="path173"
         d="m -624.21369,197.99224 -18.84267,6.65867"
         style="fill:none;stroke:#425672;stroke-width:1.88933;stroke-linecap:butt;stroke-linejoin:miter;stroke-miterlimit:4;stroke-dasharray:none;stroke-opacity:1" /><path
         id="path174"
         d="m -643.05582,204.65117 -1.74133,-23.36266"
         style="fill:none;stroke:#425672;stroke-width:1.88933;stroke-linecap:butt;stroke-linejoin:miter;stroke-miterlimit:4;stroke-dasharray:none;stroke-opacity:1" /><path
         id="path175"
         d="m -644.79782,181.28837 20.584,16.704"
         style="fill:none;stroke:#425672;stroke-width:1.88933;stroke-linecap:butt;stroke-linejoin:miter;stroke-miterlimit:4;stroke-dasharray:none;stroke-opacity:1" /><path
         id="path176"
         d="m -624.21369,197.99224 7.48933,-15.26533"
         style="fill:none;stroke:#425672;stroke-width:1.88933;stroke-linecap:butt;stroke-linejoin:miter;stroke-miterlimit:4;stroke-dasharray:none;stroke-opacity:1" /><path
         id="path177"
         d="m -616.72502,182.72677 -28.07333,-1.43866"
         style="fill:none;stroke:#425672;stroke-width:1.88933;stroke-linecap:butt;stroke-linejoin:miter;stroke-miterlimit:4;stroke-dasharray:none;stroke-opacity:1" /><path
         id="path178"
         d="m -644.79782,181.28837 48.088,-87.646661"
         style="fill:none;stroke:#425672;stroke-width:1.88933;stroke-linecap:butt;stroke-linejoin:miter;stroke-miterlimit:4;stroke-dasharray:none;stroke-opacity:1" /><path
         id="path179"
         d="m -596.71022,93.641443 -20.01467,89.085327"
         style="fill:none;stroke:#425672;stroke-width:1.88933;stroke-linecap:butt;stroke-linejoin:miter;stroke-miterlimit:4;stroke-dasharray:none;stroke-opacity:1" /><path
         id="path180"
         d="m 0,0 c 0,-4.548 -3.689,-8.238 -8.237,-8.238 -4.549,0 -8.238,3.69 -8.238,8.238 0,4.548 3.689,8.237 8.238,8.237 C -3.689,8.237 0,4.548 0,0"
         style="fill:#f1542d;fill-opacity:1;fill-rule:nonzero;stroke:#425672;stroke-width:2.835;stroke-linecap:butt;stroke-linejoin:miter;stroke-miterlimit:4;stroke-dasharray:none;stroke-opacity:1"
         transform="matrix(1.3333333,0,0,-1.3333333,-599.02182,326.28624)"
         clip-path="url(#clipPath181)" /><path
         id="path270"
         d="m 0,0 c 0,-0.661 -0.536,-1.197 -1.196,-1.197 -0.661,0 -1.196,0.536 -1.196,1.197 0,0.661 0.535,1.197 1.196,1.197 C -0.536,1.197 0,0.661 0,0"
         style="fill:#425672;fill-opacity:1;fill-rule:nonzero;stroke:#425672;stroke-width:1.984;stroke-linecap:butt;stroke-linejoin:miter;stroke-miterlimit:4;stroke-dasharray:none;stroke-opacity:1"
         transform="matrix(1.3333333,0,0,-1.3333333,-660.61009,242.8137)"
         clip-path="url(#clipPath271)" /><path
         id="path272"
         d="m 0,0 c 0,-0.661 -0.536,-1.197 -1.196,-1.197 -0.661,0 -1.196,0.536 -1.196,1.197 0,0.661 0.535,1.197 1.196,1.197 C -0.536,1.197 0,0.661 0,0"
         style="fill:#425672;fill-opacity:1;fill-rule:nonzero;stroke:#425672;stroke-width:1.984;stroke-linecap:butt;stroke-linejoin:miter;stroke-miterlimit:4;stroke-dasharray:none;stroke-opacity:1"
         transform="matrix(1.3333333,0,0,-1.3333333,-637.57689,238.49304)"
         clip-path="url(#clipPath273)" /><path
         id="path274"
         d="m 0,0 c 0,-0.661 -0.536,-1.197 -1.196,-1.197 -0.661,0 -1.196,0.536 -1.196,1.197 0,0.661 0.535,1.197 1.196,1.197 C -0.536,1.197 0,0.661 0,0"
         style="fill:#425672;fill-opacity:1;fill-rule:nonzero;stroke:#425672;stroke-width:1.984;stroke-linecap:butt;stroke-linejoin:miter;stroke-miterlimit:4;stroke-dasharray:none;stroke-opacity:1"
         transform="matrix(1.3333333,0,0,-1.3333333,-646.35862,223.80344)"
         clip-path="url(#clipPath275)" /><path
         id="path276"
         d="m 0,0 c 0,-0.661 -0.536,-1.197 -1.196,-1.197 -0.661,0 -1.196,0.536 -1.196,1.197 0,0.661 0.535,1.197 1.196,1.197 C -0.536,1.197 0,0.661 0,0"
         style="fill:#425672;fill-opacity:1;fill-rule:nonzero;stroke:#425672;stroke-width:1.984;stroke-linecap:butt;stroke-linejoin:miter;stroke-miterlimit:4;stroke-dasharray:none;stroke-opacity:1"
         transform="matrix(1.3333333,0,0,-1.3333333,-637.00076,216.89144)"
         clip-path="url(#clipPath277)" /><path
         id="path278"
         d="m 0,0 c 0,-0.661 -0.536,-1.197 -1.196,-1.197 -0.661,0 -1.196,0.536 -1.196,1.197 0,0.661 0.535,1.197 1.196,1.197 C -0.536,1.197 0,0.661 0,0"
         style="fill:#425672;fill-opacity:1;fill-rule:nonzero;stroke:#425672;stroke-width:1.984;stroke-linecap:butt;stroke-linejoin:miter;stroke-miterlimit:4;stroke-dasharray:none;stroke-opacity:1"
         transform="matrix(1.3333333,0,0,-1.3333333,-641.46102,204.65117)"
         clip-path="url(#clipPath279)" /><path
         id="path280"
         d="m 0,0 c 0,-0.661 -0.536,-1.197 -1.196,-1.197 -0.661,0 -1.196,0.536 -1.196,1.197 0,0.661 0.535,1.197 1.196,1.197 C -0.536,1.197 0,0.661 0,0"
         style="fill:#425672;fill-opacity:1;fill-rule:nonzero;stroke:#425672;stroke-width:1.984;stroke-linecap:butt;stroke-linejoin:miter;stroke-miterlimit:4;stroke-dasharray:none;stroke-opacity:1"
         transform="matrix(1.3333333,0,0,-1.3333333,-622.61876,197.99224)"
         clip-path="url(#clipPath281)" /><path
         id="path282"
         d="m 0,0 c 0,-0.661 -0.536,-1.197 -1.196,-1.197 -0.661,0 -1.196,0.536 -1.196,1.197 0,0.661 0.535,1.197 1.196,1.197 C -0.536,1.197 0,0.661 0,0"
         style="fill:#425672;fill-opacity:1;fill-rule:nonzero;stroke:#425672;stroke-width:1.984;stroke-linecap:butt;stroke-linejoin:miter;stroke-miterlimit:4;stroke-dasharray:none;stroke-opacity:1"
         transform="matrix(1.3333333,0,0,-1.3333333,-643.20289,181.28837)"
         clip-path="url(#clipPath283)" /><path
         id="path284"
         d="m 0,0 c 0,-0.661 -0.536,-1.197 -1.196,-1.197 -0.661,0 -1.196,0.536 -1.196,1.197 0,0.661 0.535,1.197 1.196,1.197 C -0.536,1.197 0,0.661 0,0"
         style="fill:#425672;fill-opacity:1;fill-rule:nonzero;stroke:#425672;stroke-width:1.984;stroke-linecap:butt;stroke-linejoin:miter;stroke-miterlimit:4;stroke-dasharray:none;stroke-opacity:1"
         transform="matrix(1.3333333,0,0,-1.3333333,-615.13009,182.72677)"
         clip-path="url(#clipPath285)" /><path
         id="path286"
         d="m 0,0 c 0,-0.661 -0.536,-1.197 -1.196,-1.197 -0.661,0 -1.196,0.536 -1.196,1.197 0,0.661 0.535,1.197 1.196,1.197 C -0.536,1.197 0,0.661 0,0"
         style="fill:#425672;fill-opacity:1;fill-rule:nonzero;stroke:#425672;stroke-width:1.984;stroke-linecap:butt;stroke-linejoin:miter;stroke-miterlimit:4;stroke-dasharray:none;stroke-opacity:1"
         transform="matrix(1.3333333,0,0,-1.3333333,-595.11542,93.641443)"
         clip-path="url(#clipPath287)" /><path
         id="path288"
         d="m 0,0 c 0,-0.661 -0.536,-1.197 -1.196,-1.197 -0.661,0 -1.196,0.536 -1.196,1.197 0,0.661 0.535,1.197 1.196,1.197 C -0.536,1.197 0,0.661 0,0"
         style="fill:#425672;fill-opacity:1;fill-rule:nonzero;stroke:#425672;stroke-width:1.984;stroke-linecap:butt;stroke-linejoin:miter;stroke-miterlimit:4;stroke-dasharray:none;stroke-opacity:1"
         transform="matrix(1.3333333,0,0,-1.3333333,-636.27809,246.26984)"
         clip-path="url(#clipPath289)" /><path
         id="path290"
         d="m 0,0 c 0,-0.661 -0.536,-1.197 -1.196,-1.197 -0.661,0 -1.196,0.536 -1.196,1.197 0,0.661 0.535,1.197 1.196,1.197 C -0.536,1.197 0,0.661 0,0"
         style="fill:#425672;fill-opacity:1;fill-rule:nonzero;stroke:#425672;stroke-width:1.984;stroke-linecap:butt;stroke-linejoin:miter;stroke-miterlimit:4;stroke-dasharray:none;stroke-opacity:1"
         transform="matrix(1.3333333,0,0,-1.3333333,-664.64929,284.50904)"
         clip-path="url(#clipPath291)" /><path
         id="path292"
         d="m 0,0 c 0,-0.661 -0.536,-1.197 -1.196,-1.197 -0.661,0 -1.196,0.536 -1.196,1.197 0,0.661 0.535,1.197 1.196,1.197 C -0.536,1.197 0,0.661 0,0"
         style="fill:#425672;fill-opacity:1;fill-rule:nonzero;stroke:#425672;stroke-width:1.984;stroke-linecap:butt;stroke-linejoin:miter;stroke-miterlimit:4;stroke-dasharray:none;stroke-opacity:1"
         transform="matrix(1.3333333,0,0,-1.3333333,-626.92662,284.2201)"
         clip-path="url(#clipPath293)" /><path
         id="path294"
         d="m 0,0 c 0,-0.661 -0.536,-1.197 -1.196,-1.197 -0.661,0 -1.196,0.536 -1.196,1.197 0,0.661 0.535,1.197 1.196,1.197 C -0.536,1.197 0,0.661 0,0"
         style="fill:#425672;fill-opacity:1;fill-rule:nonzero;stroke:#425672;stroke-width:1.984;stroke-linecap:butt;stroke-linejoin:miter;stroke-miterlimit:4;stroke-dasharray:none;stroke-opacity:1"
         transform="matrix(1.3333333,0,0,-1.3333333,-637.12076,336.14757)"
         clip-path="url(#clipPath295)" /><path
         id="path296"
         d="m 0,0 c 0,-0.661 -0.536,-1.197 -1.196,-1.197 -0.661,0 -1.196,0.536 -1.196,1.197 0,0.661 0.535,1.197 1.196,1.197 C -0.536,1.197 0,0.661 0,0"
         style="fill:#425672;fill-opacity:1;fill-rule:nonzero;stroke:#425672;stroke-width:1.984;stroke-linecap:butt;stroke-linejoin:miter;stroke-miterlimit:4;stroke-dasharray:none;stroke-opacity:1"
         transform="matrix(1.3333333,0,0,-1.3333333,-683.04769,333.69864)"
         clip-path="url(#clipPath297)" /><path
         id="path298"
         d="m 0,0 c 0,-0.661 -0.536,-1.197 -1.196,-1.197 -0.661,0 -1.196,0.536 -1.196,1.197 0,0.661 0.535,1.197 1.196,1.197 C -0.536,1.197 0,0.661 0,0"
         style="fill:#425672;fill-opacity:1;fill-rule:nonzero;stroke:#425672;stroke-width:1.984;stroke-linecap:butt;stroke-linejoin:miter;stroke-miterlimit:4;stroke-dasharray:none;stroke-opacity:1"
         transform="matrix(1.3333333,0,0,-1.3333333,-680.88729,356.0221)"
         clip-path="url(#clipPath299)" /><path
         id="path300"
         d="m 0,0 c 0,-0.661 -0.536,-1.197 -1.196,-1.197 -0.661,0 -1.196,0.536 -1.196,1.197 0,0.661 0.535,1.197 1.196,1.197 C -0.536,1.197 0,0.661 0,0"
         style="fill:#425672;fill-opacity:1;fill-rule:nonzero;stroke:#425672;stroke-width:1.984;stroke-linecap:butt;stroke-linejoin:miter;stroke-miterlimit:4;stroke-dasharray:none;stroke-opacity:1"
         transform="matrix(1.3333333,0,0,-1.3333333,-640.60529,369.4445)"
         clip-path="url(#clipPath301)" /><path
         id="path302"
         d="m 0,0 c 0,-0.661 -0.536,-1.197 -1.196,-1.197 -0.661,0 -1.196,0.536 -1.196,1.197 0,0.661 0.535,1.197 1.196,1.197 C -0.536,1.197 0,0.661 0,0"
         style="fill:#425672;fill-opacity:1;fill-rule:nonzero;stroke:#425672;stroke-width:1.984;stroke-linecap:butt;stroke-linejoin:miter;stroke-miterlimit:4;stroke-dasharray:none;stroke-opacity:1"
         transform="matrix(1.3333333,0,0,-1.3333333,-672.13489,376.7905)"
         clip-path="url(#clipPath303)" /><path
         id="path304"
         d="m 0,0 c 0,-0.661 -0.536,-1.197 -1.196,-1.197 -0.661,0 -1.196,0.536 -1.196,1.197 0,0.661 0.535,1.197 1.196,1.197 C -0.536,1.197 0,0.661 0,0"
         style="fill:#425672;fill-opacity:1;fill-rule:nonzero;stroke:#425672;stroke-width:1.984;stroke-linecap:butt;stroke-linejoin:miter;stroke-miterlimit:4;stroke-dasharray:none;stroke-opacity:1"
         transform="matrix(1.3333333,0,0,-1.3333333,-637.72276,378.51677)"
         clip-path="url(#clipPath305)" /><path
         id="path306"
         d="m 0,0 c 0,-0.661 -0.536,-1.197 -1.196,-1.197 -0.661,0 -1.196,0.536 -1.196,1.197 0,0.661 0.535,1.197 1.196,1.197 C -0.536,1.197 0,0.661 0,0"
         style="fill:#425672;fill-opacity:1;fill-rule:nonzero;stroke:#425672;stroke-width:1.984;stroke-linecap:butt;stroke-linejoin:miter;stroke-miterlimit:4;stroke-dasharray:none;stroke-opacity:1"
         transform="matrix(1.3333333,0,0,-1.3333333,-662.63182,391.91077)"
         clip-path="url(#clipPath307)" /><path
         id="path308"
         d="m 0,0 c 0,-0.661 -0.536,-1.197 -1.196,-1.197 -0.661,0 -1.196,0.536 -1.196,1.197 0,0.661 0.535,1.197 1.196,1.197 C -0.536,1.197 0,0.661 0,0"
         style="fill:#425672;fill-opacity:1;fill-rule:nonzero;stroke:#425672;stroke-width:1.984;stroke-linecap:butt;stroke-linejoin:miter;stroke-miterlimit:4;stroke-dasharray:none;stroke-opacity:1"
         transform="matrix(1.3333333,0,0,-1.3333333,-635.56889,425.94917)"
         clip-path="url(#clipPath309)" /><path
         id="path310"
         d="m 0,0 c 0,-0.661 -0.536,-1.197 -1.196,-1.197 -0.661,0 -1.196,0.536 -1.196,1.197 0,0.661 0.535,1.197 1.196,1.197 C -0.536,1.197 0,0.661 0,0"
         style="fill:#425672;fill-opacity:1;fill-rule:nonzero;stroke:#425672;stroke-width:1.984;stroke-linecap:butt;stroke-linejoin:miter;stroke-miterlimit:4;stroke-dasharray:none;stroke-opacity:1"
         transform="matrix(1.3333333,0,0,-1.3333333,-598.13756,437.18187)"
         clip-path="url(#clipPath311)" /><path
         id="path312"
         d="m 0,0 c 0,-0.661 -0.536,-1.197 -1.196,-1.197 -0.661,0 -1.196,0.536 -1.196,1.197 0,0.661 0.535,1.197 1.196,1.197 C -0.536,1.197 0,0.661 0,0"
         style="fill:#425672;fill-opacity:1;fill-rule:nonzero;stroke:#425672;stroke-width:1.984;stroke-linecap:butt;stroke-linejoin:miter;stroke-miterlimit:4;stroke-dasharray:none;stroke-opacity:1"
         transform="matrix(1.3333333,0,0,-1.3333333,-649.39289,449.85287)"
         clip-path="url(#clipPath313)" /></g></g></svg>
