<?xml version="1.0" encoding="utf-8"?>
<!-- Generator: Adobe Illustrator 26.3.1, SVG Export Plug-In . SVG Version: 6.00 Build 0)  -->
<svg version="1.1" id="Calque_1" xmlns="http://www.w3.org/2000/svg" xmlns:xlink="http://www.w3.org/1999/xlink" x="0px" y="0px"
	 viewBox="0 0 651.79 170.99" style="enable-background:new 0 0 651.79 170.99;" xml:space="preserve">
<style type="text/css">
	.st0{fill:#FF680A;}
	.st1{fill:#7A7F82;}
	.st2{fill:#FFFFFF;}
</style>
<path class="st0" d="M345.09,66.26c0,7.32-4.82,13.52-12.87,13.52c-7.78,0-13.06-6.39-13.06-13.71v-0.19
	c0-7.32,4.82-13.52,12.87-13.52c7.78,0,13.06,6.39,13.06,13.7V66.26z M358.98,66.08v-0.19c0-14.26-11.39-25.65-26.77-25.65
	c-15.47,0-26.95,11.58-26.95,25.84v0.18c0,14.26,11.39,25.65,26.76,25.65C347.49,91.91,358.98,80.34,358.98,66.08z"/>
<path class="st1" d="M253.85,66.08c0,8.34-5.56,13.71-12.13,13.71c-6.58,0-12.04-5.46-12.04-13.71v-0.19
	c0-8.24,5.46-13.71,12.04-13.71c6.57,0,12.13,5.46,12.13,13.71V66.08z M266.52,66.08v-0.19c0-16.58-11.02-25.65-22.6-25.65
	c-7.32,0-12.04,3.43-15.47,8.06v-7.13h-13.23v64.46h13.23v-21.3c3.33,3.98,7.96,7.41,15.47,7.41
	C255.68,91.73,266.52,82.65,266.52,66.08z"/>
<path class="st1" d="M206.62,90.8V58.48c0-11.95-6.3-18.24-16.76-18.24c-6.76,0-11.95,2.78-16.3,7.87c-2.59-5-7.5-7.87-13.99-7.87
	c-7.13,0-11.39,3.8-14.63,7.96v-7.04h-14.08V90.8h14.08V63.11c0-6.67,3.24-10.1,8.52-10.1c5.28,0,8.24,3.43,8.24,10.1V90.8h14.08
	V63.11c0-6.67,3.24-10.1,8.52-10.1c5.28,0,8.24,3.43,8.24,10.1V90.8H206.62z"/>
<path class="st1" d="M97.95,81.74c-3.99,0-6.43-2.09-6.43-4.74c0-3.06,1.47-4.64,5.87-5.28c9.16-1.35,11.41-2.71,11.41-2.71
	C110.15,80.2,102.21,81.74,97.95,81.74z M122.44,90.78c0,0-0.08-23.87-0.08-32.23c0-9.89-7.68-18.32-22.15-18.32
	c-14.71,0-21.42,8.29-21.42,19.16h13.14c0.17-1.15-0.43-7.03,7.86-7.03c5.98,0,8.86,1.76,8.86,4.78c0,8.3-30.43-1.26-30.43,20.78
	c0,10.69,7.81,13.99,15.12,13.99c11.25,0,15.31-6.35,15.31-6.35l-0.12,5.2L122.44,90.78z"/>
<path class="st1" d="M59.72,72.91c-0.64,2.75-3.78,6.87-10.36,6.87c-7.69,0-12.59-6.11-12.59-13.71v-0.19
	c0-7.32,5-13.52,12.04-13.52c6.9,0,9.99,3.77,10.92,7.02h13.14c-0.21-6.2-5.9-19.15-23.97-19.15c-15.19,0-26.02,11.67-26.02,25.84
	v0.18c0,14.17,10.93,25.65,25.84,25.65c17.8,0,23.94-13.16,24.15-19H59.72z"/>
<path class="st1" d="M595.28,66.08c0,8.34-5.56,13.71-12.13,13.71c-6.58,0-12.04-5.46-12.04-13.71v-0.19
	c0-8.24,5.46-13.71,12.04-13.71c6.57,0,12.13,5.46,12.13,13.71V66.08z M607.95,66.08v-0.19c0-16.58-11.02-25.65-22.6-25.65
	c-7.32,0-12.04,3.43-15.47,8.06v-7.13h-13.23v64.46h13.23v-21.3c3.33,3.98,7.96,7.41,15.47,7.41
	C597.12,91.73,607.95,82.65,607.95,66.08z"/>
<path class="st1" d="M548.05,90.8V58.48c0-11.95-6.3-18.24-16.76-18.24c-6.76,0-11.95,2.78-16.3,7.87c-2.59-5-7.5-7.87-13.99-7.87
	c-7.13,0-11.39,3.8-14.63,7.96v-7.04H472.3V90.8h14.08V63.11c0-6.67,3.24-10.1,8.52-10.1c5.28,0,8.24,3.43,8.24,10.1V90.8h14.08
	V63.11c0-6.67,3.24-10.1,8.52-10.1c5.28,0,8.24,3.43,8.24,10.1V90.8H548.05z"/>
<path class="st1" d="M439.38,81.74c-3.99,0-6.43-2.09-6.43-4.74c0-3.06,1.47-4.64,5.87-5.28c9.16-1.35,11.41-2.71,11.41-2.71
	C451.58,80.2,443.64,81.74,439.38,81.74z M463.88,90.78c0,0-0.08-23.87-0.08-32.23c0-9.89-7.68-18.32-22.15-18.32
	c-14.71,0-21.42,8.29-21.42,19.16h13.14c0.17-1.15-0.43-7.03,7.86-7.03c5.98,0,8.86,1.76,8.86,4.78c0,8.3-30.43-1.26-30.43,20.78
	c0,10.69,7.8,13.99,15.12,13.99c11.25,0,15.31-6.35,15.31-6.35l-0.12,5.2L463.88,90.78z"/>
<path class="st1" d="M401.15,72.91c-0.64,2.75-3.78,6.87-10.36,6.87c-7.69,0-12.59-6.11-12.59-13.71v-0.19
	c0-7.32,5-13.52,12.04-13.52c6.9,0,9.99,3.77,10.92,7.02h13.14c-0.21-6.2-5.9-19.15-23.97-19.15c-15.19,0-26.02,11.67-26.02,25.84
	v0.18c0,14.17,10.93,25.65,25.84,25.65c17.8,0,23.94-13.16,24.15-19H401.15z"/>
<g>
	<path class="st0" d="M301.31,79.05c0,0-1.86,0.2-5,0.2c-3.14,0-4.93-1.97-4.93-5.24V53.2h10.26V41.16h-10.26V28.48H277.3v12.69
		h-7.89V53.2h7.89v22.65c0,11.49,5.77,15.5,14.45,15.5c6.06,0,9.56-0.59,9.56-0.59V79.05z"/>
</g>
<path class="st1" d="M285.94,140.25c-0.12-2.92-2.45-4.34-5.31-4.34c-2.86,0-5.09,1.4-5.09,4.22c0,2.52,1.68,3.45,5.13,4.22
	c1.58,0.34,2.92,0.67,2.92,1.99c0,1.12-0.95,1.81-2.6,1.81c-1.74,0-2.98-0.85-3.21-2.78h-2.62c0.12,3.25,2.74,5.03,5.8,5.03
	c2.84,0,5.19-1.5,5.19-4.3c0-2.58-1.77-3.35-4.87-4c-1.76-0.39-3.22-0.77-3.22-2.13c0-1.2,0.95-1.83,2.52-1.83
	c1.42,0,2.58,0.57,2.76,2.11H285.94z"/>
<polygon class="st1" points="262.37,136.24 262.37,138.63 266.93,138.63 266.93,150.05 269.45,150.05 269.45,138.63 274.01,138.63 
	274.01,136.24 "/>
<path class="st1" d="M258.25,144.27c1.77-0.61,2.76-2.15,2.76-3.93c0-2.13-1.36-4.1-4.42-4.1h-5.96v13.81h2.53v-5.21h2.66l3.08,5.21
	h2.96L258.25,144.27z M256.22,142.58h-3.06v-3.94h3.23c1.36,0,2.05,0.85,2.05,1.91C258.44,141.71,257.64,142.58,256.22,142.58z"/>
<polygon class="st1" points="238.7,150.05 248.25,150.05 248.25,147.66 241.23,147.66 241.23,144.27 247.32,144.27 247.32,141.87 
	241.23,141.87 241.23,138.63 247.89,138.63 247.89,136.24 238.7,136.24 "/>
<path class="st1" d="M232.13,136.24h-6.06v13.81h2.52v-4.89h3.25c3.08,0,4.64-2.15,4.64-4.58
	C236.49,138.33,235.07,136.24,232.13,136.24z M231.62,142.83h-3.02v-4.2h3.12c1.44,0,2.21,0.85,2.21,2.07
	C233.93,141.98,233.1,142.83,231.62,142.83z"/>
<polygon class="st1" points="215.9,142.91 210.93,150.05 214.05,150.05 217.38,145.04 220.73,150.05 223.89,150.05 218.9,142.85 
	223.47,136.24 220.4,136.24 217.4,140.74 214.4,136.24 211.27,136.24 "/>
<polygon class="st1" points="200.08,150.05 209.63,150.05 209.63,147.66 202.61,147.66 202.61,144.27 208.7,144.27 208.7,141.87 
	202.61,141.87 202.61,138.63 209.27,138.63 209.27,136.24 200.08,136.24 "/>
<polygon class="st1" points="183.42,150.05 192.96,150.05 192.96,147.66 185.94,147.66 185.94,144.27 192.04,144.27 192.04,141.87 
	185.94,141.87 185.94,138.63 192.61,138.63 192.61,136.24 183.42,136.24 "/>
<path class="st1" d="M178.37,144.94c-0.1,2.05-1.66,3.1-3.59,3.1c-2.9,0-4.16-2.33-4.16-4.89c0-2.86,1.56-4.89,4.24-4.89
	c1.93,0,3.27,1.09,3.41,2.62h2.58c-0.26-3.12-2.7-4.97-5.9-4.97c-4.16,0-6.9,3.12-6.9,7.3c0,3.71,2.13,7.2,6.67,7.2
	c3.27,0,6.08-1.83,6.21-5.46H178.37z"/>
<path class="st1" d="M163.34,144.27c1.78-0.61,2.76-2.15,2.76-3.93c0-2.13-1.36-4.1-4.42-4.1h-5.96v13.81h2.52v-5.21h2.66l3.08,5.21
	h2.96L163.34,144.27z M161.3,142.58h-3.06v-3.94h3.24c1.36,0,2.05,0.85,2.05,1.91C163.53,141.71,162.73,142.58,161.3,142.58z"/>
<path class="st1" d="M150.12,144.98c0,2.05-1.16,3-3.04,3c-1.97,0-3.21-1.06-3.21-3.21v-8.52h-2.52v8.64c0,3.63,2.39,5.52,5.68,5.52
	c3.31,0,5.62-1.91,5.62-5.52v-8.64h-2.52V144.98z"/>
<path class="st1" d="M132.11,135.91c-4.36,0-6.82,3.29-6.82,7.24c0,3.96,2.46,7.26,6.82,7.26c4.38,0,6.82-3.29,6.82-7.24
	C138.94,139.2,136.49,135.91,132.11,135.91z M132.11,147.94c-2.8,0-4.26-2.21-4.26-4.81s1.48-4.75,4.26-4.75
	c2.82,0,4.26,2.21,4.26,4.81C136.37,145.79,134.92,147.94,132.11,147.94z"/>
<path class="st1" d="M123.28,140.25c-0.12-2.92-2.45-4.34-5.31-4.34s-5.09,1.4-5.09,4.22c0,2.52,1.68,3.45,5.13,4.22
	c1.58,0.34,2.92,0.67,2.92,1.99c0,1.12-0.95,1.81-2.6,1.81c-1.74,0-2.98-0.85-3.21-2.78h-2.62c0.12,3.25,2.74,5.03,5.8,5.03
	c2.84,0,5.19-1.5,5.19-4.3c0-2.58-1.77-3.35-4.87-4c-1.76-0.39-3.21-0.77-3.21-2.13c0-1.2,0.95-1.83,2.52-1.83
	c1.42,0,2.58,0.57,2.76,2.11H123.28z"/>
<polygon class="st1" points="102.9,136.24 102.9,145.97 96.65,136.24 93.89,136.24 93.89,150.05 96.4,150.05 96.4,140.21 
	102.77,150.05 105.41,150.05 105.41,136.24 "/>
<polygon class="st1" points="81.96,150.05 91.5,150.05 91.5,147.66 84.48,147.66 84.48,144.27 90.58,144.27 90.58,141.87 
	84.48,141.87 84.48,138.63 91.15,138.63 91.15,136.24 81.96,136.24 "/>
<path class="st1" d="M75.39,136.24h-6.06v13.81h2.52v-4.89h3.25c3.08,0,4.64-2.15,4.64-4.58C79.75,138.33,78.33,136.24,75.39,136.24
	z M74.88,142.83h-3.02v-4.2h3.12c1.44,0,2.21,0.85,2.21,2.07C77.18,141.98,76.36,142.83,74.88,142.83z"/>
<path class="st1" d="M60.3,135.91c-4.36,0-6.82,3.29-6.82,7.24c0,3.96,2.46,7.26,6.82,7.26c4.38,0,6.82-3.29,6.82-7.24
	C67.13,139.2,64.68,135.91,60.3,135.91z M60.3,147.94c-2.8,0-4.26-2.21-4.26-4.81s1.48-4.75,4.26-4.75c2.82,0,4.26,2.21,4.26,4.81
	C64.56,145.79,63.1,147.94,60.3,147.94z"/>
<polygon class="st1" points="42.77,142.34 39.45,136.24 36.46,136.24 41.47,144.55 41.47,150.05 44.01,150.05 44.01,144.55 
	49,136.24 46.08,136.24 "/>
<path class="st1" d="M33.26,142.77c1.38-0.47,2.09-1.83,2.09-3.16c0-1.66-1.18-3.37-3.71-3.37h-6.53v13.81h6.19
	c2.9,0,4.52-1.89,4.52-3.92C35.82,144.65,34.96,143.25,33.26,142.77z M27.64,138.63h3.43c1.18,0,1.74,0.67,1.74,1.5
	c0,0.89-0.63,1.68-1.91,1.68h-3.25V138.63z M31.07,147.66h-3.43v-3.79h3.57c1.38,0,2.09,0.87,2.09,1.83
	C33.3,146.7,32.59,147.66,31.07,147.66z"/>
<path class="st1" d="M264.68,117.95c-0.12-2.92-2.45-4.34-5.31-4.34c-2.86,0-5.09,1.4-5.09,4.22c0,2.52,1.68,3.45,5.13,4.22
	c1.58,0.34,2.92,0.67,2.92,1.99c0,1.12-0.95,1.81-2.6,1.81c-1.74,0-2.98-0.85-3.21-2.78h-2.62c0.12,3.25,2.74,5.03,5.8,5.03
	c2.84,0,5.19-1.5,5.19-4.3c0-2.58-1.77-3.35-4.87-4c-1.76-0.39-3.21-0.77-3.21-2.13c0-1.2,0.95-1.83,2.52-1.83
	c1.42,0,2.58,0.57,2.76,2.11H264.68z"/>
<polygon class="st1" points="248.64,113.95 248.64,123.67 242.39,113.95 239.63,113.95 239.63,127.75 242.13,127.75 242.13,117.91 
	248.5,127.75 251.15,127.75 251.15,113.95 "/>
<path class="st1" d="M230.2,113.61c-4.36,0-6.82,3.29-6.82,7.24c0,3.96,2.47,7.26,6.82,7.26c4.38,0,6.82-3.29,6.82-7.24
	C237.02,116.91,234.58,113.61,230.2,113.61z M230.2,125.64c-2.8,0-4.26-2.21-4.26-4.81c0-2.6,1.48-4.75,4.26-4.75
	c2.82,0,4.26,2.21,4.26,4.81C234.46,123.49,233,125.64,230.2,125.64z"/>
<rect x="218.15" y="113.95" class="st1" width="2.52" height="13.81"/>
<polygon class="st1" points="204.48,113.95 204.48,116.33 209.04,116.33 209.04,127.75 211.56,127.75 211.56,116.33 216.12,116.33 
	216.12,113.95 "/>
<path class="st1" d="M200.22,122.69c0,2.05-1.16,3-3.04,3c-1.97,0-3.21-1.06-3.21-3.21v-8.52h-2.52v8.64c0,3.63,2.39,5.52,5.68,5.52
	c3.31,0,5.62-1.91,5.62-5.52v-8.64h-2.52V122.69z"/>
<polygon class="st1" points="183.08,125.37 183.08,113.95 180.56,113.95 180.56,127.75 189.55,127.75 189.55,125.37 "/>
<path class="st1" d="M171.13,113.61c-4.36,0-6.82,3.29-6.82,7.24c0,3.96,2.47,7.26,6.82,7.26c4.38,0,6.82-3.29,6.82-7.24
	C177.95,116.91,175.51,113.61,171.13,113.61z M171.13,125.64c-2.8,0-4.26-2.21-4.26-4.81c0-2.6,1.48-4.75,4.26-4.75
	c2.82,0,4.26,2.21,4.26,4.81C175.39,123.49,173.93,125.64,171.13,125.64z"/>
<path class="st1" d="M162.29,117.95c-0.12-2.92-2.45-4.34-5.31-4.34c-2.86,0-5.09,1.4-5.09,4.22c0,2.52,1.68,3.45,5.13,4.22
	c1.58,0.34,2.92,0.67,2.92,1.99c0,1.12-0.95,1.81-2.6,1.81c-1.74,0-2.98-0.85-3.21-2.78h-2.62c0.12,3.25,2.74,5.03,5.8,5.03
	c2.84,0,5.19-1.5,5.19-4.3c0-2.58-1.77-3.35-4.87-4c-1.76-0.39-3.21-0.77-3.21-2.13c0-1.2,0.95-1.83,2.52-1.83
	c1.42,0,2.58,0.57,2.76,2.11H162.29z"/>
<polygon class="st1" points="134.44,127.75 143.99,127.75 143.99,125.37 136.97,125.37 136.97,121.98 143.06,121.98 143.06,119.57 
	136.97,119.57 136.97,116.33 143.63,116.33 143.63,113.95 134.44,113.95 "/>
<polygon class="st1" points="125.94,124.46 122.11,113.95 119.39,113.95 124.8,127.75 127.03,127.75 132.45,113.95 129.77,113.95 
	"/>
<rect x="114.76" y="113.95" class="st1" width="2.52" height="13.81"/>
<polygon class="st1" points="101.09,113.95 101.09,116.33 105.65,116.33 105.65,127.75 108.17,127.75 108.17,116.33 112.73,116.33 
	112.73,113.95 "/>
<path class="st1" d="M96.45,113.95h-2.8l-5.46,13.81h2.74l1.2-3.27h5.78l1.2,3.27h2.8L96.45,113.95z M92.96,122.11l2.05-5.54
	l2.05,5.54H92.96z"/>
<polygon class="st1" points="82.06,124.46 78.23,113.95 75.51,113.95 80.91,127.75 83.14,127.75 88.57,113.95 85.88,113.95 "/>
<polygon class="st1" points="55.98,113.95 55.98,123.67 49.73,113.95 46.97,113.95 46.97,127.75 49.47,127.75 49.47,117.91 
	55.84,127.75 58.49,127.75 58.49,113.95 "/>
<polygon class="st1" points="40.54,113.95 40.54,123.67 34.29,113.95 31.52,113.95 31.52,127.75 34.03,127.75 34.03,117.91 
	40.4,127.75 43.04,127.75 43.04,113.95 "/>
<rect x="25.21" y="113.95" class="st1" width="2.52" height="13.81"/>
<path class="st1" d="M68.15,113.61c-4.36,0-6.82,3.29-6.82,7.24c0,3.96,2.47,7.26,6.82,7.26c4.38,0,6.82-3.29,6.82-7.24
	C74.98,116.91,72.53,113.61,68.15,113.61z M68.15,125.64c-2.8,0-4.26-2.21-4.26-4.81c0-2.6,1.48-4.75,4.26-4.75
	c2.82,0,4.26,2.21,4.26,4.81C72.41,123.49,70.95,125.64,68.15,125.64z"/>
<g>
	<rect x="617.49" y="20.58" class="st0" width="2.29" height="2.29"/>
	<rect x="615.2" y="22.87" class="st0" width="2.29" height="2.29"/>
	<rect x="612.92" y="25.15" class="st0" width="2.29" height="2.29"/>
	<rect x="610.63" y="27.44" class="st0" width="2.29" height="2.29"/>
	<rect x="608.34" y="29.73" class="st0" width="2.29" height="4.57"/>
	<polygon class="st0" points="626.64,32.02 626.64,29.73 624.35,29.73 624.35,25.15 622.06,25.15 622.06,22.87 619.78,22.87 
		619.78,27.44 617.49,27.44 617.49,29.73 619.78,29.73 619.78,32.02 617.49,32.02 617.49,29.73 615.2,29.73 615.2,32.02 
		612.92,32.02 612.92,34.3 610.63,34.3 610.63,36.59 608.34,36.59 608.34,34.3 606.06,34.3 606.06,41.16 628.93,41.16 628.93,32.02 
			"/>
</g>
</svg>
