<svg width="736" height="312" viewBox="0 0 736 312" fill="none" xmlns="http://www.w3.org/2000/svg">
<path d="M582.188 216.389H595.606C621.1 216.389 638.879 201.629 638.879 179.321V97.3024H618.417V179.321C618.417 191.9 609.695 198.274 595.606 198.274H582.188C568.099 198.274 559.377 191.9 559.377 179.321V97.3024H538.914V179.321C538.914 201.629 556.693 216.389 582.188 216.389ZM465.617 214.711H486.416V115.752H524.657V97.3024H427.376V115.752H465.617V214.711ZM346.531 156.175V115.752H376.554C390.476 115.752 399.198 123.132 399.198 135.88C399.198 148.627 390.476 156.175 376.554 156.175H346.531ZM326.069 214.711H346.531V174.289H378.567L398.359 214.711H421.337L398.191 168.922C410.938 162.213 419.66 149.801 419.66 135.88C419.66 114.914 400.204 97.3024 376.554 97.3024H326.069V214.711ZM228.451 199.113C212.182 199.113 202.454 191.565 202.454 180.663C202.454 169.09 213.356 159.361 232.141 159.361C248.579 159.361 261.829 165.232 271.389 177.476C261.661 190.055 246.23 199.113 228.451 199.113ZM135.363 214.711H156.161V115.752H194.403V97.3024H97.1211V115.752H135.363V214.711ZM228.451 217.227C248.746 217.227 267.699 208.841 281.285 195.758C283.466 201.293 285.143 207.667 286.485 214.711H307.115C304.767 201.796 300.574 189.552 294.368 178.985C300.071 169.09 303.258 157.852 303.258 146.279C303.258 115.417 279.273 95.6251 247.237 95.6251C234.437 95.6028 221.866 99.0207 210.84 105.521L220.4 122.126C228.619 117.262 237.341 114.243 247.237 114.243C269.041 114.243 282.459 127.326 282.459 146.279C282.459 151.143 281.621 155.839 280.279 160.535C267.867 148.795 251.765 141.582 232.141 141.582C195.912 141.582 181.656 162.884 181.656 180.663C181.656 202.299 200.776 217.227 228.451 217.227Z" fill="#F14C2A"/>
</svg>
