<svg width="904" height="904" viewBox="0 0 904 904" fill="none" xmlns="http://www.w3.org/2000/svg">
<rect width="904" height="904" fill="#176FC1"/>
<circle cx="452" cy="452" r="412" fill="white"/>
<path d="M94 484.737V397.057H99.8418L154.795 452.008V397.057H172.332V484.737H165.903L111.536 430.375V484.737H94Z" fill="#231F20"/>
<path d="M283.432 484.737V397.111L219.012 397.057V413.426H265.895V432.13H239.184V448.44H265.895V468.373H219.128V484.737H283.432Z" fill="#231F20"/>
<path d="M524.566 397.057V413.426H495.34V484.737H477.804V413.426H448.578V397.057H524.566Z" fill="#231F20"/>
<path d="M574.198 472.145C565.804 463.787 561.605 453.316 561.605 440.726C561.645 428.41 565.853 418.056 574.231 409.655C582.608 401.255 592.998 397.057 605.392 397.057C617.896 397.057 628.64 400.953 637.6 408.753L625.908 421.552C619.941 416.872 613.11 414.535 605.392 414.535C597.513 414.572 591.176 417.028 586.358 421.902C581.543 426.771 579.138 433.008 579.138 440.601C579.182 448.751 581.616 455.219 586.445 460.016C591.282 464.808 597.637 467.204 605.5 467.204C611.821 467.204 616.675 465.958 620.063 463.462V448.44L608.368 448.498V432.13H637.6V473.05C628.675 480.847 617.934 484.737 605.392 484.737C592.998 484.704 582.6 480.501 574.198 472.145Z" fill="#176FC1"/>
<path d="M683.98 484.737H701.464V397H683.98V484.737Z" fill="#176FC1"/>
<path d="M795.258 399.977C799.742 401.927 803.93 404.849 807.823 408.752L796.139 420.439C792.237 415.757 786.787 413.425 779.766 413.425C772.75 413.425 768.267 415.077 766.317 418.39C764.369 421.704 764.369 424.534 766.317 426.865C768.267 429.209 772.75 430.963 779.766 432.13C787.166 432.911 793.898 435.345 799.935 439.436C805.972 443.528 809 450.059 809 459.016C809 466.036 805.768 472.074 799.318 477.141C792.87 482.209 785.359 484.737 776.78 484.737C768.642 484.737 761.838 483.572 756.391 481.236C750.928 478.897 746.256 475.78 742.352 471.876L754.045 460.189C757.94 464.87 764.565 467.592 773.927 468.372C781.721 468.372 786.581 466.718 788.503 463.404C790.434 460.091 790.434 456.778 788.503 453.462C786.581 450.157 781.721 448.108 773.927 447.328C766.907 446.546 760.478 444.407 754.634 440.899C748.78 437.392 745.862 431.35 745.862 422.778C745.862 415.02 749.185 408.798 755.826 404.101C762.472 399.402 769.307 397.056 776.315 397.056C784.46 397.056 790.782 398.03 795.258 399.977Z" fill="#176FC1"/>
<path d="M385.234 431.081L410.081 397.056H389.502L374.895 416.969L385.234 431.081Z" fill="#231F20"/>
<path d="M379.395 439.058L348.584 397.056H328.002L358.691 439.086L325.195 484.737H346.008L379.395 439.058Z" fill="#176FC1"/>
<path d="M385.233 447.048L374.879 461.212L392.079 484.737H412.888L385.233 447.048Z" fill="#231F20"/>
</svg>
