<?xml version="1.0" encoding="UTF-8" standalone="no"?>
<!-- Created with Inkscape (http://www.inkscape.org/) -->

<svg
   width="455.20001"
   height="165.33334"
   viewBox="0 0 120.43834 43.744447"
   version="1.1"
   id="svg1"
   xml:space="preserve"
   xmlns="http://www.w3.org/2000/svg"
   xmlns:svg="http://www.w3.org/2000/svg"><defs
     id="defs1"><clipPath
       clipPathUnits="userSpaceOnUse"
       id="clipPath2"><path
         d="M 0,124 H 341.4 V 0 H 0 Z"
         transform="translate(-52.300001,-50.500001)"
         id="path2" /></clipPath><clipPath
       clipPathUnits="userSpaceOnUse"
       id="clipPath4"><path
         d="M 0,124 H 341.4 V 0 H 0 Z"
         transform="translate(-148.40001,-84.000002)"
         id="path4" /></clipPath><clipPath
       clipPathUnits="userSpaceOnUse"
       id="clipPath6"><path
         d="M 0,124 H 341.4 V 0 H 0 Z"
         transform="translate(-113.00001,-54.300002)"
         id="path6" /></clipPath><clipPath
       clipPathUnits="userSpaceOnUse"
       id="clipPath8"><path
         d="M 0,124 H 341.4 V 0 H 0 Z"
         transform="translate(-209.30001,-50.900001)"
         id="path8" /></clipPath><clipPath
       clipPathUnits="userSpaceOnUse"
       id="clipPath10"><path
         d="M 0,124 H 341.4 V 0 H 0 Z"
         transform="translate(-209.30001,-88.400002)"
         id="path10" /></clipPath><clipPath
       clipPathUnits="userSpaceOnUse"
       id="clipPath12"><path
         d="M 0,124 H 341.4 V 0 H 0 Z"
         transform="translate(-234.30001,-50.900001)"
         id="path12" /></clipPath><clipPath
       clipPathUnits="userSpaceOnUse"
       id="clipPath14"><path
         d="M 0,124 H 341.4 V 0 H 0 Z"
         transform="translate(-234.30001,-88.400002)"
         id="path14" /></clipPath><clipPath
       clipPathUnits="userSpaceOnUse"
       id="clipPath16"><path
         d="M 0,124 H 341.4 V 0 H 0 Z"
         transform="translate(-225.50001,-79.600002)"
         id="path16" /></clipPath><clipPath
       clipPathUnits="userSpaceOnUse"
       id="clipPath18"><path
         d="M 0,124 H 341.4 V 0 H 0 Z"
         transform="translate(-268.3,-83.400002)"
         id="path18" /></clipPath><clipPath
       clipPathUnits="userSpaceOnUse"
       id="clipPath20"><path
         d="M 0,124 H 341.4 V 0 H 0 Z"
         transform="translate(-200.70001,-67.900002)"
         id="path20" /></clipPath><clipPath
       clipPathUnits="userSpaceOnUse"
       id="clipPath22"><path
         d="M 0,124 H 341.4 V 0 H 0 Z"
         transform="translate(-320.20001,-72.400002)"
         id="path22" /></clipPath><clipPath
       clipPathUnits="userSpaceOnUse"
       id="clipPath24"><path
         d="M 0,124 H 341.4 V 0 H 0 Z"
         transform="translate(-52.300001,-50.500001)"
         id="path24" /></clipPath><clipPath
       clipPathUnits="userSpaceOnUse"
       id="clipPath26"><path
         d="M 0,124 H 341.4 V 0 H 0 Z"
         transform="translate(-148.40001,-84.000002)"
         id="path26" /></clipPath><clipPath
       clipPathUnits="userSpaceOnUse"
       id="clipPath28"><path
         d="M 0,124 H 341.4 V 0 H 0 Z"
         transform="translate(-113.00001,-54.300002)"
         id="path28" /></clipPath><clipPath
       clipPathUnits="userSpaceOnUse"
       id="clipPath30"><path
         d="M 0,124 H 341.4 V 0 H 0 Z"
         transform="translate(-209.30001,-50.900001)"
         id="path30" /></clipPath><clipPath
       clipPathUnits="userSpaceOnUse"
       id="clipPath32"><path
         d="M 0,124 H 341.4 V 0 H 0 Z"
         transform="translate(-209.30001,-88.400002)"
         id="path32" /></clipPath><clipPath
       clipPathUnits="userSpaceOnUse"
       id="clipPath34"><path
         d="M 0,124 H 341.4 V 0 H 0 Z"
         transform="translate(-234.30001,-50.900001)"
         id="path34" /></clipPath><clipPath
       clipPathUnits="userSpaceOnUse"
       id="clipPath36"><path
         d="M 0,124 H 341.4 V 0 H 0 Z"
         transform="translate(-234.30001,-88.400002)"
         id="path36" /></clipPath><clipPath
       clipPathUnits="userSpaceOnUse"
       id="clipPath38"><path
         d="M 0,124 H 341.4 V 0 H 0 Z"
         transform="translate(-225.50001,-79.600002)"
         id="path38" /></clipPath><clipPath
       clipPathUnits="userSpaceOnUse"
       id="clipPath40"><path
         d="M 0,124 H 341.4 V 0 H 0 Z"
         transform="translate(-268.3,-83.400002)"
         id="path40" /></clipPath><clipPath
       clipPathUnits="userSpaceOnUse"
       id="clipPath42"><path
         d="M 0,124 H 341.4 V 0 H 0 Z"
         transform="translate(-200.70001,-67.900002)"
         id="path42" /></clipPath><clipPath
       clipPathUnits="userSpaceOnUse"
       id="clipPath44"><path
         d="M 0,124 H 341.4 V 0 H 0 Z"
         transform="translate(-320.20001,-72.400002)"
         id="path44" /></clipPath></defs><g
     id="layer-MC0"
     transform="matrix(0.26458333,0,0,0.26458334,7.2283465e-6,0)"><path
       id="path1"
       d="m 0,0 c -11.7,0 -21.2,9.5 -21.2,21.2 0,11.7 9.5,21.2 21.2,21.2 11.7,0 21.2,-9.5 21.2,-21.2 C 21.2,9.4 11.7,0 0,0 M 31.3,21.1 C 31.4,38.4 17.5,52.5 0.3,52.6 -16.8,52.7 -30.8,39.1 -31.2,22.1 v -0.6 -0.5 -0.5 -50 c 0,0 7.9,17.5 33,19.3 16.6,1 29.5,14.7 29.5,31.3"
       style="fill:#29a3de;fill-opacity:1;fill-rule:nonzero;stroke:none"
       transform="matrix(1.3333333,0,0,-1.3333333,69.666639,98.067033)"
       clip-path="url(#clipPath2)" /><path
       id="path3"
       d="m 0,0 c -9.3,0 -16.8,-7.5 -16.8,-16.8 0,-9.3 7.5,-16.8 16.8,-16.8 9.3,0 16.8,7.5 16.8,16.8 C 16.8,-7.5 9.3,0 0,0 m 0,-3.9 c 7.1,0 12.9,-5.8 12.9,-12.9 0,-7.1 -5.8,-12.9 -12.9,-13 -7.1,0 -12.9,5.8 -13,12.9 0.1,7.2 5.9,13 13,13"
       style="fill:#29a3de;fill-opacity:1;fill-rule:nonzero;stroke:none"
       transform="matrix(1.3333333,0,0,-1.3333333,197.79998,53.400369)"
       clip-path="url(#clipPath4)" /><path
       id="path5"
       d="m 0,0 c -7.1,0 -12.9,5.9 -12.9,13 0,7.1 5.9,12.9 13,12.9 C 7.2,25.9 13,20.1 13,12.9 13,5.7 7.2,-0.1 0,0 0,-0.1 0,-0.1 0,0 m 0,29.7 c -9,0 -16.4,-7.2 -16.7,-16.3 v -31.2 l 3.8,3.4 V 2.2 C -7,-4.9 3.6,-5.9 10.8,0 c 7.1,5.9 8.1,16.5 2.2,23.7 -3.3,3.8 -8,6 -13,6"
       style="fill:#29a3de;fill-opacity:1;fill-rule:nonzero;stroke:none"
       transform="matrix(1.3333333,0,0,-1.3333333,150.59998,93.000373)"
       clip-path="url(#clipPath6)" /><path
       id="path7"
       d="m 0,0 -3.9,-0.5 v 33 L 0,33.1 Z"
       style="fill:#29a3de;fill-opacity:1;fill-rule:nonzero;stroke:none"
       transform="matrix(1.3333333,0,0,-1.3333333,278.99998,97.533703)"
       clip-path="url(#clipPath8)" /><path
       id="path9"
       d="M 0,0 -3.9,-0.9 V 4.4 L 0,5.2 Z"
       style="fill:#29a3de;fill-opacity:1;fill-rule:nonzero;stroke:none"
       transform="matrix(1.3333333,0,0,-1.3333333,278.99998,47.533699)"
       clip-path="url(#clipPath10)" /><path
       id="path11"
       d="m 0,0 -3.9,-0.5 v 33 L 0,33.1 Z"
       style="fill:#29a3de;fill-opacity:1;fill-rule:nonzero;stroke:none"
       transform="matrix(1.3333333,0,0,-1.3333333,312.33331,97.533703)"
       clip-path="url(#clipPath12)" /><path
       id="path13"
       d="M 0,0 -3.9,-0.9 V 4.4 L 0,5.2 Z"
       style="fill:#29a3de;fill-opacity:1;fill-rule:nonzero;stroke:none"
       transform="matrix(1.3333333,0,0,-1.3333333,312.33331,47.533699)"
       clip-path="url(#clipPath14)" /><path
       id="path15"
       d="M 0,0 V 3.9 H -5.7 V 14 L -9.6,13.2 V -20 c 0,-5.2 4.2,-9.3 9.4,-9.3 h 0.1 v 3.9 c -3.1,-0.1 -5.6,2.3 -5.7,5.4 V 0 Z"
       style="fill:#29a3de;fill-opacity:1;fill-rule:nonzero;stroke:none"
       transform="matrix(1.3333333,0,0,-1.3333333,300.59998,59.267029)"
       clip-path="url(#clipPath16)" /><path
       id="path17"
       d="m 0,0 v -16.2 c 0,-7.1 -5.8,-12.9 -12.9,-12.9 -7.1,0 -12.9,5.8 -12.9,12.9 V 0.6 l -3.9,-0.5 v -16.5 c 0.1,-9.3 7.7,-16.7 17,-16.6 4.9,0 9.6,2.3 12.8,6.1 V -33 L 4,-32.5 V 0.6 Z"
       style="fill:#29a3de;fill-opacity:1;fill-rule:nonzero;stroke:none"
       transform="matrix(1.3333333,0,0,-1.3333333,357.66664,54.200369)"
       clip-path="url(#clipPath18)" /><path
       id="path19"
       d="M 0,0 C 0,0.4 -0.3,1.2 -1.7,1.2 H -27 c -1.6,0 -2.6,0.7 -2.3,1.4 1.8,6.9 8.9,11 15.8,9.1 3.1,-0.8 5.8,-2.8 7.5,-5.5 l 3.7,1.4 c -4.7,8 -14.9,10.7 -23,6.1 -5.2,-3 -8.4,-8.5 -8.4,-14.5 v -0.6 c 0,-0.7 0.6,-1.3 1.3,-1.3 h 0.1 25.9 c 1.4,0 2.2,-0.4 2.1,-1.1 -1.6,-6.9 -8.5,-11.3 -15.5,-9.7 -3.2,0.7 -6,2.6 -7.8,5.3 l -3.7,-1.4 c 4.8,-7.9 15.1,-10.4 23.1,-5.6 5,3 8.1,8.5 8.1,14.3 C 0,-0.5 0,-0.2 0,0"
       style="fill:#29a3de;fill-opacity:1;fill-rule:nonzero;stroke:none"
       transform="matrix(1.3333333,0,0,-1.3333333,267.53331,74.867029)"
       clip-path="url(#clipPath20)" /><path
       id="path21"
       d="m 0,0 c -0.2,6.6 -5.8,11.8 -12.4,11.6 -4,-0.1 -7.7,-2.2 -9.8,-5.6 -3.5,5.7 -10.8,7.4 -16.5,4 -3.5,-2.1 -5.7,-6 -5.7,-10.1 V -22 l 3.9,0.5 v 21 c 0,4.5 3.7,8.2 8.2,8.2 4.5,0 8.2,-3.7 8.2,-8.2 H -24 V -22 l 3.9,0.5 v 21 c 0,4.5 3.7,8.2 8.2,8.2 4.5,0 8.2,-3.7 8.2,-8.2 V -22 l 3.9,0.5 z"
       style="fill:#29a3de;fill-opacity:1;fill-rule:nonzero;stroke:none"
       transform="matrix(1.3333333,0,0,-1.3333333,426.86664,68.867029)"
       clip-path="url(#clipPath22)" /><path
       id="path23"
       d="m 0,0 c -11.7,0 -21.2,9.5 -21.2,21.2 0,11.7 9.5,21.2 21.2,21.2 11.7,0 21.2,-9.5 21.2,-21.2 C 21.2,9.4 11.7,0 0,0 M 31.3,21.1 C 31.4,38.4 17.5,52.5 0.3,52.6 -16.8,52.7 -30.8,39.1 -31.2,22.1 v -0.6 -0.5 -0.5 -50 c 0,0 7.9,17.5 33,19.3 16.6,1 29.5,14.7 29.5,31.3"
       style="fill:#29a3de;fill-opacity:1;fill-rule:nonzero;stroke:none"
       transform="matrix(1.3333333,0,0,-1.3333333,69.666639,98.067033)"
       clip-path="url(#clipPath24)" /><path
       id="path25"
       d="m 0,0 c -9.3,0 -16.8,-7.5 -16.8,-16.8 0,-9.3 7.5,-16.8 16.8,-16.8 9.3,0 16.8,7.5 16.8,16.8 C 16.8,-7.5 9.3,0 0,0 m 0,-3.9 c 7.1,0 12.9,-5.8 12.9,-12.9 0,-7.1 -5.8,-12.9 -12.9,-13 -7.1,0 -12.9,5.8 -13,12.9 0.1,7.2 5.9,13 13,13"
       style="fill:#29a3de;fill-opacity:1;fill-rule:nonzero;stroke:none"
       transform="matrix(1.3333333,0,0,-1.3333333,197.79998,53.400369)"
       clip-path="url(#clipPath26)" /><path
       id="path27"
       d="m 0,0 c -7.1,0 -12.9,5.9 -12.9,13 0,7.1 5.9,12.9 13,12.9 C 7.2,25.9 13,20.1 13,12.9 13,5.7 7.2,-0.1 0,0 0,-0.1 0,-0.1 0,0 m 0,29.7 c -9,0 -16.4,-7.2 -16.7,-16.3 v -31.2 l 3.8,3.4 V 2.2 C -7,-4.9 3.6,-5.9 10.8,0 c 7.1,5.9 8.1,16.5 2.2,23.7 -3.3,3.8 -8,6 -13,6"
       style="fill:#29a3de;fill-opacity:1;fill-rule:nonzero;stroke:none"
       transform="matrix(1.3333333,0,0,-1.3333333,150.59998,93.000373)"
       clip-path="url(#clipPath28)" /><path
       id="path29"
       d="m 0,0 -3.9,-0.5 v 33 L 0,33.1 Z"
       style="fill:#29a3de;fill-opacity:1;fill-rule:nonzero;stroke:none"
       transform="matrix(1.3333333,0,0,-1.3333333,278.99998,97.533703)"
       clip-path="url(#clipPath30)" /><path
       id="path31"
       d="M 0,0 -3.9,-0.9 V 4.4 L 0,5.2 Z"
       style="fill:#29a3de;fill-opacity:1;fill-rule:nonzero;stroke:none"
       transform="matrix(1.3333333,0,0,-1.3333333,278.99998,47.533699)"
       clip-path="url(#clipPath32)" /><path
       id="path33"
       d="m 0,0 -3.9,-0.5 v 33 L 0,33.1 Z"
       style="fill:#29a3de;fill-opacity:1;fill-rule:nonzero;stroke:none"
       transform="matrix(1.3333333,0,0,-1.3333333,312.33331,97.533703)"
       clip-path="url(#clipPath34)" /><path
       id="path35"
       d="M 0,0 -3.9,-0.9 V 4.4 L 0,5.2 Z"
       style="fill:#29a3de;fill-opacity:1;fill-rule:nonzero;stroke:none"
       transform="matrix(1.3333333,0,0,-1.3333333,312.33331,47.533699)"
       clip-path="url(#clipPath36)" /><path
       id="path37"
       d="M 0,0 V 3.9 H -5.7 V 14 L -9.6,13.2 V -20 c 0,-5.2 4.2,-9.3 9.4,-9.3 h 0.1 v 3.9 c -3.1,-0.1 -5.6,2.3 -5.7,5.4 V 0 Z"
       style="fill:#29a3de;fill-opacity:1;fill-rule:nonzero;stroke:none"
       transform="matrix(1.3333333,0,0,-1.3333333,300.59998,59.267029)"
       clip-path="url(#clipPath38)" /><path
       id="path39"
       d="m 0,0 v -16.2 c 0,-7.1 -5.8,-12.9 -12.9,-12.9 -7.1,0 -12.9,5.8 -12.9,12.9 V 0.6 l -3.9,-0.5 v -16.5 c 0.1,-9.3 7.7,-16.7 17,-16.6 4.9,0 9.6,2.3 12.8,6.1 V -33 L 4,-32.5 V 0.6 Z"
       style="fill:#29a3de;fill-opacity:1;fill-rule:nonzero;stroke:none"
       transform="matrix(1.3333333,0,0,-1.3333333,357.66664,54.200369)"
       clip-path="url(#clipPath40)" /><path
       id="path41"
       d="M 0,0 C 0,0.4 -0.3,1.2 -1.7,1.2 H -27 c -1.6,0 -2.6,0.7 -2.3,1.4 1.8,6.9 8.9,11 15.8,9.1 3.1,-0.8 5.8,-2.8 7.5,-5.5 l 3.7,1.4 c -4.7,8 -14.9,10.7 -23,6.1 -5.2,-3 -8.4,-8.5 -8.4,-14.5 v -0.6 c 0,-0.7 0.6,-1.3 1.3,-1.3 h 0.1 25.9 c 1.4,0 2.2,-0.4 2.1,-1.1 -1.6,-6.9 -8.5,-11.3 -15.5,-9.7 -3.2,0.7 -6,2.6 -7.8,5.3 l -3.7,-1.4 c 4.8,-7.9 15.1,-10.4 23.1,-5.6 5,3 8.1,8.5 8.1,14.3 C 0,-0.5 0,-0.2 0,0"
       style="fill:#29a3de;fill-opacity:1;fill-rule:nonzero;stroke:none"
       transform="matrix(1.3333333,0,0,-1.3333333,267.53331,74.867029)"
       clip-path="url(#clipPath42)" /><path
       id="path43"
       d="m 0,0 c -0.2,6.6 -5.8,11.8 -12.4,11.6 -4,-0.1 -7.7,-2.2 -9.8,-5.6 -3.5,5.7 -10.8,7.4 -16.5,4 -3.5,-2.1 -5.7,-6 -5.7,-10.1 V -22 l 3.9,0.5 v 21 c 0,4.5 3.7,8.2 8.2,8.2 4.5,0 8.2,-3.7 8.2,-8.2 H -24 V -22 l 3.9,0.5 v 21 c 0,4.5 3.7,8.2 8.2,8.2 4.5,0 8.2,-3.7 8.2,-8.2 V -22 l 3.9,0.5 z"
       style="fill:#29a3de;fill-opacity:1;fill-rule:nonzero;stroke:none"
       transform="matrix(1.3333333,0,0,-1.3333333,426.86664,68.867029)"
       clip-path="url(#clipPath44)" /></g></svg>
