<?xml version="1.0" encoding="UTF-8" standalone="no"?>
<!-- Created with Inkscape (http://www.inkscape.org/) -->

<svg
   width="51.977528mm"
   height="18.416414mm"
   viewBox="0 0 51.977528 18.416414"
   version="1.1"
   id="svg1"
   xml:space="preserve"
   xmlns:inkscape="http://www.inkscape.org/namespaces/inkscape"
   xmlns:sodipodi="http://sodipodi.sourceforge.net/DTD/sodipodi-0.dtd"
   xmlns="http://www.w3.org/2000/svg"
   xmlns:svg="http://www.w3.org/2000/svg"><sodipodi:namedview
     id="namedview1"
     pagecolor="#ffffff"
     bordercolor="#000000"
     borderopacity="0.25"
     inkscape:showpageshadow="2"
     inkscape:pageopacity="0.0"
     inkscape:pagecheckerboard="0"
     inkscape:deskcolor="#d1d1d1"
     inkscape:document-units="mm" /><defs
     id="defs1"><style
       id="style1">
      .cls-1 {
        fill: #281f6b;
      }

      .cls-2 {
        fill: #efcc36;
      }

      .cls-3 {
        fill: #d32939;
      }
    </style></defs><g
     inkscape:label="Layer 1"
     inkscape:groupmode="layer"
     id="layer1"
     transform="translate(-79.063562,-139.81567)"><g
       id="g1"
       transform="matrix(0.26458333,0,0,0.26458333,68.73258,137.52244)"><g
         id="Woordmerk"><g
           id="g20"><path
             class="cls-1"
             d="m 132.66,27.8 a 10.2,10.2 0 0 1 3.7,-0.7 c 2.78,0 4.65,1.57 4.65,4.25 0,2.95 -1.76,4.6 -4.7,4.6 a 4.83,4.83 0 0 1 -1.35,-0.17 v 3.4 h -2.3 z m 2.3,6 a 3.42,3.42 0 0 0 1.18,0.17 2.32,2.32 0 0 0 2.56,-2.52 2.16,2.16 0 0 0 -2.37,-2.28 3.79,3.79 0 0 0 -1.37,0.21 z"
             id="path1" /><path
             class="cls-1"
             d="M 145.25,35.76 H 143 v -7.83 a 7.42,7.42 0 0 1 3.38,-0.78 6.08,6.08 0 0 1 1.76,0.23 v 2.2 a 4.65,4.65 0 0 0 -1.71,-0.28 3.9,3.9 0 0 0 -1.15,0.19 z"
             id="path2" /><path
             class="cls-1"
             d="m 153.46,27.1 a 4.43,4.43 0 1 1 0,8.85 4.26,4.26 0 0 1 -4.46,-4.43 4.25,4.25 0 0 1 4.46,-4.42 z m 0,2 a 2.17,2.17 0 0 0 -2.12,2.45 2.15,2.15 0 1 0 4.25,0 2.17,2.17 0 0 0 -2.13,-2.48 z"
             id="path3" /><path
             class="cls-1"
             d="m 161.57,35.76 -3.27,-8.47 h 2.47 l 2.17,6.21 2.16,-6.21 h 2.39 l -3.24,8.47 z"
             id="path4" /><path
             class="cls-1"
             d="m 168.65,24.72 a 1.37,1.37 0 1 1 1.35,1.35 1.37,1.37 0 0 1 -1.35,-1.35 z m 2.5,11 h -2.27 v -8.43 h 2.27 z"
             id="path5" /><path
             class="cls-1"
             d="m 173.56,27.84 a 12.24,12.24 0 0 1 4.05,-0.74 c 2.2,0 3.62,0.81 3.62,3.34 v 5.32 h -2.29 v -5.17 a 1.31,1.31 0 0 0 -1.5,-1.44 5.52,5.52 0 0 0 -1.6,0.24 v 6.37 h -2.28 z"
             id="path6" /><path
             class="cls-1"
             d="m 189.87,29.89 a 3.25,3.25 0 0 0 -2.17,-0.78 2.25,2.25 0 0 0 -2.41,2.39 2.33,2.33 0 0 0 2.51,2.44 3.43,3.43 0 0 0 2.14,-0.76 v 2.14 a 4.63,4.63 0 0 1 -2.46,0.63 4.17,4.17 0 0 1 -4.48,-4.41 4.25,4.25 0 0 1 4.46,-4.44 4.39,4.39 0 0 1 2.41,0.62 z"
             id="path7" /><path
             class="cls-1"
             d="m 191.75,24.72 a 1.36,1.36 0 0 1 1.36,-1.39 1.37,1.37 0 1 1 0,2.74 1.35,1.35 0 0 1 -1.36,-1.35 z m 2.5,11 H 192 v -8.43 h 2.28 z"
             id="path8" /><path
             class="cls-1"
             d="m 198.28,32.15 v 0 a 2.33,2.33 0 0 0 2.48,1.8 5.18,5.18 0 0 0 2.83,-0.76 v 1.94 a 5.45,5.45 0 0 1 -3.06,0.78 4.11,4.11 0 0 1 -4.48,-4.33 c 0,-2.8 1.77,-4.52 4.14,-4.52 2.64,0 3.67,1.74 3.67,4 v 1.06 z m 3.45,-1.37 c 0,-1 -0.51,-1.8 -1.59,-1.8 a 1.9,1.9 0 0 0 -1.84,1.8 z"
             id="path9" /><path
             class="cls-1"
             d="m 132.15,43.47 h 8.2 v 2.11 l -5.56,7.07 h 5.69 v 2.11 h -8.43 v -2.11 l 5.47,-7.07 h -5.37 z"
             id="path10" /><path
             class="cls-1"
             d="m 149.59,54.51 a 14.83,14.83 0 0 1 -3.49,0.44 c -2.45,0 -4,-0.76 -4,-3.27 v -5.39 h 2.3 v 5.2 c 0,1.08 0.48,1.58 1.67,1.58 A 7.16,7.16 0 0 0 147.3,53 v -6.71 h 2.29 z"
             id="path11" /><path
             class="cls-1"
             d="m 151.68,43.72 a 1.37,1.37 0 1 1 1.37,1.35 1.37,1.37 0 0 1 -1.37,-1.35 z m 2.5,11 h -2.27 v -8.43 h 2.27 z"
             id="path12" /><path
             class="cls-1"
             d="m 164.34,54.55 a 14.33,14.33 0 0 1 -3.46,0.4 C 158,55 156,53.39 156,50.54 a 4.2,4.2 0 0 1 4.45,-4.44 4,4 0 0 1 1.59,0.26 v -4.52 h 2.28 z m -2.28,-6.17 a 3.15,3.15 0 0 0 -1.4,-0.27 2.16,2.16 0 0 0 -2.32,2.36 2.36,2.36 0 0 0 2.66,2.53 6.57,6.57 0 0 0 1.1,-0.09 z"
             id="path13" /><path
             class="cls-1"
             d="m 180,43.47 h 2.39 V 54.76 H 180 v -4.58 h -5.15 v 4.58 h -2.41 V 43.47 h 2.41 v 4.58 H 180 Z"
             id="path14" /><path
             class="cls-1"
             d="m 188.48,46.1 a 4.43,4.43 0 1 1 -4.42,4.42 4.26,4.26 0 0 1 4.42,-4.42 z m 0,2 a 2.18,2.18 0 0 0 -2.13,2.45 2.15,2.15 0 1 0 4.26,0 2.18,2.18 0 0 0 -2.13,-2.48 z"
             id="path15" /><path
             class="cls-1"
             d="m 197,54.76 h -2.28 V 41.84 H 197 Z"
             id="path16" /><path
             class="cls-1"
             d="m 201.62,54.76 h -2.28 V 41.84 h 2.28 z"
             id="path17" /><path
             class="cls-1"
             d="m 208.05,49.21 c 0,-0.82 -0.68,-1.16 -1.52,-1.16 a 4.63,4.63 0 0 0 -2.45,0.71 v -2 a 5.78,5.78 0 0 1 2.85,-0.68 c 1.94,0 3.38,0.76 3.38,3 v 5.47 a 15.84,15.84 0 0 1 -3.19,0.34 c -2.15,0 -3.8,-0.65 -3.8,-2.6 0,-1.77 1.43,-2.61 3.8,-2.61 h 0.93 z m 0,2 h -0.76 c -1.06,0 -1.69,0.3 -1.69,1 0,0.7 0.59,1 1.5,1 a 4.1,4.1 0 0 0 1,-0.1 z"
             id="path18" /><path
             class="cls-1"
             d="m 212.41,46.84 a 12.19,12.19 0 0 1 4.05,-0.74 c 2.2,0 3.62,0.81 3.62,3.34 v 5.32 h -2.29 v -5.17 a 1.31,1.31 0 0 0 -1.5,-1.44 5.52,5.52 0 0 0 -1.6,0.24 v 6.37 h -2.28 z"
             id="path19" /><path
             class="cls-1"
             d="m 230.12,54.55 a 14.19,14.19 0 0 1 -3.45,0.4 c -2.92,0 -4.86,-1.56 -4.86,-4.41 a 4.19,4.19 0 0 1 4.44,-4.44 3.89,3.89 0 0 1 1.59,0.26 v -4.52 h 2.28 z m -2.28,-6.17 a 3.15,3.15 0 0 0 -1.4,-0.27 2.16,2.16 0 0 0 -2.32,2.36 2.36,2.36 0 0 0 2.62,2.53 6.41,6.41 0 0 0 1.1,-0.09 z"
             id="path20" /></g><g
           id="Koppelteken"><polygon
             class="cls-1"
             points="166.15,50.5 166.15,53.18 170.5,50.24 170.5,47.57 "
             id="polygon20" /></g></g><g
         id="Beeldmerk"><g
           id="g30"><g
             id="g23"><path
               class="cls-2"
               d="M 109.29,66.38 H 124.8 L 122,64 124.52,61.72 H 109.35 L 108.92,66 a 0.38,0.38 0 0 0 0.37,0.38 z"
               id="path21" /><path
               class="cls-2"
               d="m 57.2,64.34 h 54.42 V 61.7 h -2 a 0.23,0.23 0 0 1 -0.15,-0.41 l 1.72,-1.24 a 0.23,0.23 0 0 0 -0.16,-0.41 h -53.2 a 0.23,0.23 0 0 0 -0.15,0.41 l 1.71,1.24 a 0.23,0.23 0 0 1 -0.15,0.41 h -2 z"
               id="path22" /><path
               class="cls-2"
               d="M 44,66.38 H 59.53 A 0.37,0.37 0 0 0 59.9,66 L 59.47,61.74 H 44.34 L 46.85,64 Z"
               id="path23" /></g><path
             class="cls-2"
             d="m 84.41,58.43 c 6.92,0 13.52,-3.89 13.52,-14.13 v -17 h -27 v 17 c -0.04,10.24 6.56,14.13 13.48,14.13 z"
             id="path24" /><g
             id="g29"><path
               class="cls-2"
               d="m 94.23,22.44 c 0,0.43 0.18,0.82 0.59,0.82 0.41,0 0.6,-0.39 0.6,-0.82 0,-0.43 -0.18,-0.7 -0.6,-0.7 -0.42,0 -0.59,0.34 -0.59,0.7 z"
               id="path25" /><path
               class="cls-2"
               d="m 81,23.17 c 0.41,0 0.59,-0.39 0.59,-0.82 0,-0.43 -0.18,-0.71 -0.59,-0.71 -0.41,0 -0.6,0.35 -0.6,0.71 0,0.36 0.13,0.82 0.6,0.82 z"
               id="path26" /><path
               class="cls-2"
               d="m 87.28,22.35 c 0,0.43 0.18,0.82 0.6,0.82 0.42,0 0.59,-0.39 0.59,-0.82 0,-0.43 -0.18,-0.71 -0.59,-0.71 -0.41,0 -0.6,0.36 -0.6,0.71 z"
               id="path27" /><path
               class="cls-2"
               d="m 99,18.72 -1.49,0.7 a 1.67,1.67 0 0 0 0,1.4 l -0.54,-0.5 A 1.08,1.08 0 0 0 96.3,19.97 c -0.24,0 -0.39,0.14 -0.52,0.42 l -0.24,0.55 0.9,1.69 -1.49,1.78 -1.65,-1.82 1.27,-1.78 -0.09,-0.61 a 0.53,0.53 0 0 0 -0.54,-0.51 3.25,3.25 0 0 0 -1.4,0.53 2.2,2.2 0 0 0 0.79,-1.78 L 92,16.63 h -1 l -1.32,1.81 A 2.28,2.28 0 0 0 90.43,20.22 4.17,4.17 0 0 0 89,19.66 c -0.2,0 -0.42,0.19 -0.49,0.53 l -0.11,0.57 1.23,1.77 -1.78,1.88 -1.75,-2 1.41,-1.71 -0.07,-0.44 C 87.38,19.87 87.22,19.57 86.8,19.57 a 3.44,3.44 0 0 0 -1.44,0.51 2.19,2.19 0 0 0 0.73,-1.76 L 84.83,16.6 H 84 l -1.26,1.72 A 2.19,2.19 0 0 0 83.47,20.08 3.44,3.44 0 0 0 82,19.6 c -0.42,0 -0.58,0.3 -0.64,0.69 l -0.07,0.44 1.41,1.71 -1.75,2 -1.75,-1.91 1.22,-1.77 -0.11,-0.57 c -0.07,-0.34 -0.29,-0.53 -0.49,-0.53 a 4.17,4.17 0 0 0 -1.46,0.56 2.28,2.28 0 0 0 0.75,-1.78 l -1.32,-1.81 h -0.88 l -1.32,1.81 a 2.22,2.22 0 0 0 0.78,1.78 3.25,3.25 0 0 0 -1.4,-0.53 0.54,0.54 0 0 0 -0.54,0.51 l -0.09,0.61 1.27,1.78 -1.61,1.82 -1.49,-1.78 0.9,-1.69 -0.24,-0.55 c -0.13,-0.28 -0.28,-0.42 -0.52,-0.42 a 1.08,1.08 0 0 0 -0.67,0.35 l -0.54,0.5 a 1.67,1.67 0 0 0 0,-1.4 l -1.48,-0.7 -0.39,0.2 2.3,7 H 97 l 2.3,-7 z"
               id="path28" /><path
               class="cls-2"
               d="m 74,23.26 c 0.41,0 0.59,-0.39 0.59,-0.82 0,-0.43 -0.18,-0.7 -0.59,-0.7 -0.41,0 -0.6,0.34 -0.6,0.7 0,0.36 0.18,0.82 0.6,0.82 z"
               id="path29" /></g></g><g
           id="g64"><path
             class="cls-3"
             d="m 71.28,55.71 a 1.69,1.69 0 0 0 -1,0.39 l -0.61,0.45 H 68.74 L 64,51.78 a 5.12,5.12 0 0 0 3,-1.06 C 63,49 62.74,44.92 59.63,43.17 a 4.82,4.82 0 0 0 -2.63,1.55 0.92,0.92 0 0 1 0.45,0.77 1,1 0 0 1 -1.2,0.95 3.06,3.06 0 0 1 -0.18,-1 2.08,2.08 0 0 1 0.93,-1.77 c 1.2,-0.87 3.32,-1.37 4.75,-3.41 A 4.69,4.69 0 0 1 59,37 4.73,4.73 0 0 1 56.93,37.46 5.44,5.44 0 0 1 54.56,36.89 12.13,12.13 0 0 1 53,41.43 c -1.5,2.62 -3.51,3.58 -5.2,3.58 -1.69,0 -3,-0.83 -3,-2 0,-1.17 0.9,-2.2 3.2,-3.01 2.88,-1 4,-1.84 4,-3.41 A 2.25,2.25 0 0 0 51.36,35 2.16,2.16 0 0 0 51.64,34 2.43,2.43 0 0 0 50.9,32.32 l -2.29,-2.24 a 1.71,1.71 0 0 1 -1.27,0.55 1.75,1.75 0 0 1 -1.74,-1.78 2.25,2.25 0 0 0 -1.55,2.15 2.19,2.19 0 0 0 0.66,1.59 l 0.85,0.81 V 35 a 1.64,1.64 0 0 1 0.68,-0.15 2.17,2.17 0 0 1 1.48,0.73 2.26,2.26 0 0 0 1.64,0.72 2.11,2.11 0 0 0 0.86,-0.19 1,1 0 0 1 0.27,0.68 c 0,0.75 -1.32,1.43 -3.23,2 C 44.58,39.61 43.1,41 43.1,43 c 0,2.27 1.91,3.57 4.5,3.57 a 7.2,7.2 0 0 0 1.59,-0.16 l 0.65,3.42 h -5.31 a 2.48,2.48 0 0 1 0.36,1.27 3.8,3.8 0 0 1 -1.45,2.5 l 4.66,7 h 3.38 a 1.36,1.36 0 0 0 1.41,-1.09 h 0.35 l 0.47,-0.8 a 2.07,2.07 0 0 0 -2,-1.25 c -0.53,0 -1,0.77 -1.33,1.33 -1.38,-1.19 -2.5,-2.39 -2.5,-3.9 a 2.41,2.41 0 0 1 2.64,-2.52 5,5 0 0 1 3,1.17 L 57,50.29 56.36,47.23 c 2.33,0.42 4,1.31 4,2.92 a 2.4,2.4 0 0 1 -1.16,2 l 8.08,6.33 h 5.8 l 0.13,-1.48 -1,-0.87 a 1.4,1.4 0 0 0 -0.93,-0.42 z"
             id="path30" /><path
             class="cls-3"
             d="m 123.94,51.06 a 2.47,2.47 0 0 1 0.35,-1.27 H 119 l 0.66,-3.42 a 7,7 0 0 0 1.58,0.16 c 2.59,0 4.5,-1.3 4.5,-3.57 0,-2 -1.47,-3.35 -4.15,-4.17 -1.92,-0.58 -3.23,-1.26 -3.23,-2 a 1,1 0 0 1 0.27,-0.68 2.08,2.08 0 0 0 0.86,0.19 2.26,2.26 0 0 0 1.63,-0.72 2.17,2.17 0 0 1 1.48,-0.73 1.68,1.68 0 0 1 0.69,0.15 v -1.6 l 0.84,-0.81 a 2.19,2.19 0 0 0 0.66,-1.59 2.25,2.25 0 0 0 -1.55,-2.15 1.75,1.75 0 0 1 -1.74,1.78 1.71,1.71 0 0 1 -1.27,-0.55 l -2.29,2.24 a 2.42,2.42 0 0 0 -0.73,1.68 2.15,2.15 0 0 0 0.27,1 2.29,2.29 0 0 0 -0.65,1.61 c 0,1.57 1.15,2.42 4,3.41 2.28,0.79 3.27,1.6 3.27,2.94 0,1.34 -1.22,2 -3,2 -1.78,0 -3.69,-1 -5.2,-3.58 a 12.31,12.31 0 0 1 -1.58,-4.52 5.44,5.44 0 0 1 -2.37,0.57 4.65,4.65 0 0 1 -2.06,-0.46 4.72,4.72 0 0 1 -2.8,3.24 c 1.43,2 3.56,2.54 4.75,3.41 a 2.09,2.09 0 0 1 1,1.74 3.07,3.07 0 0 1 -0.19,1 1,1 0 0 1 -1.2,-0.95 0.92,0.92 0 0 1 0.45,-0.77 4.82,4.82 0 0 0 -2.64,-1.55 c -3.1,1.75 -3.39,5.81 -7.34,7.55 a 5.14,5.14 0 0 0 3,1.06 l -4.77,4.77 h -0.93 l -0.61,-0.45 a 1.69,1.69 0 0 0 -1,-0.39 1.4,1.4 0 0 0 -1,0.44 l -1,0.87 0.14,1.49 h 5.8 l 8.08,-6.33 a 2.43,2.43 0 0 1 -1.16,-2 c 0,-1.61 1.66,-2.5 4,-2.92 l -0.63,3.06 3.44,3.25 a 5,5 0 0 1 3,-1.17 2.42,2.42 0 0 1 2.72,2.57 c 0,1.51 -1.08,2.71 -2.54,3.83 -0.29,-0.56 -0.81,-1.33 -1.33,-1.33 a 2.07,2.07 0 0 0 -2,1.25 l 0.47,0.8 h 0.35 a 1.36,1.36 0 0 0 1.41,1.09 h 3.38 l 4.67,-7 a 3.76,3.76 0 0 1 -1.47,-2.47 z"
             id="path31" /><path
             class="cls-3"
             d="m 101.45,39 a 7.08,7.08 0 0 0 -0.54,1.81 6.26,6.26 0 0 1 -1,2.5 L 99.55,43.85 99,43.54 a 1.27,1.27 0 0 0 -1.21,0.78 1.6,1.6 0 0 0 -0.08,0.78 v 0.34 0 a 1.17,1.17 0 0 0 -0.77,0.94 1.9,1.9 0 0 0 0,0.35 l 0.3,0.71 0.06,0.14 H 98 a 1.38,1.38 0 0 0 0.05,0.55 1,1 0 0 0 0.37,0.59 l 0.18,0.14 0.19,0.09 a 1.19,1.19 0 0 0 0.44,0.11 2.45,2.45 0 0 0 1.13,-0.46 0.51,0.51 0 0 0 0.48,0.25 v 0 a 0.8,0.8 0 0 0 0.55,-0.25 l 0.17,-0.16 0.22,-0.21 a 1,1 0 0 0 0.33,-0.72 1.52,1.52 0 0 0 -0.73,-1 l 0.15,-0.23 0.92,0.65 c 0.42,-0.91 0,-1.7 0,-2.43 0,-0.73 0.56,-1.28 1.65,-2.23 a 5.15,5.15 0 0 0 1.48,-1.91 4.42,4.42 0 0 0 -0.66,-2.6 3.68,3.68 0 0 1 -3.47,1.24 z"
             id="path32" /><path
             class="cls-3"
             d="m 91.21,46 c 1.47,0 2.66,-0.78 2.66,-2.15 0,-1.21 -0.84,-2 -2.46,-2.51 -1.15,-0.35 -2,-0.74 -2,-1.25 a 0.55,0.55 0 0 1 0.18,-0.37 1.39,1.39 0 0 0 0.52,0.11 1.32,1.32 0 0 0 1,-0.43 1.25,1.25 0 0 1 0.87,-0.42 1.18,1.18 0 0 1 0.41,0.09 v -1 l 0.52,-0.52 a 1.37,1.37 0 0 0 -0.54,-2.25 1.05,1.05 0 0 1 -1,1.07 1.09,1.09 0 0 1 -0.77,-0.32 l -1.41,1.44 a 1.34,1.34 0 0 0 -0.41,1 1.13,1.13 0 0 0 0.18,0.58 1.49,1.49 0 0 0 -0.38,1 c 0,0.94 0.68,1.39 2.42,2 1.37,0.47 1.94,0.89 1.94,1.76 0,0.87 -0.73,1.17 -1.82,1.17 A 3.64,3.64 0 0 1 88,42.88 a 6.1,6.1 0 0 1 -0.94,-2.59 3.17,3.17 0 0 1 -2.61,0.1 3.94,3.94 0 0 1 -1.75,1.77 c 0.31,0.7 2,1.57 2.59,1.9 a 1.4,1.4 0 0 1 0.84,1.19 1.2,1.2 0 0 1 -0.19,0.64 c -0.49,0 -0.71,-0.27 -0.71,-0.55 a 0.59,0.59 0 0 1 0.26,-0.47 2.72,2.72 0 0 0 -1.26,-0.79 c -1.83,1 -2.56,3.41 -4.67,4.4 a 3,3 0 0 0 1.76,0.66 L 78.47,52 H 77.91 L 77.55,51.73 A 1.11,1.11 0 0 0 77,51.49 0.9,0.9 0 0 0 76.47,51.68 l -0.68,0.6 -0.27,0.9 h 3.85 l 4.86,-3.81 a 1.36,1.36 0 0 1 -0.7,-1.14 c 0,-0.92 1.12,-1.62 2.42,-1.94 l -0.4,1.94 2,1.9 a 3.15,3.15 0 0 1 2,-0.76 1.41,1.41 0 0 1 1.45,1.49 3.2,3.2 0 0 1 -1.44,2.57 c -0.22,-0.47 -0.47,-0.81 -0.84,-0.81 -0.37,0 -1,0.26 -1.14,0.75 l 0.28,0.49 h 0.21 a 0.82,0.82 0 0 0 0.85,0.66 h 2 l 2.77,-4.31 a 2.14,2.14 0 0 1 -0.85,-1.56 1.49,1.49 0 0 1 0.21,-0.76 h -3.2 l 0.38,-2.07 A 4.44,4.44 0 0 0 91.21,46 Z"
             id="path33" /><path
             class="cls-3"
             d="m 67.09,35.69 c 0,-0.92 0.83,-1.57 0.83,-2.62 a 2,2 0 0 0 -1.2,-1.95 c 1.24,0 2.16,-0.84 2.16,-1.37 -1.84,0 -2.73,-2 -5,-2 -1.7,0 -1.87,0.85 -3,0.85 -0.92,0 -0.92,-0.45 -2.23,-0.44 v -0.32 a 2.51,2.51 0 0 1 2.23,0.31 1,1 0 0 0 0.49,-0.85 1,1 0 0 0 -0.76,-0.94 1,1 0 0 0 -0.6,-0.91 l -0.2,0.78 c -1.21,0.05 -1.46,0.48 -2.19,0.48 -0.58,0 -0.84,-0.41 -0.95,-1 a 5,5 0 0 1 -0.07,-0.9 c 0,-0.11 0,-0.19 0,-0.29 0,-1.88 0.58,-2.51 1.32,-2.51 0.74,0 1,0.48 2.11,0.74 l 0.1,0.84 a 1.07,1.07 0 0 0 0.78,-0.66 c 0.92,0.14 1.34,-0.15 1.34,-1.19 v -1 l 0.22,-0.27 V 19.33 L 60.64,18.76 60.29,18.89 60,18.4 l -2.23,-0.31 -0.49,0.4 h -3.19 c -0.53,0 -0.77,0.18 -0.77,0.47 a 1.63,1.63 0 0 0 0.62,1 c -2.23,0.4 -2.94,1.68 -2.94,2.63 0,1.53 0.43,1.51 0.43,3.36 a 3.13,3.13 0 0 1 -1,2.39 l 2.77,2.76 a 3.51,3.51 0 0 1 1.28,2.46 2.36,2.36 0 0 1 -0.88,1.76 4.42,4.42 0 0 0 3.31,1.46 3.92,3.92 0 0 0 2.58,-0.93 c 0.23,2.38 1.26,3.2 3.11,4 a 4.25,4.25 0 0 1 1.4,-3.2 3.13,3.13 0 0 0 2.74,1.66 1.82,1.82 0 0 0 1.91,-1.18 1.41,1.41 0 0 1 -1.56,-1.44 z M 59.54,19.61 a 0.41,0.41 0 0 1 -0.4,0.23 0.87,0.87 0 0 1 -0.8,0.46 1.07,1.07 0 0 1 -0.89,-0.51 2.86,2.86 0 0 1 2.09,-0.18 z"
             id="path34" /><path
             class="cls-3"
             d="M 70,23.08 V 22.56 22.41 A 1,1 0 0 0 69.56,21.5 0.64,0.64 0 0 0 69.22,21.41 H 69 a 0.56,0.56 0 0 0 -0.29,-0.59 0.94,0.94 0 0 0 -0.49,-0.15 1.21,1.21 0 0 0 -1.18,0.74 c -0.4,0 -0.85,0.51 -0.85,1.32 0,1 1.32,1.31 0.88,2.07 l -1.55,2.72 c 1.43,0.46 1.82,1.17 3,1.5 l 0.86,-3.44 c 0.21,-0.84 1.27,-0.93 1.28,-1.74 A 0.81,0.81 0 0 0 70.54,23.42 0.75,0.75 0 0 0 70.47,23.3 Z"
             id="path35" /><path
             class="cls-3"
             d="m 81.25,40.85 a 2.15,2.15 0 0 1 -2.4,0.45 l -1.11,2.31 -0.33,-0.27 a 0.73,0.73 0 0 0 -0.81,0.74 v 0.19 a 0.7,0.7 0 0 0 -0.48,0.45 1,1 0 0 0 0,0.18 l 0.09,0.36 v 0.12 h 0.36 a 0.55,0.55 0 0 0 0.06,0.56 v 0 l 0.36,0.38 v 0 a 0.6,0.6 0 0 0 0.74,-0.24 c 0.11,0.22 0.24,0.25 0.37,0.2 v 0 l 0.47,-0.22 v 0 a 0.65,0.65 0 0 0 0.11,-0.34 0.89,0.89 0 0 0 -0.33,-0.55 l 0.1,-0.11 0.26,0.24 c 0.25,-0.42 0,-1 0.33,-1.24 L 81.62,42 a 3.35,3.35 0 0 0 -0.37,-1.15 z"
             id="path36" /><path
             class="cls-3"
             d="m 76.34,34.11 -0.09,0.12 -0.1,0.14 a 0.49,0.49 0 0 0 0,0.34 0.57,0.57 0 0 0 0.31,0.24 c 0.23,0.08 0.51,0.1 0.72,0.18 a 0.63,0.63 0 0 1 0.23,0.16 l 1.08,1.46 a 2.55,2.55 0 0 1 1.25,-1.86 l -1.2,-0.41 a 0.61,0.61 0 0 1 -0.4,-0.73 1,1 0 0 0 0,-0.91 0.84,0.84 0 0 0 -0.46,-0.41 0.44,0.44 0 0 0 -0.34,0 0.63,0.63 0 0 0 -0.48,-0.2 0.84,0.84 0 0 0 -0.38,0.08 0.58,0.58 0 0 0 -0.25,0.24 0.38,0.38 0 0 0 0,0.33 l -0.19,0.1 v 0.08 a 0.68,0.68 0 0 0 0,0.65 v 0 z"
             id="path37" /><path
             class="cls-3"
             d="m 71.84,46.4 a 1.18,1.18 0 0 0 -0.78,-0.94 v 0 -0.34 A 1.49,1.49 0 0 0 70.98,44.34 1.27,1.27 0 0 0 69.77,43.56 L 69.28,43.87 69,43.31 A 6.16,6.16 0 0 1 67.94,40.81 7.08,7.08 0 0 0 67.38,39 3.7,3.7 0 0 1 64,37.74 a 4.5,4.5 0 0 0 -0.66,2.6 5.15,5.15 0 0 0 1.48,1.91 c 1.09,1 1.65,1.49 1.65,2.23 0,0.74 -0.46,1.52 0,2.43 l 0.92,-0.65 0.15,0.23 a 1.53,1.53 0 0 0 -0.72,1 1,1 0 0 0 0.32,0.72 l 0.23,0.21 0.16,0.16 a 0.8,0.8 0 0 0 0.56,0.25 v 0 a 0.5,0.5 0 0 0 0.47,-0.25 2.49,2.49 0 0 0 1.13,0.46 1.69,1.69 0 0 0 0.63,-0.2 l 0.19,-0.14 a 1,1 0 0 0 0.36,-0.59 1.57,1.57 0 0 0 0.06,-0.55 h 0.67 l 0.06,-0.14 0.29,-0.71 A 1.94,1.94 0 0 0 71.84,46.4 Z"
             id="path38" /><path
             class="cls-3"
             d="m 89.51,35 a 1.92,1.92 0 0 1 -0.63,-1.54 c 0,-0.67 0.28,-1.28 0.28,-2 0,-0.72 -0.43,-1.26 -1.77,-1.5 a 1,1 0 0 0 0.37,-0.61 c 0,-0.19 -0.15,-0.26 -0.48,-0.26 H 85.41 L 85.12,28.85 83.78,29 83.61,29.29 83.4,29.21 82.3,29.56 v 0.7 l 0.13,0.16 V 31 c 0,0.59 0.26,0.8 0.81,0.71 0.11,0.22 0.28,0.4 0.47,0.4 l 0.07,-0.51 c 0.36,-0.07 1,-0.44 1.25,-0.44 0.46,0 0.79,0.34 0.81,1.61 v 0.1 a 1.84,1.84 0 0 1 -0.09,0.57 0.56,0.56 0 0 1 -0.53,0.47 c -0.55,0 -0.66,-0.29 -1.31,-0.29 l -0.12,-0.47 a 0.59,0.59 0 0 0 -0.36,0.55 0.57,0.57 0 0 0 -0.46,0.54 0.67,0.67 0 0 0 0.35,0.58 2.08,2.08 0 0 1 1.73,-0.08 v 0.4 a 5.69,5.69 0 0 0 -1.69,0.12 c -0.61,0 -0.93,-0.29 -1.86,-0.29 a 2.21,2.21 0 0 0 -2.38,2 c 0,0.87 0.4,1.1 0.4,2.16 a 1,1 0 0 1 -1,1 1.31,1.31 0 0 0 1.19,0.77 2,2 0 0 0 1.63,-1 3.32,3.32 0 0 1 0.86,1.83 3,3 0 0 0 1.94,-2.21 2.45,2.45 0 0 0 1.51,0.52 3.16,3.16 0 0 0 2,-0.85 1,1 0 0 1 -0.56,-1 2.23,2.23 0 0 1 0.8,-1.57 z m -4.77,-4.8 a 0.44,0.44 0 0 1 -0.48,-0.32 0.25,0.25 0 0 1 -0.24,-0.13 1.8,1.8 0 0 1 1.26,0.1 0.62,0.62 0 0 1 -0.54,0.35 z"
             id="path39" /><path
             class="cls-3"
             d="m 118.41,28.32 a 3.11,3.11 0 0 1 -1,-2.39 c 0,-1.85 0.43,-1.83 0.43,-3.36 0,-0.95 -0.71,-2.23 -2.94,-2.63 a 1.63,1.63 0 0 0 0.62,-1 c 0,-0.29 -0.24,-0.47 -0.77,-0.47 h -3.15 l -0.5,-0.4 -2.23,0.31 -0.26,0.49 -0.36,-0.13 -1.83,0.57 v 1.19 l 0.22,0.27 v 1 c 0,1 0.42,1.33 1.34,1.19 a 1.07,1.07 0 0 0 0.78,0.66 l 0.11,-0.84 c 1.1,-0.26 1.42,-0.74 2.1,-0.74 0.68,0 1.27,0.63 1.32,2.52 a 2.53,2.53 0 0 1 0,0.28 4.91,4.91 0 0 1 -0.07,0.9 c -0.11,0.61 -0.37,1 -1,1 -0.73,0 -1,-0.43 -2.18,-0.48 l -0.21,-0.78 a 1,1 0 0 0 -0.6,0.91 1,1 0 0 0 -0.75,0.94 1,1 0 0 0 0.49,0.85 2.5,2.5 0 0 1 2.23,-0.31 v 0.32 c -1.32,0 -1.31,0.44 -2.23,0.44 -1.16,0 -1.34,-0.85 -3,-0.85 -2.32,0 -3.21,2 -5,2 0,0.53 0.91,1.35 2.15,1.37 a 2,2 0 0 0 -1.2,1.95 c 0,1 0.83,1.7 0.83,2.62 a 1.41,1.41 0 0 1 -1.56,1.45 1.84,1.84 0 0 0 1.92,1.18 3.14,3.14 0 0 0 2.74,-1.66 4.28,4.28 0 0 1 1.39,3.2 c 1.85,-0.81 2.89,-1.63 3.11,-4 a 3.92,3.92 0 0 0 2.58,0.93 4.4,4.4 0 0 0 3.31,-1.46 2.35,2.35 0 0 1 -0.87,-1.76 3.48,3.48 0 0 1 1.27,-2.46 z m -7.93,-8 a 0.87,0.87 0 0 1 -0.8,-0.46 0.41,0.41 0 0 1 -0.4,-0.23 2.9,2.9 0 0 1 2.1,0.18 1.09,1.09 0 0 1 -0.9,0.49 z"
             id="path40" /><path
             class="cls-3"
             d="m 101.71,24.8 c -0.44,-0.76 0.88,-1.05 0.88,-2.07 0,-0.81 -0.45,-1.32 -0.85,-1.32 a 1.21,1.21 0 0 0 -1.18,-0.74 0.93,0.93 0 0 0 -0.5,0.16 0.56,0.56 0 0 0 -0.28,0.58 h -0.21 a 0.82,0.82 0 0 0 -0.35,0.09 1,1 0 0 0 -0.42,0.91 v 0.15 0.52 l -0.48,0.22 a 0.75,0.75 0 0 0 -0.07,0.12 1,1 0 0 0 -0.12,0.42 c 0,0.81 1.07,0.9 1.28,1.74 l 0.86,3.44 c 1.14,-0.33 1.52,-1 3,-1.5 z"
             id="path41" /><g
             id="g63"><path
               class="cls-3"
               d="M 62.83,63 62.1,61 h 0.45 l 0.54,1.53 0.53,-1.53 h 0.45 l -0.74,2 z"
               id="path42" /><path
               class="cls-3"
               d="m 64.89,63 h -0.42 v -2 h 0.42 z"
               id="path43" /><path
               class="cls-3"
               d="m 67,61.55 a 0.8,0.8 0 0 0 -0.56,-0.21 0.59,0.59 0 0 0 -0.61,0.64 0.6,0.6 0 0 0 0.61,0.65 0.53,0.53 0 0 0 0.23,0 v -0.54 h 0.41 v 0.79 a 1.45,1.45 0 0 1 -0.65,0.14 0.94,0.94 0 0 1 -1,-1 1,1 0 0 1 1,-1 1.13,1.13 0 0 1 0.58,0.14 z"
               id="path44" /><path
               class="cls-3"
               d="m 68.11,63 h -0.42 v -2 h 0.42 z"
               id="path45" /><path
               class="cls-3"
               d="m 68.77,61 h 0.42 v 1.59 H 70 V 63 h -1.23 z"
               id="path46" /><path
               class="cls-3"
               d="m 70.91,62.54 -0.15,0.41 h -0.44 l 0.76,-2 h 0.5 l 0.76,2 h -0.45 l -0.15,-0.41 z m 0.42,-1.14 -0.3,0.8 h 0.58 z"
               id="path47" /><path
               class="cls-3"
               d="M 73.44,63 H 73 V 61.36 H 72.4 V 61 H 74 v 0.36 h -0.6 z"
               id="path48" /><path
               class="cls-3"
               d="M 75.77,62.59 V 63 h -1.26 v -2 h 1.24 v 0.36 h -0.83 v 0.43 h 0.77 v 0.36 h -0.77 v 0.44 z"
               id="path49" /><path
               class="cls-3"
               d="m 78,61 a 4.83,4.83 0 0 1 0.59,0 c 0.71,0 1.12,0.36 1.12,1 A 1,1 0 0 1 78.59,63 3.34,3.34 0 0 1 78,63 Z m 0.42,1.6 h 0.21 A 0.6,0.6 0 0 0 79.3,62 c 0,-0.4 -0.26,-0.6 -0.66,-0.6 h -0.2 z"
               id="path50" /><path
               class="cls-3"
               d="M 81.46,62.59 V 63 H 80.2 v -2 h 1.24 v 0.36 h -0.83 v 0.43 h 0.77 v 0.36 h -0.77 v 0.44 z"
               id="path51" /><path
               class="cls-3"
               d="m 82.86,61 a 1,1 0 1 1 -1,1 1,1 0 0 1 1,-1 z m 0,0.37 a 0.64,0.64 0 1 0 0.58,0.64 0.59,0.59 0 0 0 -0.58,-0.67 z"
               id="path52" /><path
               class="cls-3"
               d="M 87.15,61.54 A 0.75,0.75 0 0 0 86.62,61.34 0.58,0.58 0 0 0 86,62 a 0.59,0.59 0 0 0 0.6,0.63 0.85,0.85 0 0 0 0.55,-0.2 v 0.43 a 1,1 0 0 1 -0.57,0.14 1,1 0 0 1 -1,-1 1,1 0 0 1 1,-1 1,1 0 0 1 0.53,0.13 z"
               id="path53" /><path
               class="cls-3"
               d="m 88.64,61 a 1,1 0 1 1 -1,1 1,1 0 0 1 1,-1 z m 0,0.37 a 0.64,0.64 0 0 0 0,1.27 0.64,0.64 0 0 0 0,-1.27 z"
               id="path54" /><path
               class="cls-3"
               d="M 91.47,62.31 V 61 h 0.4 v 2 h -0.4 l -0.9,-1.3 V 63 h -0.4 v -2 h 0.42 z"
               id="path55" /><path
               class="cls-3"
               d="m 92.54,63 v -2 h 1.13 v 0.36 H 93 v 0.49 h 0.65 v 0.36 H 93 V 63 Z"
               id="path56" /><path
               class="cls-3"
               d="m 94.63,63 h -0.42 v -2 h 0.42 z"
               id="path57" /><path
               class="cls-3"
               d="m 95.29,61 a 4.83,4.83 0 0 1 0.59,0 c 0.71,0 1.12,0.36 1.12,1 a 1,1 0 0 1 -1.12,1 3.34,3.34 0 0 1 -0.59,0 z m 0.42,1.6 h 0.21 a 0.6,0.6 0 0 0 0.65,-0.67 c 0,-0.4 -0.26,-0.6 -0.66,-0.6 h -0.2 z"
               id="path58" /><path
               class="cls-3"
               d="M 98.83,62.59 V 63 h -1.27 v -2 h 1.25 v 0.36 H 98 v 0.43 h 0.77 v 0.36 H 98 v 0.44 z"
               id="path59" /><path
               class="cls-3"
               d="M 100.73,62.31 V 61 h 0.41 v 2 h -0.4 L 99.83,61.7 V 63 h -0.4 v -2 h 0.42 z"
               id="path60" /><path
               class="cls-3"
               d="m 102.62,63 h -0.41 v -1.64 h -0.6 V 61 h 1.61 v 0.36 h -0.6 z"
               id="path61" /><path
               class="cls-3"
               d="M 105,62.59 V 63 h -1.3 v -2 h 1.24 v 0.36 h -0.83 v 0.43 h 0.76 v 0.36 h -0.76 v 0.44 z"
               id="path62" /><path
               class="cls-3"
               d="m 105.49,62.43 a 0.86,0.86 0 0 0 0.53,0.2 c 0.16,0 0.31,-0.06 0.31,-0.22 0,-0.16 -0.12,-0.2 -0.32,-0.26 -0.39,-0.11 -0.55,-0.28 -0.55,-0.61 a 0.57,0.57 0 0 1 0.65,-0.57 0.86,0.86 0 0 1 0.51,0.14 v 0.41 a 0.79,0.79 0 0 0 -0.5,-0.2 c -0.17,0 -0.26,0.08 -0.26,0.2 0,0.12 0.11,0.2 0.34,0.26 0.39,0.11 0.54,0.29 0.54,0.62 0,0.33 -0.32,0.58 -0.72,0.58 a 1,1 0 0 1 -0.53,-0.14 z"
               id="path63" /></g></g><g
           id="g105"><path
             class="cls-1"
             d="m 94.71,58.56 -0.12,-0.1 c 0.06,-0.93 0.62,-1.34 1.12,-1.34 L 96,58.27 a 2.16,2.16 0 0 0 -1.29,0.29 z"
             id="path64" /><path
             class="cls-1"
             d="m 96.64,58.4 a 3.83,3.83 0 0 1 1.36,-0.09 1.31,1.31 0 0 1 -0.24,-0.76 1.75,1.75 0 0 1 0,-0.32 1.34,1.34 0 0 0 -1.19,1 z"
             id="path65" /><path
             class="cls-1"
             d="m 100.39,58.57 h -0.8 l -0.06,-0.1 a 1,1 0 0 1 0.81,-0.62 0.64,0.64 0 0 1 0.18,0.4 0.47,0.47 0 0 1 -0.13,0.32 z"
             id="path66" /><path
             class="cls-1"
             d="m 115.09,59.8 -0.13,-0.11 c 0.06,-0.91 0.57,-1.46 1.22,-1.46 v 1.26 a 1.85,1.85 0 0 0 -1.09,0.31 z"
             id="path67" /><path
             class="cls-1"
             d="m 116.23,60.36 -0.08,-0.16 a 1.33,1.33 0 0 1 1.23,-1 1,1 0 0 0 -0.11,0.42 1.25,1.25 0 0 0 0.21,0.65 3.16,3.16 0 0 0 -1.25,0.09 z"
             id="path68" /><path
             class="cls-1"
             d="m 119.87,60.61 h -0.8 v -0.1 a 0.94,0.94 0 0 1 0.8,-0.62 0.59,0.59 0 0 1 0.18,0.4 0.47,0.47 0 0 1 -0.18,0.32 z"
             id="path69" /><path
             class="cls-1"
             d="M 90,54.57 V 54.5 a 0.57,0.57 0 0 1 0.48,-0.37 0.36,0.36 0 0 1 0.11,0.25 0.31,0.31 0 0 1 -0.08,0.19 z"
             id="path70" /><path
             class="cls-1"
             d="m 88.26,54.41 a 2,2 0 0 1 0.75,0 0.76,0.76 0 0 1 -0.13,-0.4 0.7,0.7 0 0 1 0.05,-0.25 0.83,0.83 0 0 0 -0.72,0.61 z"
             id="path71" /><path
             class="cls-1"
             d="M 87.57,54.08 87.5,54 c 0.07,-0.9 0.6,-0.89 0.82,-0.85 l -0.08,0.71 a 1.29,1.29 0 0 0 -0.67,0.22 z"
             id="path72" /><path
             class="cls-1"
             d="m 78.18,53.2 v -0.07 a 0.58,0.58 0 0 1 0.49,-0.37 0.32,0.32 0 0 1 0,0.44 z"
             id="path73" /><path
             class="cls-1"
             d="M 76.41,53.09 A 3,3 0 0 1 77.17,53.04 0.57,0.57 0 0 1 77.01,52.71 0.51,0.51 0 0 1 77.14,52.39 0.84,0.84 0 0 0 76.36,53 Z"
             id="path74" /><path
             class="cls-1"
             d="m 75.25,53.19 -0.07,-0.06 c 0.07,-0.64 0.4,-0.8 0.69,-0.8 L 76,53 a 1.24,1.24 0 0 0 -0.75,0.19 z"
             id="path75" /><path
             class="cls-1"
             d="m 74.12,58.55 a 2.22,2.22 0 0 0 -1.26,-0.29 l 0.26,-1.15 c 0.49,0 1.06,0.41 1.11,1.34 z"
             id="path76" /><path
             class="cls-1"
             d="m 72.18,58.39 0.08,-0.15 a 1.36,1.36 0 0 0 -1.19,-1 1.86,1.86 0 0 1 0,0.33 1.22,1.22 0 0 1 -0.24,0.75 3.83,3.83 0 0 1 1.35,0.07 z"
             id="path77" /><path
             class="cls-1"
             d="m 68.43,58.56 a 0.44,0.44 0 0 1 -0.12,-0.31 0.59,0.59 0 0 1 0.18,-0.41 1,1 0 0 1 0.8,0.62 l -0.05,0.1 z"
             id="path78" /><path
             class="cls-1"
             d="M 53.73,59.79 A 1.92,1.92 0 0 0 52.6,59.48 v -1.25 c 0.64,0 1.15,0.54 1.21,1.46 z"
             id="path79" /><path
             class="cls-1"
             d="m 52.59,60.35 a 3.35,3.35 0 0 0 -1.25,-0.09 1.12,1.12 0 0 0 0.21,-0.65 1,1 0 0 0 -0.11,-0.42 1.34,1.34 0 0 1 1.23,1 z"
             id="path80" /><path
             class="cls-1"
             d="m 49,60.6 a 0.43,0.43 0 0 1 -0.13,-0.31 0.59,0.59 0 0 1 0.18,-0.41 0.94,0.94 0 0 1 0.8,0.62 v 0.1 z"
             id="path81" /><g
             id="g85"><path
               class="cls-1"
               d="m 97,46.4 a 1.77,1.77 0 0 0 -0.91,1.37 l 0.18,0.13 a 5.39,5.39 0 0 1 1,-0.44 l -0.3,-0.71 A 1.9,1.9 0 0 1 97,46.4 Z"
               id="path82" /><path
               class="cls-1"
               d="m 100.84,48.88 v 0 a 2.94,2.94 0 0 1 0.25,0.55 l 0.22,-0.05 a 1.72,1.72 0 0 0 0.26,-0.9 l -0.17,0.16 a 0.8,0.8 0 0 1 -0.56,0.24 z"
               id="path83" /><path
               class="cls-1"
               d="m 97.8,44.32 a 1.67,1.67 0 0 0 -1.41,1 l 0.09,0.13 a 5.6,5.6 0 0 1 1.28,-0.05 v -0.34 a 1.6,1.6 0 0 1 0.04,-0.74 z"
               id="path84" /><path
               class="cls-1"
               d="m 98.41,48.74 a 1,1 0 0 1 -0.37,-0.59 1.54,1.54 0 0 0 0,1.63 h 0.22 a 3.37,3.37 0 0 1 0.56,-0.85 l -0.19,-0.09 z"
               id="path85" /></g><path
             class="cls-1"
             d="m 56.59,25.73 a 3.74,3.74 0 0 1 2.46,-1.05 c 1.94,0 2.52,0.76 4,0.76 1.48,0 2.16,-0.63 2.16,-1.76 a 1.34,1.34 0 0 0 -1.42,-1.5 c -0.59,0 -1.29,0.26 -1.29,1 a 0.87,0.87 0 0 0 0.83,0.92 c 0.25,0 0.25,-0.18 0.45,-0.18 a 0.19,0.19 0 0 1 0.2,0.22 c 0,0.2 -0.26,0.58 -1,0.58 -1.08,0 -2.17,-0.9 -3.84,-0.9 a 4.77,4.77 0 0 0 -2.62,0.68 c 0,0.1 0,0.18 0,0.29 a 5,5 0 0 0 0.07,0.94 z"
             id="path86" /><g
             id="g88"><path
               class="cls-1"
               d="m 70.77,22.36 a 1.59,1.59 0 0 0 -0.75,0.2 v 0.52 l 0.48,0.22 a 0.75,0.75 0 0 1 0.07,0.12 2.93,2.93 0 0 1 0.75,-0.74 v -0.23 a 1.86,1.86 0 0 0 -0.55,-0.09 z"
               id="path87" /><path
               class="cls-1"
               d="m 69,21.41 h 0.21 a 0.64,0.64 0 0 1 0.34,0.09 c 0.23,-0.18 0.49,-0.37 0.69,-0.51 v -0.18 a 1.49,1.49 0 0 0 -0.76,-0.17 1.93,1.93 0 0 0 -0.77,0.18 0.56,0.56 0 0 1 0.29,0.59 z"
               id="path88" /></g><g
             id="g96"><path
               class="cls-1"
               d="m 77.43,32.45 a 0.44,0.44 0 0 1 0.34,0 1,1 0 0 0 -0.93,-0.48 v 0.08 a 2.1,2.1 0 0 1 0.15,0.22 0.63,0.63 0 0 1 0.44,0.18 z"
               id="path89" /><path
               class="cls-1"
               d="m 76.25,34.23 0.09,-0.12 -0.22,-0.34 v 0 a 0.89,0.89 0 0 0 -0.49,0.33 v 0.11 a 1.78,1.78 0 0 1 0.62,0.02 z"
               id="path90" /><path
               class="cls-1"
               d="m 76.23,35.12 v 0.12 a 1,1 0 0 0 1,-0.11 c -0.21,-0.08 -0.49,-0.1 -0.72,-0.18 a 1.4,1.4 0 0 1 -0.28,0.17 z"
               id="path91" /><path
               class="cls-1"
               d="m 76.32,32.9 a 0.38,0.38 0 0 1 0,-0.33 1,1 0 0 0 -0.72,0.14 v 0.12 a 2.84,2.84 0 0 1 0.49,0.25 V 33 Z"
               id="path92" /><path
               class="cls-1"
               d="m 78.1,46.35 a 1.38,1.38 0 0 1 0.13,0.47 h 0.13 a 1,1 0 0 0 0.25,-0.7 l -0.47,0.22 z"
               id="path93" /><path
               class="cls-1"
               d="m 76.59,46.65 h 0.11 a 2,2 0 0 1 0.28,-0.31 L 76.62,46 a 0.87,0.87 0 0 0 -0.03,0.65 z"
               id="path94" /><path
               class="cls-1"
               d="m 76.11,44.72 a 1,1 0 0 0 -0.43,0.55 l 0.08,0.09 0.4,-0.1 -0.09,-0.36 a 1,1 0 0 1 0.04,-0.18 z"
               id="path95" /><path
               class="cls-1"
               d="m 76.77,43.6 a 0.89,0.89 0 0 0 -0.67,0.41 v 0.08 a 2.69,2.69 0 0 1 0.47,0 v -0.06 a 0.71,0.71 0 0 1 0.2,-0.43 z"
               id="path96" /></g><g
             id="g100"><path
               class="cls-1"
               d="m 71.1,45.1 v 0.34 a 5.58,5.58 0 0 1 1.28,0.05 l 0.09,-0.13 a 1.67,1.67 0 0 0 -1.41,-1 1.49,1.49 0 0 1 0.04,0.74 z"
               id="path97" /><path
               class="cls-1"
               d="m 67.43,48.63 -0.16,-0.16 a 1.63,1.63 0 0 0 0.25,0.9 l 0.23,0.05 A 2,2 0 0 1 68,48.87 v 0 a 0.8,0.8 0 0 1 -0.57,-0.24 z"
               id="path98" /><path
               class="cls-1"
               d="M 70.23,48.88 A 1.14,1.14 0 0 1 70,49 a 3.12,3.12 0 0 1 0.56,0.85 h 0.23 a 1.56,1.56 0 0 0 0,-1.63 1,1 0 0 1 -0.36,0.59 z"
               id="path99" /><path
               class="cls-1"
               d="m 72.74,47.77 a 1.78,1.78 0 0 0 -0.9,-1.37 1.94,1.94 0 0 1 0,0.35 l -0.29,0.71 a 6,6 0 0 1 1,0.44 z"
               id="path100" /></g><path
             class="cls-1"
             d="m 85.84,32.81 a 3,3 0 0 0 -1.57,-0.4 c -1,0 -1.67,0.55 -2.32,0.55 -0.45,0 -0.61,-0.23 -0.61,-0.36 a 0.12,0.12 0 0 1 0.12,-0.13 c 0.12,0 0.12,0.11 0.28,0.11 a 0.52,0.52 0 0 0 0.49,-0.55 c 0,-0.47 -0.42,-0.63 -0.77,-0.63 a 0.83,0.83 0 0 0 -0.86,0.9 c 0,0.71 0.62,1.07 1.29,1.07 1.09,0 1.27,-0.46 2.44,-0.46 a 2.19,2.19 0 0 1 1.42,0.57 1.84,1.84 0 0 0 0.09,-0.57 z"
             id="path101" /><path
             class="cls-1"
             d="m 112.29,24.55 a 4.76,4.76 0 0 0 -2.61,-0.69 c -1.67,0 -2.77,0.91 -3.85,0.91 -0.75,0 -1,-0.38 -1,-0.59 A 0.19,0.19 0 0 1 105,24 c 0.2,0 0.2,0.18 0.46,0.18 a 0.86,0.86 0 0 0 0.82,-0.92 c 0,-0.78 -0.7,-1 -1.28,-1 a 1.34,1.34 0 0 0 -1.43,1.49 c 0,1.13 0.8,1.77 2.16,1.77 1.36,0 2.08,-0.76 4,-0.76 a 3.76,3.76 0 0 1 2.46,1 4.91,4.91 0 0 0 0.07,-0.9 2.53,2.53 0 0 0 0.03,-0.31 z"
             id="path102" /><g
             id="g104"><path
               class="cls-1"
               d="m 99.78,21.41 a 0.56,0.56 0 0 1 0.28,-0.58 1.85,1.85 0 0 0 -0.76,-0.19 1.5,1.5 0 0 0 -0.76,0.18 V 21 c 0.21,0.14 0.46,0.32 0.68,0.5 a 0.82,0.82 0 0 1 0.35,-0.09 z"
               id="path103" /><path
               class="cls-1"
               d="m 98.84,23.08 v -0.52 a 1.78,1.78 0 0 0 -0.76,-0.19 1.86,1.86 0 0 0 -0.51,0.09 v 0.22 a 3.1,3.1 0 0 1 0.75,0.74 0.75,0.75 0 0 1 0.07,-0.12 z"
               id="path104" /></g></g></g></g><rect
       style="fill:none;stroke:none;stroke-width:0.0224723;stroke-linejoin:bevel;stroke-opacity:0.94902;paint-order:markers stroke fill"
       id="rect1"
       width="51.977528"
       height="18.416416"
       x="79.06356"
       y="139.81567"
       ry="0.12498486" /></g></svg>
