<?xml version="1.0" encoding="UTF-8" standalone="no"?>
<svg
   viewBox="0 0 7115.6251 2081.2499"
   sodipodi:docname="Logo_2022_rapidlasso_lastools_quer_2.svg"
   xml:space="preserve"
   height="2220"
   width="7590"
   inkscape:version="1.2.1 (9c6d41e410, 2022-07-14)"
   version="1.1"
   id="svg2985"
   inkscape:export-filename="Logo_2022_rapidlasso_lastools_quer_2.png"
   inkscape:export-xdpi="96"
   inkscape:export-ydpi="96"
   xmlns:inkscape="http://www.inkscape.org/namespaces/inkscape"
   xmlns:sodipodi="http://sodipodi.sourceforge.net/DTD/sodipodi-0.dtd"
   xmlns="http://www.w3.org/2000/svg"
   xmlns:svg="http://www.w3.org/2000/svg"
   xmlns:rdf="http://www.w3.org/1999/02/22-rdf-syntax-ns#"
   xmlns:cc="http://creativecommons.org/ns#"
   xmlns:dc="http://purl.org/dc/elements/1.1/"><metadata
     id="metadata2991"><rdf:RDF><cc:Work
         rdf:about=""><dc:format>image/svg+xml</dc:format><dc:type
           rdf:resource="http://purl.org/dc/dcmitype/StillImage" /></cc:Work></rdf:RDF></metadata><defs
     id="defs2989"><clipPath
       id="clipPath3009"
       clipPathUnits="userSpaceOnUse"><path
         inkscape:connector-curvature="0"
         id="path3011"
         d="M 0,841.89 H 595.28 V 0 H 0 Z" /></clipPath></defs><sodipodi:namedview
     inkscape:document-rotation="0"
     inkscape:guide-bbox="true"
     showguides="true"
     width="90cm"
     height="14.8cm"
     showborder="true"
     inkscape:current-layer="layer1"
     inkscape:window-maximized="0"
     inkscape:window-y="175"
     inkscape:window-x="960"
     inkscape:cy="545"
     inkscape:cx="3797.5"
     inkscape:zoom="0.2"
     inkscape:document-units="cm"
     units="cm"
     showgrid="false"
     id="namedview2987"
     inkscape:window-height="1838"
     inkscape:window-width="2222"
     inkscape:pageshadow="2"
     inkscape:pageopacity="0"
     guidetolerance="10"
     gridtolerance="10"
     objecttolerance="10"
     borderopacity="1"
     bordercolor="#666666"
     pagecolor="#ffffff"
     inkscape:showpageshadow="0"
     inkscape:pagecheckerboard="0"
     inkscape:deskcolor="#d1d1d1" /><g
     transform="translate(-116.00415,-1133.5853)"
     inkscape:label="rapidlasso_name"
     id="layer1"
     inkscape:groupmode="layer"
     style="display:inline"><g
   transform="translate(-49.687502,-796.375)"
   id="g5515"><g
     style="display:inline"
     id="g3041"
     transform="matrix(7.6799883,0.01340412,0.01340412,-7.6799883,1957.7013,2627.408)"><path
       d="m 0,0 c 57.276,1.697 126.438,-38.095 126.438,-38.095 0,0 -84.907,32.254 -131.241,26.254 -41.202,-6.324 -48.777,-26.557 -84.294,-34.253 -20.372,-4.414 -33.086,0.787 -33.086,0.787 41.572,6.002 48.287,15.617 81.38,35.133 C -22.469,0.492 0,0 0,0"
       style="fill:#288d30;fill-opacity:1;fill-rule:nonzero;stroke:none"
       id="path3043"
       inkscape:connector-curvature="0" /></g><g
     style="display:inline"
     id="g3045"
     transform="matrix(7.68,0,0,-7.68,1423.7175,2177.8509)"><path
       d="M 0,0 C 11.336,10.874 25.588,25.049 27.538,23.319 29.486,21.589 16.272,8.44 4,-4.16 -13.97,-23.473 -52.771,-59.544 -52.771,-59.544 l -19.217,-18.861 -4.44,2.038 c 0,0 65.094,65.492 76.428,76.367"
       style="fill:#d91433;fill-opacity:1;fill-rule:nonzero;stroke:none"
       id="path3047"
       inkscape:connector-curvature="0" /></g><g
     style="display:inline"
     id="g3049"
     transform="matrix(7.6794268,0.09382662,0.09382662,-7.6794268,1995.2804,2872.5678)"><path
       d="m 0,0 c 54.412,1.612 120.117,-36.19 120.117,-36.19 0,0 -80.662,30.642 -124.68,24.941 -39.142,-6.007 -46.338,-25.229 -80.079,-32.539 -19.354,-4.193 -31.432,0.746 -31.432,0.746 39.493,5.702 45.873,14.836 77.311,33.376 C -21.346,0.468 0,0 0,0"
       style="fill:#46ac32;fill-opacity:1;fill-rule:nonzero;stroke:none"
       id="path3051"
       inkscape:connector-curvature="0" /></g><g
     style="display:inline"
     id="g3053"
     transform="matrix(7.68,0,0,-7.68,2005.464,3118.2405)"><path
       d="m 0,0 c 49.638,1.451 109.575,-32.572 109.575,-32.572 0,0 -73.583,27.579 -113.738,22.449 -35.707,-5.408 -42.271,-22.707 -73.051,-29.287 -17.655,-3.774 -28.674,0.672 -28.674,0.672 36.028,5.131 41.848,13.351 70.528,30.039 C -19.473,0.421 0,0 0,0"
       style="fill:#80cc28;fill-opacity:1;fill-rule:nonzero;stroke:none"
       id="path3055"
       inkscape:connector-curvature="0" /></g><g
     style="display:inline"
     id="g3057"
     transform="matrix(7.68,0,0,-7.68,359.6666,3046.3096)"><path
       d="m 0,0 c -5.833,-4.833 -9.333,-8.5 -10.667,-9.167 5.164,7.125 18.675,19.691 30.667,29 11.383,8.526 23.544,15.688 39.7,18.02 1.831,0.217 3.285,0.63 4.034,0.819 0.421,0.106 0.461,0.123 0.608,0.037 0.408,-0.24 4.299,-1.787 4.33,-1.975 0.031,-0.656 0.781,-0.765 1.219,-0.453 0.656,-0.297 1.515,-0.859 3.015,-1.687 1.222,-0.69 2.094,-1.031 2.25,-1.281 0.063,-0.188 0.019,-0.537 0.063,-0.719 0.228,-0.941 -0.011,-0.305 2.356,-4.143 1.25,-2.026 1.744,-5.734 1.744,-7.136 0,-1.823 -0.342,-6.247 -0.951,-6.739 -0.608,-0.492 -0.396,1.903 -1.11,3.806 -0.713,1.903 -3.251,10.862 -16.635,11.02 C 52.126,28.928 40.202,27.597 25.844,18.766 16.06,12.748 7.047,6.292 0,0"
       style="fill:#288d30;fill-opacity:1;fill-rule:nonzero;stroke:none"
       id="path3059"
       inkscape:connector-curvature="0" /></g><g
     style="display:inline"
     clip-path="url(#clipPath3009)"
     id="g3007"
     transform="matrix(7.68,0,0,-7.68,-676.3654,6309.5416)"><g
       transform="translate(308.8711,533.6436)"
       id="g3013"><path
         inkscape:connector-curvature="0"
         id="path3015"
         style="fill:#d91433;fill-opacity:1;fill-rule:nonzero;stroke:none"
         d="M 0,0 C 15.403,10.195 35.076,23.545 36.79,21.192 38.504,18.839 20.649,6.363 3.805,-5.629 -21.042,-24.184 -73.535,-57.75 -73.535,-57.75 l -26.204,-17.773 -4.75,3.273 c 0,0 89.083,62.057 104.489,72.25" /></g></g></g><text
   id="text3070"
   y="3084.0449"
   x="212.12839"
   style="font-style:normal;font-variant:normal;font-weight:normal;font-stretch:normal;line-height:0%;font-family:'Lucida Console';-inkscape-font-specification:'Lucida Console';text-align:start;letter-spacing:0px;word-spacing:0px;writing-mode:lr-tb;text-anchor:start;fill:#000000;fill-opacity:1;stroke:none"
   xml:space="preserve"><tspan
     style="font-size:433.436px;line-height:1.25"
     y="3084.0449"
     x="212.12839"
     id="tspan3072"
     sodipodi:role="line">rapid<tspan
   id="tspan5343"
   style="fill:#d40b28;fill-opacity:1">las</tspan>so</tspan></text>
<text
   id="text5401"
   y="2069.2222"
   x="2908.1887"
   style="font-style:normal;font-variant:normal;font-weight:normal;font-stretch:normal;font-size:16.6707px;line-height:0%;font-family:Arial;-inkscape-font-specification:Arial;text-align:start;letter-spacing:0px;word-spacing:0px;writing-mode:lr-tb;text-anchor:start;fill:#000000;fill-opacity:1;stroke:none;stroke-width:1.38923"
   xml:space="preserve"><tspan
     style="font-style:normal;font-variant:normal;font-weight:normal;font-stretch:normal;font-size:1058.17px;line-height:125%;font-family:Arial;-inkscape-font-specification:Arial;text-align:start;writing-mode:lr-tb;text-anchor:start;stroke-width:1.38923"
     y="2069.2222"
     x="2908.1887"
     id="tspan5403"
     sodipodi:role="line">LAStools</tspan></text>

<text
   id="text5423"
   y="2626.9556"
   x="2942.8254"
   style="font-style:normal;font-variant:normal;font-weight:normal;font-stretch:normal;font-size:16.6152px;line-height:0%;font-family:'Lucida Console';-inkscape-font-specification:'Lucida Console';text-align:start;letter-spacing:0px;word-spacing:0px;writing-mode:lr-tb;text-anchor:start;fill:#000000;fill-opacity:1;stroke:none;stroke-width:1.3846"
   xml:space="preserve"><tspan
     id="tspan5429"
     style="font-style:normal;font-variant:normal;font-weight:normal;font-stretch:normal;font-size:522.027px;line-height:1.25;font-family:Arial;-inkscape-font-specification:Arial;text-align:start;text-anchor:start;stroke-width:1.3846"
     y="2626.9556"
     x="2942.8254"
     sodipodi:role="line">LiDAR processing</tspan></text>

</g></svg>
