<svg id="Layer_1" data-name="Layer 1" xmlns="http://www.w3.org/2000/svg" viewBox="0 0 63.12 65.13"><defs><style>.cls-1,.cls-2{fill:#004c52;opacity:0.66;}.cls-1{stroke:#004c52;stroke-miterlimit:10;stroke-width:0.5px;}</style></defs><title>SunGIS</title><path class="cls-1" d="M179.93,124.24a10.44,10.44,0,0,0-.77,1.53,8.76,8.76,0,0,0-.56,3.66,5.48,5.48,0,0,1-.42,2.43,5,5,0,0,1-3,2.69c-.51.18-1.05.34-1.57.49a19.09,19.09,0,0,0-2.77,1,6.09,6.09,0,0,0-2.48,1.87,32.67,32.67,0,0,0-3,5.24,2,2,0,0,1-2.25,1.39,6.76,6.76,0,0,0-3.55.46h0c-.54.23-1.09.47-1.65.66a4.42,4.42,0,0,1-3.83-.38,5.83,5.83,0,0,1-2-2.19l-.55-1c-.23-.4-.45-.82-.69-1.22a8.06,8.06,0,0,0-2.86-2.55,9.21,9.21,0,0,1-3.63-3.84,16,16,0,0,1-1.17-4,7.73,7.73,0,0,0-1.81-4,8.85,8.85,0,0,0-2.83-2,3.4,3.4,0,0,0-3,.19,7.57,7.57,0,0,1-3,.82,5,5,0,0,0-3.22,1,25.23,25.23,0,0,0-1.85,1.88l-.15.16-.48.56a1.88,1.88,0,0,1-.12.3c.22-.26.45-.53.68-.78l.15-.17a21.64,21.64,0,0,1,1.84-1.87,4.91,4.91,0,0,1,3.15-1,7.85,7.85,0,0,0,3.07-.83,3.31,3.31,0,0,1,2.95-.2,8.85,8.85,0,0,1,2.8,2,7.67,7.67,0,0,1,1.79,4,16.5,16.5,0,0,0,1.17,4,9.29,9.29,0,0,0,3.67,3.88,8,8,0,0,1,2.83,2.52l.68,1.21.56,1a5.9,5.9,0,0,0,2,2.24,4.56,4.56,0,0,0,3.93.38c.56-.19,1.11-.43,1.65-.66l0,0a6.69,6.69,0,0,1,3.5-.44,2.12,2.12,0,0,0,2.36-1.46,32.87,32.87,0,0,1,3-5.22,6,6,0,0,1,2.44-1.83,18.44,18.44,0,0,1,2.75-1c.52-.15,1.06-.31,1.58-.49a5.07,5.07,0,0,0,3.09-2.75,5.55,5.55,0,0,0,.43-2.47,8.73,8.73,0,0,1,.55-3.62,9.2,9.2,0,0,1,.76-1.5Z" transform="translate(-125.45 -112.81)"/><path class="cls-1" d="M165.47,114.69l-.11,0a3.85,3.85,0,0,1,0,1.22,2.79,2.79,0,0,1-1.67,2,8.5,8.5,0,0,0-3.87,3.92,10.85,10.85,0,0,1-3.95,4.21,1.69,1.69,0,0,1-2.06,0l-2.11-1.6-.79-.61a4.62,4.62,0,0,1-1.59-2.4c-.62-2-1.14-3.8-1.6-5.46-.14-.51-.25-1-.35-1.55,0-.1-.05-.21-.07-.31l-.1,0,.06.3c.11.52.21,1,.35,1.56.46,1.66,1,3.45,1.61,5.46a4.67,4.67,0,0,0,1.62,2.46l.8.6,2.1,1.61a1.81,1.81,0,0,0,2.19,0,10.82,10.82,0,0,0,4-4.25,8.35,8.35,0,0,1,3.83-3.87,3,3,0,0,0,1.73-2.12A4.1,4.1,0,0,0,165.47,114.69Z" transform="translate(-125.45 -112.81)"/><path class="cls-1" d="M182.39,127.43c-.72,0-1,.58-1.3,1.26l-.39.88a16.76,16.76,0,0,1-1.81,3.36,8.2,8.2,0,0,1-4.9,3.22,7.66,7.66,0,0,0-4.6,2.71,8.18,8.18,0,0,0-1.78,6.59,3.78,3.78,0,0,0,1.79,2.36l.37.25a7.44,7.44,0,0,1,1.47,1.19,3.89,3.89,0,0,1,.76,3.27c0,.19-.05.38-.07.57-.06.5-.13,1-.22,1.53a2.81,2.81,0,0,0,1,2.65l0,0c.52.52,1,1,1.53,1.6a7,7,0,0,1,1.55,3.57c.08.54.18,1.09.28,1.62s.23,1.27.32,1.91c.22,1.44,0,2-1.29,2.83-.67.45-1.37.83-2,1.19a8.46,8.46,0,0,0-1.87,1.49l-.41.39-1,1c-.45.43-.92.88-1.39,1.31a6.69,6.69,0,0,0-2.07,2.86l-.18.54.24-.05c0-.14.1-.28.14-.42a6.49,6.49,0,0,1,2-2.77c.48-.43,1-.88,1.4-1.32s.67-.65,1-1l.41-.4a8.79,8.79,0,0,1,1.82-1.45,22.08,22.08,0,0,0,2.06-1.21c1.34-.9,1.61-1.5,1.39-3-.1-.64-.22-1.29-.33-1.92s-.2-1.07-.28-1.61a7.1,7.1,0,0,0-1.6-3.68c-.48-.56-1-1.09-1.54-1.61l0,0a2.6,2.6,0,0,1-.91-2.46c.09-.51.16-1,.22-1.54,0-.19.05-.38.08-.57a4.13,4.13,0,0,0-.82-3.45,7.43,7.43,0,0,0-1.51-1.21l-.37-.26a3.55,3.55,0,0,1-1.7-2.21,8,8,0,0,1,1.74-6.43,7.42,7.42,0,0,1,4.48-2.63,8.39,8.39,0,0,0,5-3.3,16.43,16.43,0,0,0,1.83-3.4c.13-.29.26-.59.4-.89.34-.74.56-1.2,1.27-1.11A2,2,0,0,1,182.39,127.43Z" transform="translate(-125.45 -112.81)"/><path class="cls-1" d="M183,148.11a7.76,7.76,0,0,1,5.3-1.26,1.48,1.48,0,0,0,0-.21,8,8,0,0,0-5.42,1.28,8.5,8.5,0,0,0-2.25,1.81,2.61,2.61,0,0,0-.55,2.86,33.16,33.16,0,0,1,1.28,3.48c.17.5.33,1,.51,1.5a22.89,22.89,0,0,0,1.79,3.69c.19.34.4.71.65,1.08,0-.09.05-.18.08-.27-.18-.28-.36-.58-.54-.92a22.43,22.43,0,0,1-1.78-3.65c-.17-.49-.34-1-.5-1.49a36.18,36.18,0,0,0-1.29-3.51,2.46,2.46,0,0,1,.51-2.64A8.25,8.25,0,0,1,183,148.11Z" transform="translate(-125.45 -112.81)"/><path class="cls-1" d="M188.26,148a8.79,8.79,0,0,0-1-.15,4.75,4.75,0,0,0-4.43,2.31,3.4,3.4,0,0,0-.35,2.7,29.3,29.3,0,0,0,1.73,5.22l.16.36c.28.62.58,1.26.88,1.89l.07-.1c-.29-.62-.58-1.23-.85-1.83l-.16-.37a28.8,28.8,0,0,1-1.73-5.2,3.27,3.27,0,0,1,.34-2.61,4.64,4.64,0,0,1,4.33-2.26,8.46,8.46,0,0,1,1,.14Z" transform="translate(-125.45 -112.81)"/><path class="cls-1" d="M188.18,149.62l-.07,0a2.74,2.74,0,0,0-2.92.74,2.46,2.46,0,0,0-.6,2,7.33,7.33,0,0,0,.53,2c.09.24.19.49.27.73.19.6.38,1.21.56,1.8.12.39.24.8.37,1.21l.07-.15c-.12-.37-.23-.73-.34-1.09-.18-.59-.37-1.21-.56-1.8-.08-.25-.18-.5-.27-.74a7.11,7.11,0,0,1-.52-2,2.35,2.35,0,0,1,.57-1.88,2.66,2.66,0,0,1,2.82-.71l.09,0Z" transform="translate(-125.45 -112.81)"/><path class="cls-1" d="M176.24,122.05c-.28,1.32-.6,2.6-.94,3.8a13.08,13.08,0,0,0-.42,3.2c0,1.08-.14,2.11-1.22,2.73l-.52.31c-.21.13-.42.27-.64.39a21.28,21.28,0,0,1-4.37,1.61,6.41,6.41,0,0,0-1.24.49,3.93,3.93,0,0,0-1.72,2.41,5.77,5.77,0,0,1-1.44,2.2,7.6,7.6,0,0,1-5.25,1.92,14.38,14.38,0,0,1-1.74-.1l-.79-.07h0l-.41-.2a5.71,5.71,0,0,1-.88-.47c-.33-.24-.65-.5-1-.76s-.72-.6-1.11-.86c-1-.69-2.07-1.34-3.09-2l-.24-.15a6,6,0,0,1-2.54-2.61,3.17,3.17,0,0,1-.13-2.6.93.93,0,0,1,1.12-.64h0a9.65,9.65,0,0,1,1.69.79A4.51,4.51,0,0,0,153,132c1.51-.44,3-.93,4.48-1.44a6.33,6.33,0,0,0,2.63-1.65,21.82,21.82,0,0,0,2.54-3.55l.2-.32a9.94,9.94,0,0,1,2.79-3.34,9.07,9.07,0,0,0,2.51-2.77,4.75,4.75,0,0,0,.9-2.47v-.28l-.11-.07c0,.12,0,.24,0,.35a4.64,4.64,0,0,1-.88,2.41,9.14,9.14,0,0,1-2.48,2.75,9.81,9.81,0,0,0-2.82,3.37l-.2.32a22.69,22.69,0,0,1-2.53,3.53,6.27,6.27,0,0,1-2.59,1.62c-1.46.51-3,1-4.47,1.43a4.34,4.34,0,0,1-3.53-.55,10.13,10.13,0,0,0-1.71-.79h0a1,1,0,0,0-1.26.7,3.28,3.28,0,0,0,.13,2.68,6.25,6.25,0,0,0,2.59,2.67l.23.14c1,.63,2.08,1.28,3.09,2,.38.27.75.57,1.1.86s.64.53,1,.77a5.86,5.86,0,0,0,.89.48l.41.2h0l0,0,.79.07a17.11,17.11,0,0,0,1.75.1,7.67,7.67,0,0,0,5.32-2,5.65,5.65,0,0,0,1.47-2.24,3.83,3.83,0,0,1,1.67-2.35,7.39,7.39,0,0,1,1.22-.48,21.12,21.12,0,0,0,4.39-1.62c.22-.12.44-.26.65-.39l.51-.31a2.94,2.94,0,0,0,1.28-2.82,12.36,12.36,0,0,1,.42-3.17c.34-1.21.65-2.49.94-3.81a5.93,5.93,0,0,0,.11-1.25l-.11-.1A5.48,5.48,0,0,1,176.24,122.05Z" transform="translate(-125.45 -112.81)"/><path class="cls-1" d="M188.2,144.31a17.91,17.91,0,0,0-4.21.59,10.51,10.51,0,0,1-3.59.26,8.2,8.2,0,0,0-2.15.14l-.39.08a6.07,6.07,0,0,1-1.89.18h0l-.46-.17-1-.41-.16-.06c-.54-.23-1.1-.46-1.63-.72a1.73,1.73,0,0,1-1-1.59,3.77,3.77,0,0,1,1-2.18,6.57,6.57,0,0,1,2.57-1.56l.22-.09a9.84,9.84,0,0,0,3.31-2.47l.57-.61a14.23,14.23,0,0,1,2.82-2.54,5.58,5.58,0,0,1,3-.88l-.06-.11a5.64,5.64,0,0,0-3,.9,14.53,14.53,0,0,0-2.85,2.56l-.57.61a9.84,9.84,0,0,1-3.27,2.44l-.23.09a6.52,6.52,0,0,0-2.6,1.59,3.83,3.83,0,0,0-1.06,2.24,1.85,1.85,0,0,0,1.06,1.7c.54.26,1.1.49,1.64.71l.16.07,1,.41.46.17h0s0,0,0,0a6.15,6.15,0,0,0,1.92-.19l.39-.08a8.48,8.48,0,0,1,2.13-.13A10.71,10.71,0,0,0,184,145a18.18,18.18,0,0,1,4.19-.59h.07v-.1Z" transform="translate(-125.45 -112.81)"/><path class="cls-1" d="M170.41,125.28l.23.08a2.17,2.17,0,0,1,1.54,1.6,4.56,4.56,0,0,1-2.92,5.32c-.67.25-1.37.47-2,.67l-1.39.44a2.45,2.45,0,0,0-1.56,1.26,14.73,14.73,0,0,0-.67,1.78,4.35,4.35,0,0,1-4.16,3,7.6,7.6,0,0,1-1.08-.1l-.49-.06h-.06l-.36-.18c-.26-.12-.53-.25-.78-.39a15,15,0,0,1-3.27-2.64c-.53-.57-.52-.93.08-1.5a8.32,8.32,0,0,1,4.12-2.26l.5-.11c.66-.14,1.35-.28,2-.45a2.32,2.32,0,0,0,1.69-1.36c.07-.17.14-.33.22-.5.2-.43.4-.89.56-1.35a7.52,7.52,0,0,1,1.2-2.12,4,4,0,0,1,3.06-1.68A10.48,10.48,0,0,1,170.41,125.28Zm-12.54,13.94h0l.49.06a7.6,7.6,0,0,0,1.07.09,4.24,4.24,0,0,0,4.06-3,13,13,0,0,1,.68-1.79,2.51,2.51,0,0,1,1.61-1.32c.47-.16.94-.3,1.4-.44.67-.21,1.36-.42,2-.67a4.36,4.36,0,0,0,2.58-2.39,4.29,4.29,0,0,0,.27-2.81,2.06,2.06,0,0,0-1.46-1.52,10.06,10.06,0,0,0-3.75-.58,3.9,3.9,0,0,0-3,1.64,7.17,7.17,0,0,0-1.18,2.09c-.16.46-.37.92-.56,1.36-.08.16-.15.33-.22.49a2.48,2.48,0,0,1-1.76,1.43l-2,.45-.5.1a8.31,8.31,0,0,0-4.07,2.23c-.55.53-.56.84-.07,1.36a14.68,14.68,0,0,0,3.24,2.61,8.2,8.2,0,0,0,.78.4l.35.17Z" transform="translate(-125.45 -112.81)"/><path class="cls-1" d="M159.64,134.78a1.37,1.37,0,0,1,.54.3,1,1,0,0,1,.34.8,1,1,0,0,1-.49.8,1.76,1.76,0,0,1-1.18.22h-.07l-.18-.11a2.55,2.55,0,0,1-.39-.28,1.2,1.2,0,0,1-.47-.86.87.87,0,0,1,.35-.62A1.69,1.69,0,0,1,159.64,134.78Zm-.79,2h0a1.63,1.63,0,0,0,1.11-.21.94.94,0,0,0,.44-.72.86.86,0,0,0-.3-.71,1.62,1.62,0,0,0-2-.06.73.73,0,0,0-.31.54,1.09,1.09,0,0,0,.44.78,2.45,2.45,0,0,0,.37.26l.18.11Z" transform="translate(-125.45 -112.81)"/><path class="cls-1" d="M186.36,143.23c-.6.08-1.22.17-1.82.28a6,6,0,0,1-3-.14l-.32-.11a11.23,11.23,0,0,0-4-.62h0l-.26-.09-.57-.19a.87.87,0,0,1-.58-.55.88.88,0,0,1,.2-.81,3.17,3.17,0,0,1,.67-.6,16.08,16.08,0,0,0,3.47-3.58,7.38,7.38,0,0,1,3.23-2.65A4.12,4.12,0,0,1,186,134a.56.56,0,0,1,0-.12,4.33,4.33,0,0,0-2.68.18,7.58,7.58,0,0,0-3.28,2.68,15.48,15.48,0,0,1-3.45,3.56,3.71,3.71,0,0,0-.69.63,1,1,0,0,0-.22.9,1,1,0,0,0,.65.63l.58.19.26.08h0s0,0,0,0a11,11,0,0,1,4,.61,6.08,6.08,0,0,0,3.37.26c.6-.11,1.22-.2,1.81-.29s1.19-.17,1.78-.27c0,0,0-.07,0-.11C187.54,143.06,186.94,143.14,186.36,143.23Z" transform="translate(-125.45 -112.81)"/><path class="cls-1" d="M187.88,141a2.15,2.15,0,0,1-.92.59,7,7,0,0,1-3,.3h0l-.16,0-.37-.12a2.7,2.7,0,0,1-1.7-1.66,3.12,3.12,0,0,1,.83-3.48,2.79,2.79,0,0,1,2.69-.89,3.74,3.74,0,0,1,1.74.9,1.21,1.21,0,0,1-.05-.18,4,4,0,0,0-1.3-.73l-.37-.1a2.94,2.94,0,0,0-2.79.93,3.2,3.2,0,0,0-.85,3.58,2.82,2.82,0,0,0,1.77,1.73l.37.12.16.05H184a7.15,7.15,0,0,0,3-.31,2.23,2.23,0,0,0,.93-.58A.36.36,0,0,1,187.88,141Z" transform="translate(-125.45 -112.81)"/><path class="cls-1" d="M167.42,127.43l.27.1A1.85,1.85,0,0,1,169,129a1.72,1.72,0,0,1-.76,1.61,3.63,3.63,0,0,1-2.57.75h0a1.37,1.37,0,0,1-1.14-1,2.8,2.8,0,0,1,.85-2.62A2.17,2.17,0,0,1,167.42,127.43Zm-1.8,3.84h0a3.64,3.64,0,0,0,2.51-.73,1.65,1.65,0,0,0,.71-1.52,1.75,1.75,0,0,0-1.2-1.39,2.15,2.15,0,0,0-2.29.17,2.68,2.68,0,0,0-.82,2.5,1.25,1.25,0,0,0,1.06.95S165.62,131.26,165.62,131.27Z" transform="translate(-125.45 -112.81)"/><path class="cls-1" d="M145.86,119.86a34.8,34.8,0,0,1-1.32-4.82,1.52,1.52,0,0,0-.06-.2l-.1,0a1,1,0,0,1,.05.18,36.57,36.57,0,0,0,1.33,4.83,8.31,8.31,0,0,1,.5,3.46c-.1,1-.44,1.34-1.16,1.27h0l-.41-.18a8.46,8.46,0,0,1-.85-.43,18.68,18.68,0,0,1-3.89-3.17,5.41,5.41,0,0,1-1.2-1.91,8.28,8.28,0,0,1-.36-1.24.33.33,0,0,1-.1.06,9.38,9.38,0,0,0,.36,1.22,5.36,5.36,0,0,0,1.22,1.94,18.83,18.83,0,0,0,3.91,3.19,7.8,7.8,0,0,0,.87.43l.4.19h0l0,0c1,.09,1.21-.74,1.27-1.37A8.16,8.16,0,0,0,145.86,119.86Z" transform="translate(-125.45 -112.81)"/><path class="cls-1" d="M159.61,115.35c-.06-.16-.12-.31-.17-.47-.19-.53-.38-1.08-.53-1.64a.53.53,0,0,1-.12,0c.15.58.35,1.15.55,1.71,0,.15.11.31.17.47a3.8,3.8,0,0,1,0,3l-.13.27a13.08,13.08,0,0,1-1,1.86,5.33,5.33,0,0,1-3.68,2.57,3.62,3.62,0,0,1-1,0l-.49,0h0a3.44,3.44,0,0,1-2.57-2.33c-.29-1.06-.67-2.1-1-3.12a36.12,36.12,0,0,1-1.19-3.78l-.11,0a39.09,39.09,0,0,0,1.2,3.8c.37,1,.75,2.06,1,3.11a3.53,3.53,0,0,0,2.63,2.4h0l0,0,.49,0a4.18,4.18,0,0,0,1.06,0,5.42,5.42,0,0,0,3.76-2.62,15.07,15.07,0,0,0,1-1.87l.12-.28A3.87,3.87,0,0,0,159.61,115.35Z" transform="translate(-125.45 -112.81)"/><path class="cls-1" d="M157,115.42c-.05-.71-.08-1.44-.08-2.19h-.11c0,.75,0,1.49.08,2.21a6.44,6.44,0,0,1-.43,3.34,2.49,2.49,0,0,1-2.28,1.56h0a2.06,2.06,0,0,1-1.47-1.09,14,14,0,0,0-1.09-1.63,13.07,13.07,0,0,1-2.1-4l-.11,0a13.23,13.23,0,0,0,2.13,4.07,12.28,12.28,0,0,1,1.07,1.62,2.2,2.2,0,0,0,1.55,1.14h.05a2.6,2.6,0,0,0,2.38-1.62A6.57,6.57,0,0,0,157,115.42Z" transform="translate(-125.45 -112.81)"/><path class="cls-1" d="M167.43,115.43l-.22-.07c0,.13,0,.25,0,.38a4.18,4.18,0,0,1-2.08,3.52c-.3.2-.63.38-.94.56l-.87.52a4.45,4.45,0,0,0-1.64,2.06c-.14.32-.25.64-.36,1a6.45,6.45,0,0,1-1,2.08,11,11,0,0,1-5.67,4.08,4.82,4.82,0,0,1-2.53.13,1.6,1.6,0,0,1-1.18-1.2c-.07-.22-.12-.45-.17-.67a6.08,6.08,0,0,0-.72-1.94l-.36-.55c-.21-.3-.42-.62-.61-.94a11.34,11.34,0,0,1-1.07-2.86c-.28-1-.58-2.1-.95-3.15a29,29,0,0,1-1-4l-.2.07a29.86,29.86,0,0,0,1,4c.36,1,.66,2.11.94,3.13a11.5,11.5,0,0,0,1.09,2.91c.2.32.41.64.62,1s.25.36.36.55a6,6,0,0,1,.69,1.87c.05.23.11.45.17.68a1.83,1.83,0,0,0,1.33,1.35,5.12,5.12,0,0,0,2.64-.13,11.28,11.28,0,0,0,5.79-4.15,6.57,6.57,0,0,0,1.07-2.15c.11-.31.22-.64.35-.94a4.24,4.24,0,0,1,1.57-2c.28-.18.57-.35.86-.51s.64-.37.95-.58a4.4,4.4,0,0,0,2.18-3.69C167.44,115.64,167.43,115.53,167.43,115.43Z" transform="translate(-125.45 -112.81)"/><path class="cls-1" d="M178.37,122.59a4.42,4.42,0,0,1-.15.48,6.78,6.78,0,0,0-.28.87,5,5,0,0,1-.37,1,7.21,7.21,0,0,0-.74,2.59,13.77,13.77,0,0,0,0,2.13c0,.21,0,.42,0,.63a2.75,2.75,0,0,1-1.9,2.77c-1.84.72-3.68,1.37-5.42,2a4.31,4.31,0,0,0-2.5,1.75c-.2.33-.39.67-.56,1l-.16.29a7.33,7.33,0,0,1-4.65,3.94l-1.18.31c-.84.22-1.71.44-2.56.69l-.12,0a5.6,5.6,0,0,1-2.45.33h0a3,3,0,0,1-1.46-.89l-.43-.5a9.77,9.77,0,0,1-.76-.92,10.31,10.31,0,0,0-3.42-3.18,10.6,10.6,0,0,1-2.9-2.24,7.89,7.89,0,0,1-1.76-4.72c0-.26,0-.53-.05-.8,0-.46-.06-.94-.12-1.4a5.68,5.68,0,0,0-1.85-3.2,35.38,35.38,0,0,0-3.93-3.24l-.64-.49a3.56,3.56,0,0,1-1.65-3,1.18,1.18,0,0,1-.21.18,3.76,3.76,0,0,0,1.73,3l.64.49a36.33,36.33,0,0,1,3.91,3.22,5.52,5.52,0,0,1,1.79,3.08c.06.45.09.92.12,1.38,0,.27,0,.54.05.81a8,8,0,0,0,1.81,4.84,10.74,10.74,0,0,0,3,2.29,10.2,10.2,0,0,1,3.35,3.12,9.86,9.86,0,0,0,.77.94c.14.16.29.32.43.49a3.14,3.14,0,0,0,1.53,1h.05l0,0a6,6,0,0,0,2.54-.34l.12,0c.85-.24,1.71-.46,2.55-.68l1.19-.31a7.59,7.59,0,0,0,4.78-4.05l.15-.29c.18-.33.36-.67.56-1a4.18,4.18,0,0,1,2.39-1.66c1.74-.6,3.59-1.25,5.43-2a3,3,0,0,0,2-3l0-.64a14.72,14.72,0,0,1,0-2.1,7,7,0,0,1,.72-2.51,6,6,0,0,0,.39-1.1,8.21,8.21,0,0,1,.27-.84c.05-.13.1-.25.14-.38Z" transform="translate(-125.45 -112.81)"/><path class="cls-1" d="M184.73,145.91c-.58.2-1.17.38-1.74.56s-1.43.44-2.13.7a15.39,15.39,0,0,0-2,1l-.28.16a7.74,7.74,0,0,0-.73.49l-.48.34a2.36,2.36,0,0,1-1.85.56h0a2.47,2.47,0,0,1-1.1-.88,6.11,6.11,0,0,0-2-1.86c-.48-.25-1-.5-1.53-.74a2.58,2.58,0,0,1-1.56-2.43,5.18,5.18,0,0,1,.63-2.7,6.14,6.14,0,0,1,3.39-3.12l1-.35c.46-.15.94-.3,1.4-.49a10.55,10.55,0,0,0,3.28-2.61l0,0,1.07-1.15c.39-.41.78-.84,1.18-1.25a4.33,4.33,0,0,1,2.72-1.39c.12,0,.25,0,.37,0l-.07-.1h-.32a4.52,4.52,0,0,0-2.78,1.42l-1.17,1.25-1.08,1.15,0,0a10.23,10.23,0,0,1-3.25,2.59c-.45.19-.92.34-1.38.49s-.69.22-1,.35a6.24,6.24,0,0,0-3.45,3.17,5.37,5.37,0,0,0-.64,2.75,2.65,2.65,0,0,0,1.63,2.52c.55.25,1,.49,1.52.74a6,6,0,0,1,1.92,1.84,2.72,2.72,0,0,0,1.15.91h.06a2.49,2.49,0,0,0,1.93-.57l.48-.34a6.93,6.93,0,0,1,.72-.48l.28-.16a14.63,14.63,0,0,1,1.94-1c.7-.26,1.42-.48,2.13-.7s1.16-.36,1.73-.56a8.72,8.72,0,0,1,3.56-.38.4.4,0,0,0,0-.11A8.65,8.65,0,0,0,184.73,145.91Z" transform="translate(-125.45 -112.81)"/><path class="cls-1" d="M155.21,113.68a2.55,2.55,0,0,1-.93,1.77,1.66,1.66,0,0,1-1.31.28h0a3.43,3.43,0,0,1-1.42-1,6.29,6.29,0,0,1-.84-1.3h-.11a6.14,6.14,0,0,0,.86,1.36,3.74,3.74,0,0,0,1.47,1h0s0,0,0,0a1.75,1.75,0,0,0,1.4-.29,2.74,2.74,0,0,0,1-1.85,5.86,5.86,0,0,1,.1-.58h-.1C155.27,113.29,155.24,113.49,155.21,113.68Z" transform="translate(-125.45 -112.81)"/><path class="cls-2" d="M137.24,152.37l-1.43.85a2.54,2.54,0,0,0-.77-.91,1.8,1.8,0,0,0-1-.24,1.85,1.85,0,0,0-1.22.41,1.32,1.32,0,0,0-.48,1c0,.57.42,1,1.27,1.37l1.17.48a5,5,0,0,1,2.08,1.41,3.15,3.15,0,0,1,.66,2,3.56,3.56,0,0,1-1.08,2.67,3.66,3.66,0,0,1-2.69,1.06,3.59,3.59,0,0,1-2.51-.9A4.16,4.16,0,0,1,130,159.1l1.79-.39a3.06,3.06,0,0,0,.42,1.42,1.84,1.84,0,0,0,1.59.76,1.87,1.87,0,0,0,1.37-.55,1.91,1.91,0,0,0,.55-1.41,2.06,2.06,0,0,0-.09-.62,1.81,1.81,0,0,0-.3-.52,2.34,2.34,0,0,0-.52-.45,4.83,4.83,0,0,0-.76-.4l-1.13-.47q-2.4-1-2.4-3a2.81,2.81,0,0,1,1-2.2,3.63,3.63,0,0,1,2.51-.9A3.51,3.51,0,0,1,137.24,152.37Z" transform="translate(-125.45 -112.81)"/><path class="cls-2" d="M141.3,150.51v7.05a3.89,3.89,0,0,0,.49,2.21,2.64,2.64,0,0,0,4.15,0,3.82,3.82,0,0,0,.49-2.21v-7.05h1.77v7.54a4.19,4.19,0,0,1-1.16,3,4.43,4.43,0,0,1-6.35,0,4.19,4.19,0,0,1-1.16-3v-7.54Z" transform="translate(-125.45 -112.81)"/><path class="cls-2" d="M150.23,162.36V149.87l8.53,8.92v-8.13h1.77v12.42L152,154.17v8.19Z" transform="translate(-125.45 -112.81)"/><path class="cls-2" d="M143.36,170.32h4.84v.39a8.17,8.17,0,0,1-.31,2.33,5,5,0,0,1-1,1.76,5.27,5.27,0,0,1-4.14,1.84,5.68,5.68,0,0,1-4.21-1.78,6.09,6.09,0,0,1,4.37-10.37,6,6,0,0,1,2.56.56,7.24,7.24,0,0,1,2.23,1.82l-1.26,1.2a4.25,4.25,0,0,0-3.5-1.91,4.18,4.18,0,0,0-3.12,1.28,4.27,4.27,0,0,0-1.26,3.15,4.14,4.14,0,0,0,1.41,3.22,4.18,4.18,0,0,0,2.84,1.17,3.54,3.54,0,0,0,2.34-.87,3.16,3.16,0,0,0,1.16-2.13h-2.92Z" transform="translate(-125.45 -112.81)"/><path class="cls-2" d="M152,164.49v12.15h-1.77V164.49Z" transform="translate(-125.45 -112.81)"/><path class="cls-2" d="M161,166.3l-1.43.85a2.45,2.45,0,0,0-.77-.91,2.06,2.06,0,0,0-2.2.17,1.3,1.3,0,0,0-.48,1c0,.57.42,1,1.27,1.38l1.17.48a4.88,4.88,0,0,1,2.08,1.41,3.15,3.15,0,0,1,.66,2,3.59,3.59,0,0,1-1.07,2.67,3.74,3.74,0,0,1-2.69,1.06,3.6,3.6,0,0,1-2.52-.9,4.16,4.16,0,0,1-1.22-2.54l1.79-.4a3.07,3.07,0,0,0,.42,1.43,2,2,0,0,0,3,.2,1.92,1.92,0,0,0,.54-1.4,2,2,0,0,0-.09-.62,1.86,1.86,0,0,0-.3-.53,2.08,2.08,0,0,0-.52-.44,4.12,4.12,0,0,0-.76-.4l-1.13-.47q-2.4-1-2.4-3a2.83,2.83,0,0,1,1-2.21,3.67,3.67,0,0,1,2.51-.89A3.49,3.49,0,0,1,161,166.3Z" transform="translate(-125.45 -112.81)"/></svg>